<?xml version="1.0" encoding="UTF-8"?>
<svg id="Layer_1" data-name="Layer 1" xmlns="http://www.w3.org/2000/svg" viewBox="0 0 327.88 214.84">
  <defs>
    <style>
      .cls-1 {
        fill: #53795a;
      }

      .cls-1, .cls-2, .cls-3, .cls-4 {
        stroke: #53795a;
        stroke-miterlimit: 10;
      }

      .cls-2 {
        fill: #f9f5ee;
      }

      .cls-3 {
        fill: #fffcf7;
      }

      .cls-4 {
        fill: #aba398;
      }
    </style>
  </defs>
  <path class="cls-3" d="M101.58,79.63c4.07-11.21,2.71-23.43,7.09-34.47,3.18-8.03-1.67-14.65-9.86-14.05-3.22.23-6.36,1.59-9.58,1.96-12.13,1.38-23.66,5.08-33.09,13.23-14.52,12.54-27.09,27.28-36.45,44.6-6.54,12.11-11.2,25.15-10.91,39.59.28,13.74,10.29,26.19,22.22,27.42,15.25,1.58,26.99-5.74,36.7-17.18,2.23-2.62,3.05-1.95,4.92-.51,3.24,2.49,6.64,4.91,10.76,5.04,3.45.11,2.85,1.61,1.8,3.89-2.77,6.02-4.95,12.23-4.88,19.08.08,7.72,4.38,12.37,11.69,12.61,2.84.09,5.72-.19,8.53.13,13.07,1.48,25.83.51,38.08-4.96,1.99-.89,3.06-.48,3.11,1.85.12,5.57,3.66,8.76,7.41,11.53,8.22,6.07,17.15,10.56,26.77,13.72,8.34,2.74,16.92,2.74,25.17,1.7,4.23-.53,8.93-2.13,13.27-3.73,1.9-.7,3.6-1.75,4.7-3.71.74-1.32,2.14-1.92,3.17-2.87,5.67-5.26,13.42-8.44,15.35-17.56.47-2.22,2-3.67,5.14-3,9.93,2.1,20.05,2.35,30.13,1.32,9.74-1,19.12-3.34,26.44-11.05,1.6-1.68,3.52-2.37,5.71-2.74,2.54-.43,4.51-2.17,3.83-4.99-1.9-7.86-2.47-16.32-7.04-23.16-10.75-16.08-22.13-31.77-38.42-41.89-17.79-11.05-36.91-16.49-57.62-11.06-2.45.64-3.04.42-3.49-2.32-2.82-17.37-11.26-31.3-23.19-43.28-8.48-8.51-18.53-12.44-29.77-14.19-4.32-.67-7.27.43-9.95,4.13-8.72,12.03-11.63,26.07-12.68,40.72-.25,3.46-.41,6.06-4.56,5.59-.78-.09-1.61.51-2.44.73-6.25,1.67-11.83,4.99-18.03,7.89h-.03Z"/>
  <path class="cls-1" d="M101.58,79.63c6.2-2.9,11.78-6.22,18.03-7.89.82-.22,1.66-.82,2.44-.73,4.16.47,4.32-2.13,4.56-5.59,1.05-14.65,3.96-28.69,12.68-40.72,2.68-3.7,5.63-4.8,9.95-4.13,11.24,1.75,21.29,5.68,29.77,14.19,11.93,11.98,20.37,25.91,23.19,43.28.44,2.74,1.03,2.96,3.49,2.32,20.71-5.43,39.84,0,57.62,11.06,16.3,10.12,27.67,25.82,38.42,41.89,4.58,6.84,5.14,15.29,7.04,23.16.68,2.82-1.29,4.56-3.83,4.99-2.18.37-4.11,1.05-5.71,2.74-7.32,7.71-16.69,10.04-26.44,11.05-10.08,1.04-20.2.79-30.13-1.32-3.14-.66-4.67.78-5.14,3-1.94,9.12-9.69,12.3-15.35,17.56-1.03.96-2.43,1.55-3.17,2.87-1.09,1.95-2.8,3.01-4.7,3.71-4.35,1.6-9.05,3.2-13.27,3.73-8.25,1.04-16.83,1.04-25.17-1.7-9.62-3.16-18.55-7.65-26.77-13.72-3.75-2.77-7.28-5.95-7.41-11.53-.05-2.33-1.12-2.74-3.11-1.85-12.24,5.47-25.01,6.44-38.08,4.96-2.82-.32-5.69-.03-8.53-.13-7.31-.24-11.61-4.89-11.69-12.61-.07-6.84,2.11-13.06,4.88-19.08,1.05-2.28,1.65-3.78-1.8-3.89-4.13-.13-7.52-2.55-10.76-5.04-1.87-1.44-2.69-2.11-4.92.51-9.72,11.43-21.45,18.76-36.7,17.18-11.93-1.24-21.94-13.69-22.22-27.42-.29-14.44,4.37-27.47,10.92-39.59,9.36-17.32,21.94-32.06,36.45-44.6,9.43-8.15,20.96-11.85,33.09-13.23,3.22-.37,6.36-1.73,9.58-1.96,8.19-.6,13.04,6.02,9.86,14.05-4.38,11.04-3.02,23.26-7.09,34.47h.02ZM192.43,134.27c-.27-.29-.51-.83-.9-.19-.05.07.3.42.47.64.21.18.53.56.6.51.59-.4.18-.69-.16-.97h0ZM145.93,168.08c-.24.35-.48.7-.72,1.05-2.61,6.11-1.88,12.41,2.55,15.94,8.65,6.88,18.7,9.55,29.66,10.41-.46-1.28-.98-2.09-1.01-2.93-.18-4.31-2.25-5.3-6.16-5.58-4.28-.3-8.94,0-12.79-3.02,4.49.23,8.93.82,13.35,1.45,2.68.39,4.26.02,3.42-3.65-.52-2.29-.58-4.95.56-7.11,2.18-4.13-.05-4.35-3.06-4.56-6.67-.46-13.23.61-19.81,1.4-1.54.19-3.12.76-2.18-1.99,7.95-2.18,16-2.16,24.09-1.32,2.27.24,3.84-.07,3.75-3.19-.07-2.39,1.07-4.83,3.02-5.67,3.65-1.56,3.75-5.47,5.96-7.88-4.12-1.51-8.05.96-11.89-.32,3.52-1.59,7.12-2.05,10.79-1.92,2.42.08,4.84.08,7.25.14,1.61.04,2.64-1.24,2.6-2.44-.07-2.07-1.69-.74-2.63-.74-5.84.02-11.63.69-17.32,2.07-8.93,2.16-17.09,5.98-23.82,12.98,5.45-1.73,10.94-1.36,16.42-1.15.79.03,1.9-.07,1.7,1.3-.12.85-.94,1.05-1.69.99-.7-.06-1.4-.32-2.1-.32-6.1,0-12.19.08-17.46,4.09-.53.36-1.07.72-1.6,1.08-.29.3-.58.6-.87.9h0ZM167.57,126.6c.32-.27.64-.54.97-.81,1.09-.28,2.27-.42,2.94-2.03-1.63-.13-2.61.47-3.39,1.56-.32.27-.64.53-.95.81-.16.22-.51.56-.46.63.36.57.64.19.9-.15h0ZM25.65,86.42c-.57,0-.78.39-.84.93-.73.33-.96.96-.91,1.76-.27.32-.53.64-.8.96-1.86,2.04-3.16,4.38-3.4,7.28-1.42,1.51-2.4,3.26-2.57,5.45-.98.67-.75,1.76-.85,2.73-.77.35-.72,1.14-.86,1.83-1.01,1.03-.85,2.36-.84,3.65-2.73,3.3-2.47,7.59-3.07,11.49-1.23,7.87-.11,15.43,4.18,22.71,5.36-34.51,13.39-58.14,20.7-60.99.17,3.13-3.14,4.66-3.03,7.69-.93.27-.91,1.04-.85,1.83-1.32.37-1.57,1.5-1.71,2.71-.07.12-.15.24-.22.36.06-.13.13-.26.19-.4.57-.29,1.14-.58,1.71-.87.44.94.07,1.78-.35,2.56-2.66,4.87-4.19,10.19-5.91,15.49-.95,2.95.07,6.62-2.56,9.14-1.63-2.69,1.18-5.03.03-7.89-2.11,2.36-1.59,5.25-2.19,7.68-1.77,7.15-3.09,14.43-2.82,21.9.18,4.87,1.6,6.33,6.1,5.63,2.49-.38,4.88-1.5,7.31-2.28l.66.75c-.36.52-.71,1.03-1.07,1.55-.69.06-1.37.12-1.74.9-2.06.06-3.94.65-6.05,1.73,14.28,8.42,35.08-3.21,41.63-13.39,2.49-3.87,5.33-7.32,8.28-10.78,13.93-16.32,21.54-36.1,27.02-56.97,1-3.8,2.02-7.67,1.57-12.35-2.33,3.03-2.98,6.17-3.73,9.14-1.55,6.14-3.06,12.27-5.7,18.01-.76,1.65-1.35,3.6-4.09,3.34,2.37-4.75,4.48-9.21,5.52-14.1,1.96-9.22,5.18-17.88,9.87-25.93.89-1.52,1.92-3.05,1.65-5.03.71-.36.81-1,.67-1.72-.02-.1-.2-.16-.31-.25-.12.66-.24,1.32-.35,1.97-.84.15-2.62,2.48-1.97-.89.31-1.61.86-3.18,1.38-4.75,1.22-3.69-.54-5.03-3.65-5.33-2.44-.24-4.81-.11-7.09,1.03-4.13,2.07-8.52,3.32-12.87,4.75-2.79.92-5.9,1.14-8.25,3.36-.71,0-1.36.13-1.71.91-.51.06-.88.29-.84.92-1.01-.19-1.94-.11-2.58.89-.7.04-1.32.23-1.68.94-.57,0-1.14-.02-1.71-.03-.4-2.24,1.63-1.97,2.58-2.78,1.6-1.35,3.99-1.4,5.16-3.49.95,0,1.96.19,2.49-.99,1.62.06,3.18-.1,4.6-1.5-1.92-.34-3.35.25-4.59,1.51-.95-.01-1.94-.15-2.59.86-5.47,1.51-10.19,4.46-15.23,8.53,1.72.32,2.51.46,3.3.6-.78,1.23-1.88,3.61-3.07,1.6-1.17-1.99-1.56-.9-2.28-.24-11,10.01-20.68,21.29-28.83,34.04-.69.4-.89,1.05-.83,1.84h-.01ZM204.1,200.9c.28-.61.55-1.22.83-1.83,2.64-.36,5.44,2.05,7.95-.55,2.9-.52,4.92-2.03,5.23-5.4,1.14-1.43,3.67-.44,4.27-2.8,3.43-.94,4.96-4.54,7.68-6.29,3.45-2.23,4.89-5.16,4.89-9.21,2.11-.67,1.82-2.41,1.49-4.05-.16-.83-1.07-1.6-.25-2.45,4.98-5.11.18-10.56.38-15.83.13-3.46-3.99-2.57-5.76-4.12-4.52-3.95-10.33-2.7-15.23-4.89-.62-.28-1.56.28-3.13.61,3.02,1,6.14-.51,7.73,2.74-1.72,1.02-2.87-.54-4.29-.46-1.64.1-2.38,1.6-3.63,2.09-1.31.52-1.05-.9-1.17-1.7.38-.46,1.04-.97-.15-1.2-.56.09-1.12.19-1.68.28-.3-.11-.59-.21-.89-.32-.83.04-1.66.07-2.49.11-2.05,1.79-5.29-.4-7.03,2.41-1.3.1-2.09.95-2.35,2.19-.42,2.01-1.6,2.61-3.37,2.48-4.91-.36-7.11,2.58-7.83,7.31-5.07,1.56-6.2,3.35-5.33,8.7.18,1.09.39,2.03-.52,2.87-2.94,2.73-4.59,6.96-2.88,10.04,1.96,3.54.29,7.46,2.41,10.51.65.94,1.59,1.71,2.5,2.4.79.59,2.16.7,2.54,1.45,3.03,5.92,7.77,6.84,13.37,5.52,1.57,1.92,3.26,1.67,5.01.31.57-.3,1.14-.61,1.71-.91h0ZM134.96,169.14c-.75-.1-1.45-.08-1.73.87-5.47.46-10.22,4.34-15.93,4.34.06-1.37.67-1.5,1.19-1.64,8.26-2.31,16.12-5.7,23.61-10.08.84-.49,1.81-1.4,2.74-.63,1.6,1.33,2.33-.06,3.12-.96,5.75-6.43,12.85-10.49,20.56-13.53,4.74-1.87,9.47-3.79,14.2-5.68.07-.1.13-.21.2-.31-.05.12-.1.24-.15.36-5.69-.89-10.34,3.32-15.75,3.91,4.38-3.63,9.7-4.79,15.29-6.74-2.27-1.37-3.64-.02-5.1.16-1.39.17-3.2,1.33-4.07.75-4.87-3.24-8.09,1.12-12.1,1.99.76,1.5,2.41.15,2.62,1.64.15,1.11-1.08,1.19-1.74,1.67-3.39,2.46-6.83,4.85-10.18,7.38-2.42,1.83-4.71,3.86-7.09,5.75-.54.43-1.34.94-1.82.11-.46-.81.51-1.26.85-1.87,1.2-.55,2.31-1.21,2.66-2.71,1.86-.14,3-1.46,4.12-2.81,1.25-.44,2.23-1.22,2.83-2.49,2.99-.2,1.23-2.88,1.98-4.19,2.61-4.58,17.06-9.6,22.34-8.09,1.66.48,3.07.16,2.35-2.41-.66-2.35-1.73-3.76-4.27-2.84-1.34.49-2.76,1.45-4.04,1.28-3.74-.5-6.88.21-9.79,2.97-4.62,4.39-8.3,6.06-11.46,5.61.63-.49,1.02-.87,1.48-1.13,3.45-1.99,5.66-4.59,6.63-7.79.12-.4.5-.72.78-1.06,3.92-4.71,8.22-8.77,14.17-10.41,1.02-.28,2.7.16,3.05-1.56-3.25-2.85-6.51-2.23-10.04-.71-2.73,1.17-3.14,3.62-4.46,5.85-2.38,4.01-5.94,7.28-9.25,10.58-1.14,1.14-2.52,2.85-4.92,1.63,3.42-.85,2.73-6.25,6.85-6.32.38,0,1.13-.94,1.05-1.19-.89-2.64.5-3.1,2.48-3.37.93-.13,1.26-.91.8-2.04-.69-1.67.6-2.44,1.59-3.27,2.6-2.17,5.5-3.71,8.66-4.78,2.3-.78,4.57-1.67,6.79-2.66,1.57-.7,2.39-2.1,2.4-3.95,0-1.9-1.32-2.03-2.62-2.26-.62-.11-1.88-.45-1.04-1.22,2.61-2.39-.25-1.48-.83-1.61-3.17-.74-6.24,1.07-10.25.76,5.51-4.26,10.74-2.25,15.82-1.8-11.3-5.7-20.8-1.4-29.78,6.37,4.08-7.24,10.4-9.97,18.15-11.26-4.98-2.26-9.53-.78-13.76.18-23.39,5.3-42.15,18.99-57.89,37.65-5.02,5.95-9.27,12.61-11,20.66-.8.71-.92,1.69-.92,2.71-1.07,2.01-1.46,4.19-1.57,6.48-.47,9.39,2.76,12.98,11.66,12.9,5.91-.05,11.46-1.67,16.81-4.29.85-.42,1.76-1.83,2.99-.22-1.08,2.78-4.39,2.78-6.35,5.35,11.1-.47,21.57-.91,31.18-6.29,1.72-.96,3.61-1.73,2.56-4.62-2,.92-3.94,1.81-5.89,2.7-1.1.5-2.22,1.06-2.49-.93.67-.1,1.32-.21,1.68-.94.69-.06,1.38-.1,1.73-.89,2.1-.08,3.86-.87,5.13-2.72.83-.14,1.94.25,2.18-1.51-1.06.16-1.86.36-2.19,1.5-2.11.05-3.87.85-5.11,2.74-.74-.04-1.44-.02-1.69.93h0ZM129.83,95.53c-1.07.2-2.37-.09-2.83,1.54,1.36.19,2.14-.57,2.8-1.58.07-.12.14-.24.21-.36-.06.13-.12.26-.17.4h-.01ZM162.96,82.95c1.16,2.39,2.33,4.79,3.49,7.18,2.08,2.35,3.26,5.76,6.71,6.51.21.1.42.2.64.3-.09-.23-.18-.46-.27-.68.14-1.29-.76-2.65.25-3.99,2.17,1.41.93,5.02,3.49,6.22-.04-5.69-4.13-10.24-3.62-16,.05-.57-.45-1.47-1.44-1.05-2.08.88-1.92-1.06-2.33-2.17-1.14-3.09-2.05-6.29-3.35-9.3-1.25-2.89-2.87-5.61-4.57-8.87,2.77.5,3.19,2.51,4.05,3.92,1.32,2.14,1.81,5.17,3.54,6.63,4.45,3.74,5.32,9,6.55,14.22.85,3.59.73,7.52,3.26,10.52.1,1.36-.22,2.86,1.74,4.18-.54-1.83-.76-3.14-1.79-4.14.05-.73-.17-1.8.19-2.12.86-.74,1.05.45,1.41.96.53.75.44,2.04,1.83,2.26.76-2.64,1.67-5.03,4.35-6.33,2.02-.98,1.81-3.1,1.08-5.15-1.21-3.36-2.3-6.78-3.44-10.17.45-.3.9-.59,1.35-.89.53,5.03,4.52,7.07,6.74,10.64,1.17-3.28-2.08-5.66-1.85-9.1,1.24.4,1.69,1.13,2.03,1.95,1.05,2.56,3.26,5.02,5.36,4.39,3.35-1.02,1.59-4.77,1.2-7.09-4.48-26.37-26.75-49.16-51.46-52.91-4.23-.64-7.05,1.6-7.21,6.07-.08,2.34-.57,4.46-1.5,6.53-.39.87-.04,2.57-1.39,2.37-1.48-.22-1-1.89-1.15-3.03.42-.35.82-1.03.35-1.27-.61-.32-.49.58-.67.97-.46.75-1.04,1.44-1.37,2.25-5.44,13.33-7.21,27.28-5.87,41.67.63,6.8,2.47,13.33,5.16,19.55.62,1.43,1.02,3.57,3.18,2.78,2.57-.94.69-2.77.34-4.09-1.04-3.92-2.34-7.77-3.44-11.67-1.02-3.63-1.03-10.85-.07-12.83,1.98,8.23-.2,17.86,7.62,23.92.9.7.96,2.73,2.76,1.88,1.76-.83.89-2.19.56-3.47-1.62-6.26-3.35-12.49-4.76-18.81-1.25-5.57-3.54-11.59-1.86-16.89,1.69-5.32.63-10.05.53-15.06-.02-.82-.3-1.9.94-2.14.94.57.68,1.56.76,2.41.63,6.96,1.84,13.68,4.94,20.02,1.61,3.3,2.46,7.1,3.17,10.77.4,2.08,1.38,4.39,0,6.7-1.59-8.24-3.76-16.17-8.38-24.51.21,14.51,3.88,26.86,8.04,39.09-1.11-7.73-3.91-15.1-4.24-23.13,1.71.22,1.42,1.34,1.59,2.14.91,4.26,1.88,8.51,2.66,12.8.33,1.81,1.17,2.69,2.52,1.56,2.19-1.84,2.46-.13,3.02,1.43.58,1.62.59,3.86,2.9,3.87,2.54,0,6.15.76,7.37-.66,1.53-1.8-.82-4.91-1.8-7.34-.44-1.09-1.22-2.03-1.77-3.08-.65-1.23,0-1.59,1.06-1.59.29.3.58.6.87.9v-.03ZM171.81,127.51c1.51-.39,3.02-.78,4.52-1.18,1.61-.42,1.24-1.78,1.14-2.93-.12-1.4-1.07-1.7-2.15-1.4-.84.24-2.69.61-2.16,1.3,2.39,3.13-1.63,2.25-1.78,3.65-1.48.46-2.99.89-3.56,3,1.76-.41,2.97-1.25,3.99-2.44ZM75.99,130.01c4.12.16,8.3-.65,13.39.65-4.65,2.38-9.23-.56-13.29,2.68,5.25.75,9.95.42,14.66.56-5.97,3.49-12.63.22-19.06,2.08,6.3,6.26,13.51,8.64,16.94,5.56-3.05-.93-6.67.28-9.08-3.07,6.41.67,10.16.48,11.27-.57-1.27-.65-3.1,1.39-4.34-1.64,8.04,1.35,10.31-5.98,15.05-10.28-1.23-.44-2.7-.55-2.85-1.09-.47-1.65,1.78-.71,2.04-1.77-2.6-1.35-5.38,1.47-8.18-.88,16.6.49,26.79-13.29,40.42-19.34-2.35-3.47-4.66-2.21-7.17-.82-2.09,1.16-4.77,3.64-6.59,2.09-2.83-2.4-4.35-.27-6.33.65-1.02.47-1.74,2.08-3.44.66,4.31-5,10.54-4.96,15.68-7.32-.31-1.53-2.3.07-2.4-1.89,1.41-.62,2.83-1.25,4.25-1.87,1.26-.55,2.37-1.22,1.7-2.98-.72-1.9-1.97-.53-2.74-.24-7.64,2.87-15.26,5.79-21.58,11.49-3.75,3.38-8.1,5.59-12.88,6.76-1.95.48-3.38,1.43-4.03,3.53-.87,2.78,2.93.77,2.62,2.96-1.57,1.4-4.4.07-5.66,2.7h14.15c-3.61,2.35-7.54,1.19-11.54,1.75,2.72,1.82,1.4,2.24-.51,2.77-4.18,1.17-4.13,1.26-5.98,4.6-.23.41-1.03.43-1.5.74-.94.63-2.3.35-2.97,1.56-.16.17-.92.04-.26.61.07-.22.15-.43.22-.65h-.01ZM197.11,139.31c.33.49.92.94,1.25.42.41-.65-.46-.7-.81-.99-.65-3.2.64-2.33,2.01-1.05,1.61,1.49,3.13,3.14,5.93,1.78-2.15-1.76-4.31-3.2-6.08-5.06-1.64-1.72-4.17-2.85-4.64-6.33.97.6,1.53.8,1.91,1.2,6.01,6.44,12.49,11.59,21.66,11.91,3.33.12,6.7,1.84,10.03,2.77,3.88,1.07,9.08,2.42,10.3,7.51,1.22,5.11,4.56,6.36,8.43,7.37,4.13,1.08,8.26,2.26,12.58,2.28,1.04,0,2.37-.27,2.85,1.68-7.73.57-14.84-1.95-21.99-4.25-.61,4.89,1.85,6.21,5.77,7.16,5,1.21,10.03,1.76,15.13,2.12-6.97,2.79-13.46-.71-20.65-1.64,2.8,2.72,6.51,1.69,9.66,4.3-3.9.64-6.58-.98-9.38-1.74-.67-.18-1.46-.59-1.74.44-.25.95.53,1.31,1.21,1.52,1.09.35,2.19.69,3.3.89,10.3,1.92,20.69,1.82,31.03.82,6.06-.59,12.07-2.1,17.4-5.62,1.62-1.07,3.29-2.08,4.17-4.86-7.63.22-14.71.05-21.45-2.64-.35-.14-.86-.07-1.23.08-7.21,2.86-12.6-3.43-19.2-3.64,2.16-1.66,3.97-.19,5.89-.05.66.05,1.85.75,1.9.08.31-3.99,2.57-1.58,3.89-1.32,2.64.51,5.26,1.27,7.83,2.14,9.63,3.24,19.39,4.44,29.41,2.55,1.66-.31,3.52-.74,2.89-2.93-2.22-7.74-2.72-16.09-7.51-22.93-6.8-9.72-14.03-18.99-22.16-27.53-17.11-17.98-37.92-25.16-61.47-24.74-5.09.09-9.6,1.56-12.05,3.48,19.81-2.62,20.96-2.6,24.39.51-.48.08-.89.27-1.28.21-10.82-1.6-21.41-.25-31.61,3.64-8.27,3.15-13.04,13.23-11.46,22.4,1.45,8.42,5.85,14.96,11.16,21.01.81.92,2.81,2.39,1.75,3.11-4.21,2.86-.07,2.87.96,3.95h.02ZM99.06,102.23c-2.14,2.75-5.51,2.83-8.77,5.33,4.7-.72,7.95-2.1,10.72-4.54,7.35-6.48,15.85-10.57,24.76-13.85,1.1-.4,2.63-.32,2.75-2.31-5.34-.77-10.47-.54-15.27,2.7,3.29-4.14,7.83-5.52,12.04-7.53.85-.41,2.2-.41,1.77-1.96-.41-1.49-1.65-.86-2.53-.75-6.67.85-12.57,3.47-17.5,8.5-.82.84-1.83,2.37-4.12,1.58,5.09-5.59,11.06-9.03,17.12-12.93-2.22,2.4-3.74-1.06-5.57-.29-4.37,1.85-8.53,4.15-12.34,7.12-.3.23-.52.59-.78.88,4.58,3.13-1.13,2.64-1.4,4.16-.2,1.14-2.21,1.97-2.31,3.05-.41,4.62-4.21,7.57-4.65,12.13,1.98.74,3.46-2.29,6.07-1.32v.03ZM191.01,132.22c-4.79-6.16-8.62-12.9-10.46-20.82-2.92,10.49-.33,19.83,4.92,28.64.74,1.25,2.83,1.26,2.92.81.98-4.56,3.56.15,5.92-1.66-1.77-1.6-3.41-2.97-4.92-4.48-.64-.64-1.85-1.36-1.04-2.55.74-1.07,1.58,1.3,2.64.06h.02ZM169.17,197.52c4.72,2.04,9.33,4.53,15.37,4.33-4.57-5.99-10.4-3.37-15.37-4.33ZM209.35,142.58c-6.29-1.05-12.46.59-18.69.63,6.25.19,12.51,1.51,18.69-.63ZM121.56,75.94c1.74.8,2.73-.61,3.96-1.11-1.19.19-2.53-.52-3.96,1.11ZM84.31,121.26c.02.09.03.22.08.25.1.05.23.04.34.06-.03-.14-.06-.28-.09-.42-.11.04-.22.08-.33.11ZM82.14,36.78c-.1.03-.21.05-.31.08.03.07.06.2.09.2.1,0,.21-.04.31-.07l-.09-.21ZM28.76,100.99l-.12-.39-.12.4h.24ZM131.92,99.43l-.18.27.31.03-.13-.3ZM165.57,127.89c-.07-.1-.14-.21-.21-.31-.09.08-.25.15-.26.24,0,.09.12.2.19.3.09-.08.19-.16.28-.23ZM152.2,132.21l.26.18.03-.29-.29.11Z"/>
  <path class="cls-2" d="M73.47,42.8c2.35-2.22,5.46-2.44,8.25-3.36,4.35-1.43,8.74-2.68,12.87-4.75,2.28-1.14,4.65-1.27,7.09-1.03,3.11.3,4.87,1.64,3.65,5.33-.52,1.56-1.07,3.13-1.38,4.75-.65,3.37,1.13,1.04,1.97.89.27,1.97-.76,3.51-1.65,5.03-4.7,8.04-7.92,16.7-9.87,25.93-1.04,4.9-3.15,9.36-5.52,14.1,2.74.26,3.33-1.69,4.09-3.34,2.64-5.74,4.15-11.87,5.7-18.01.75-2.98,1.4-6.12,3.73-9.14.45,4.68-.57,8.55-1.57,12.35-5.48,20.88-13.09,40.65-27.02,56.97-2.95,3.45-5.79,6.91-8.28,10.78-6.55,10.18-27.35,21.81-41.63,13.39,2.11-1.08,3.99-1.67,6.05-1.73l-.03-.05c.94,3.52,2.9.82,3.86.37,7.06-3.36,11.6-9.62,15.28-16.5,1.6-2.99,2.39-6.36,2.95-10.08,1.16-7.76,4.55-15.33,7.95-22.48,3.08-6.48,3.62-6.19,3.57-9.71-6.2,11.27-13.4,20.8-22.09,29.11,4.74-1.34,7.09-6.24,12.33-9.17-2.62,6.77-3.85,12.78-6.97,18.05-.36.61-.92.61-1.5.46.12-.83.56-2.22.3-2.38-1.06-.69-1.33.62-1.76,1.27-.32.47-.41,1.11-.61,1.67-1.16.7-2.63,2.08-2.06,3.06,2.03,3.45-.78,4.7-2.15,6.65-.41.59-1.11,1.28-1.05,1.86.46,5.02-3.08,5.78-6.31,6.91l.05.05c.36-.52.71-1.03,1.06-1.55,1.29-.48,2.48-1.05,3-2.8-1.88-.19-2.78.92-3.66,2.05-2.43.78-4.82,1.9-7.31,2.28-4.51.7-5.93-.77-6.1-5.63-.27-7.47,1.04-14.75,2.82-21.9.6-2.43.08-5.32,2.19-7.68,1.16,2.85-1.66,5.2-.03,7.89,2.63-2.52,1.61-6.19,2.56-9.14,1.71-5.29,3.25-10.61,5.91-15.49.42-.78.8-1.62.35-2.56l.03-.03c1.13-.15,1.31-.8.84-1.8.57-.01,1.15-.02,1.72-.03.58,2.25-2.04,3.82-1.18,6.87,2.63-4.24,4.94-7.95,7.67-12.35-3.87.76-3.64,5.05-6.53,5.53.22-.96.91-2.4.57-2.78-.95-1.04-1.32,1.02-2.27.92l.04.03c-.11-3.02,3.2-4.56,3.03-7.69-7.31,2.85-15.33,26.48-20.7,60.99-4.28-7.28-5.4-14.83-4.18-22.71.61-3.89.34-8.19,3.07-11.49l-.06-.05c0,.85-.36,1.79,1,2.89.86-4.94,4.08-8.72,4.14-13.76l.02-.03c4.59-4.5,5.93-11.25,9.82-16.48-.96.39-1.91.79-2.87,1.18l-.16-.16c8.15-12.75,17.83-24.03,28.83-34.04.73-.66,1.11-1.75,2.28.24,1.18,2,2.29-.37,3.07-1.6h.01c.57-.01,1.13-.01,1.7-.01.4,2.03-2.84,2.03-2.11,4.57,2.04-1.13,4.18-1.81,4.65-4.56l.03-.03c3.76.23,6.33-2.8,9.58-3.99.78-.28,1.75-.96,1.28-1.89-.23-.46-1.52-.32-2.33-.46v-.02l-.02.02ZM58.62,141.4c-.55.34-1.1.69-1.64,1.03-3.98,2.95-8.03,5.79-12.1,8.63,5.14-.97,9.32-3.75,12.81-7.82.51-.38,1.02-.77,1.52-1.15.11-.35.23-.7.34-1.06-.31.12-.62.24-.92.37h0ZM64.52,135.94c.64-.5,1.79-1.02.72-1.94-.55-.47-1.14.53-1.41,1.25-.41.51-1.2.94-.4,1.71.04.04.71-.66,1.09-1.02ZM41.51,104.18c-.8.44-1.31,1.12-1.51,2.05-2.53,2.77-4.48,5.87-5.08,9.78,2.54-2.6,4.28-5.74,5.67-9.12.92-.31,1.43-.98,1.58-1.99.28-.31.56-.61.84-.92.49-.1.98-.21,1.47-.31-.17,1.2-2.15,1.75-1.09,3.49,1.89-.61,2.55-2.28,3.22-3.92,3.14-3.54,6.28-7.07,9.41-10.6-.75-1.35-1.78.9-2.62-.33,1.7-2.1,3.41-4.21,5.11-6.32,2.84-1.98,5.94-3.64,8.07-6.9-2.02-.92-2.71,1.58-4.23.99,7.08-10.41,12.28-22.62,24.19-28.5-6.27.77-10.42,4.87-14.03,9.74-4.21,5.69-7.38,12.22-12.35,17.3-.54.55-1.59,1.22-.63,2.13.41.38,1.33.15,2.02.2-.82,1.83-3.07,2.29-3.66,4.34-5.99,5.21-11.5,10.9-15.57,17.98-.27.3-.54.6-.81.9h0ZM44.91,74.15c3.02-2.5,6.04-4.99,9.05-7.49-.27-.33-.54-.65-.81-.98-3.32,2.14-6.76,4.11-8.93,7.8-2.38,2.57-5.18,4.85-5.41,8.95,2.12-2.71,4.76-4.95,6.09-8.3v.02ZM80.32,67.34c.39,2.45-3.21,3.35-2.12,6.69,1.85-2.4,3.86-4.03,4.66-6.71,4.77-2.63,9.22-5.8,13.22-9.58,4.27-4.03,2.12-10.26,5.02-15.27-2.35.24-2.22,1.63-2.5,2.47-1.84,5.58-5.44,9.48-10.24,12.16-6.32,3.53-11.19,8.73-15.09,14.95-2.69,4.28-5.19,8.75-6.25,14.25,2.34-.58,2.4-2.49,2.95-3.88,1.7-4.35,3.95-8.36,6.55-12.12.91-1.3,1.57-3.41,3.81-2.95h0ZM69.08,58.11c.1.12.21.23.32.34.74,3.39,1.79.97,2.54.08,3.52-4.18,7.34-7.99,11.71-11.17.46-.34,1.3-.8,1.26-1.1-.61-4.83,3.12-3.87,5.48-4.84,2.81-1.16,5.54-2.54,8.53-3.93-1.14-1.07-1.8-.7-2.48-.53-12.58,3.15-22.37,10.76-30.17,21.48-4.86,6.68-9.42,13.61-15.44,19.24-.57.53-1.5,1.12-.42,2.34,2.79-1.55,4.85-4.03,6.83-6.53,4.01-5.08,7.91-10.25,11.86-15.38h-.02ZM67.5,116.93c.78.13,1.28.4,1.54.24,8.57-5.38,14.67-13.16,19.12-22.51.24-.51.59-1.44.4-1.65-2.61-2.79.22-4.85.81-7.17.52-2.08,2.27-3.77,2-6.22-.37.04-.56,0-.62.08-3.15,3.99-3.55,9.64-6.77,13.43-2.89,3.39-.82,9.65-6.17,11.37-.07.02-.14.33-.09.41,2,2.95-.96,3.4-2.13,4.66-2.41,2.6-5.85,4-8.09,7.36ZM95.48,62.78c-5.87,5.36-12.69,15.19-11.14,20.99,2.54-8.51,7.83-14.12,11.14-20.99ZM21.52,106.97c-.42-.15-.83-.29-1.25-.44-2.63,3.99-3.52,8.69-4.39,13.41-.12.65.14.83.49.97.67.27,1.15-.23,1.31-.79,1.31-4.37,2.56-8.77,3.83-13.16h.01ZM73.51,101.96c.38.28.77.57,1.15.85,2.53-3.83,4.85-7.79,6.47-12.17-.36-.22-.72-.44-1.08-.66-2.18,3.99-4.36,7.99-6.55,11.98h0ZM64.5,131.33c-3.59,3.81-6.52,6.91-9.3,9.85,3.34-2.31,6.04-5.66,9.3-9.85ZM39.84,123.38c-3.35,1.11-5.73,3.48-7.78,6.29,3.24-1.25,5.93-3.22,7.78-6.29ZM14.89,132.09c1.69-2.49,1.37-5.22.86-7.98-1.47,2.52-1.44,5.21-.86,7.98ZM26.19,144.07c3.57-1.36,4.99-3.52,6.39-7.4-3.04,2.31-4.79,4.16-6.39,7.4ZM14.15,122.32c.3-2.14.59-4.28.89-6.42-1.79,1.89-2.78,3.93-.89,6.42ZM30.39,82.18c-.09.09-.24.17-.24.26s.14.19.23.28c.08-.09.23-.18.23-.27s-.14-.19-.22-.27Z"/>
  <path class="cls-2" d="M143.69,156.64c-.35.61-1.32,1.06-.85,1.87.48.83,1.28.31,1.82-.11,2.38-1.89,4.67-3.92,7.09-5.75,3.35-2.53,6.79-4.92,10.18-7.38.66-.48,1.9-.57,1.74-1.67-.2-1.49-1.86-.14-2.62-1.64,4.01-.87,7.23-5.23,12.1-1.99.86.57,2.67-.59,4.07-.75,1.46-.17,2.83-1.52,5.1-.16-5.59,1.95-10.9,3.12-15.29,6.74,5.42-.59,10.06-4.8,15.75-3.91l-.05-.05c-4.73,1.9-9.46,3.82-14.2,5.68-7.71,3.04-14.82,7.1-20.56,13.53-.8.89-1.53,2.29-3.12.96-.92-.77-1.89.14-2.74.63-7.49,4.37-15.34,7.77-23.61,10.08-.52.15-1.14.27-1.19,1.64,5.71,0,10.46-3.88,15.93-4.34.28,2,1.39,1.44,2.49.94,1.94-.89,3.89-1.78,5.89-2.7,1.05,2.89-.84,3.66-2.56,4.62-9.61,5.38-20.08,5.82-31.18,6.29,1.96-2.57,5.27-2.57,6.35-5.35-1.24-1.61-2.14-.2-2.99.22-5.34,2.62-10.89,4.24-16.81,4.29-8.9.08-12.13-3.51-11.66-12.9.11-2.29.5-4.47,1.57-6.48.16.12.31.24.47.36-.34,5.12-2.13,10.53,2.5,14.65-2.11-4.77-1.48-9.57-.38-14.42.27-1.21.82-2.85-1.34-2.94-.11-.12-.22-.24-.33-.36,1.74-8.05,5.99-14.71,11.01-20.66,15.73-18.66,34.49-32.35,57.89-37.65,4.23-.96,8.78-2.44,13.76-.18-7.75,1.28-14.08,4.02-18.15,11.26,8.97-7.76,18.48-12.06,29.78-6.37-5.08-.45-10.31-2.46-15.82,1.8,4.02.31,7.09-1.5,10.25-.76.58.14,3.44-.77.83,1.61-.84.77.42,1.11,1.04,1.22,1.3.22,2.63.35,2.62,2.26,0,1.85-.83,3.25-2.4,3.95-2.22.99-4.49,1.89-6.79,2.66-3.16,1.07-6.06,2.61-8.66,4.78-.99.83-2.28,1.6-1.59,3.27.46,1.12.13,1.91-.8,2.04-1.98.27-3.38.73-2.48,3.37.08.25-.67,1.18-1.05,1.19-4.12.07-3.43,5.47-6.85,6.32,2.41,1.22,3.78-.49,4.92-1.63,3.31-3.3,6.87-6.57,9.25-10.58,1.32-2.23,1.73-4.68,4.46-5.85,3.53-1.51,6.79-2.14,10.04.71-.35,1.72-2.03,1.28-3.05,1.56-5.95,1.64-10.25,5.71-14.17,10.41-.28.34-.66.66-.78,1.06-.97,3.21-3.18,5.8-6.63,7.79-.45.26-.85.65-1.48,1.13,3.16.45,6.83-1.22,11.46-5.61,2.91-2.77,6.05-3.47,9.79-2.97,1.28.17,2.7-.79,4.04-1.28,2.54-.93,3.61.49,4.27,2.84.72,2.56-.69,2.88-2.35,2.41-5.27-1.51-19.73,3.5-22.34,8.09-.74,1.31,1.01,3.99-1.98,4.19-.25-.25-.5-.49-.75-.74.07-1.24-.65-1.86-1.51-1.19-1.54,1.2-3.57,1.96-4.14,4.25l.02-.02c-5.75,3.75-11.5,7.5-17.26,11.25.24.42.48.84.71,1.26,4.23-2.52,8.46-5.03,12.69-7.55l.64.75h0ZM152.49,118.68c-.9.26-1.51.84-1.77,1.8-1.23.54-2.92.91-2.77,2.61.12,1.34,1.62.06,2.38.58-.95,1.12-1.89,2.24-2.84,3.36-.49.11-.98.21-1.47.32-.54-1.26,1.49-1.87.75-3.21-3.76,1.66-4.9,2.64-6.31,5.47,2.39.58,3.18-3.18,5.6-2.3-5.8,7.15-13.48,11.35-21.23,15.46-1.32.7-3.09,1.06-3.72,3.46,9.07-3.13,21.95-11.98,27.08-18.4,2.72-1.04,4.32-3.55,6.35-5.5.48-.46,1.18-1.13.51-1.83-.8-.83-1.43.43-2.19.49.09-.53.18-1.05.27-1.58l.87-.89c4.11-3.66,8.07-7.55,13.34-9.49-4.96-.4-9.84,2.89-14.01,8.79-.28.29-.55.57-.83.86h-.01ZM122.69,161.49c-.76.12-1.52.25-2.28.37,8.35-5.77,16.59-11.7,24.05-18.79-12.33,7.74-23.37,17.61-37.78,23.53,3,1.33,4.42-.63,6.09-.24.17.94-1.35,1.47-.57,2.65,1.74-.16,3.02-1.15,4.19-2.35,2.63-.91,5.02-2.27,7.01-4.34.32-.37.95-1.02.91-1.07-.61-.77-1.11-.21-1.61.24h-.01ZM108.28,133.45c-9.64,7.12-21.12,26.03-19.63,32.77,1.44-1.34,1.34-3.26,1.45-4.63.31-3.93,4.57-3.59,5.63-6.4,2.3-6.13,4.9-12,9.59-16.57,1.34-1.31,2.39-2.96,3.56-4.45,4.67-3.83,9.35-7.65,14.02-11.48-.26-.34-.51-.68-.77-1.02-5.21,3.07-9.94,6.85-13.85,11.78ZM131.23,135.39c-9.55,4.89-18.91,9.94-26.87,17.24-4.81,4.41-9.7,8.89-12.71,15.07-.91,1.86-1.98,3.74-.88,6.25,8.15-19.65,25.63-27.52,40.47-38.56h-.01ZM123.51,116.47c-9.07,4.47-16.41,11.12-22.25,19.68,7.21-6.82,14.48-13.56,22.25-19.68ZM131.63,118.05c4.43-2.95,8.86-5.9,13.93-9.27-4.64.28-11.1,4.38-13.93,9.27ZM156.67,99.88c-5.15-.74-12.23,2.04-15.64,6.14,5.75-2.26,10.7-4.2,15.64-6.14ZM110.83,169.31c-4.28,2.21-8.76,3.88-13.23,5.57,5.3.6,9.61-1.53,13.23-5.57ZM120.37,167.84c3.2.11,4.79-1.63,6.31-3.5-2.12.81-4.81.64-6.31,3.5ZM133.72,133.98c2.14-.28,4.15-.81,5.41-3.69-2.72.44-4.12,1.97-5.41,3.69Z"/>
  <path class="cls-2" d="M136.85,34.81c.15,1.13-.34,2.81,1.14,3.03,1.35.2,1-1.5,1.39-2.37.93-2.07,1.42-4.19,1.5-6.53.16-4.47,2.99-6.71,7.21-6.07,24.71,3.75,46.98,26.53,51.46,52.91.39,2.32,2.15,6.07-1.2,7.09-2.1.64-4.31-1.83-5.36-4.39-.34-.82-.79-1.55-2.03-1.95-.23,3.44,3.03,5.82,1.85,9.1-2.23-3.56-6.21-5.61-6.74-10.64-.45.3-.9.59-1.35.89,1.14,3.39,2.23,6.81,3.44,10.17.74,2.05.95,4.17-1.08,5.15-2.68,1.3-3.59,3.69-4.35,6.33-1.39-.22-1.3-1.5-1.83-2.26-.36-.51-.55-1.7-1.41-.96-.36.31-.15,1.39-.19,2.12l.05-.05c-2.53-3-2.41-6.93-3.26-10.52-1.24-5.23-2.1-10.48-6.55-14.22-1.73-1.46-2.23-4.49-3.54-6.63-.86-1.4-1.29-3.42-4.05-3.92,1.71,3.27,3.33,5.98,4.57,8.87,1.3,3.01,2.21,6.21,3.35,9.3.41,1.11.25,3.05,2.33,2.17.99-.42,1.49.49,1.44,1.05-.51,5.76,3.58,10.31,3.62,16-2.56-1.2-1.31-4.81-3.49-6.22-1.01,1.34-.11,2.7-.25,3.99-.13.13-.25.26-.37.39-3.45-.76-4.63-4.16-6.71-6.51,0,0,.27-.29.27-.28,2.67-.14,1.48-1.99,1.08-3.17-1.11-3.32-2.92-6.19-5.33-8.64-5.13-5.2-8.59-11.51-11.4-18.4-3.69-9.04-6.02-18.32-5.66-28.98-1.94,1.77-1.87,3.44-1.76,5,.45,6.19,1.38,12.27,3.34,18.16,3.45,10.39,8.56,19.68,15.66,27.71-.19.17-.38.35-.57.53-1.06,0-1.71.36-1.06,1.59.55,1.05,1.33,1.99,1.77,3.08.98,2.43,3.33,5.54,1.8,7.34-1.21,1.43-4.82.67-7.37.66-2.31,0-2.33-2.25-2.9-3.87-.55-1.56-.83-3.27-3.02-1.43-1.35,1.13-2.19.25-2.52-1.56-.78-4.29-1.75-8.54-2.66-12.8-.17-.8.12-1.92-1.59-2.14.33,8.03,3.13,15.41,4.24,23.13-4.16-12.23-7.83-24.58-8.04-39.09,4.62,8.34,6.79,16.27,8.38,24.51,1.38-2.3.4-4.61,0-6.7-.71-3.68-1.56-7.48-3.17-10.77-3.1-6.34-4.31-13.06-4.94-20.02-.08-.85.18-1.84-.76-2.41-1.24.25-.95,1.33-.94,2.14.09,5.01,1.15,9.75-.53,15.06-1.68,5.3.61,11.32,1.86,16.89,1.41,6.31,3.14,12.55,4.76,18.81.33,1.28,1.2,2.64-.56,3.47-1.8.85-1.86-1.18-2.76-1.88-7.82-6.06-5.64-15.69-7.62-23.92-.96,1.97-.96,9.19.07,12.83,1.1,3.91,2.4,7.75,3.44,11.67.35,1.32,2.23,3.14-.34,4.09-2.16.8-2.56-1.35-3.18-2.78-2.7-6.22-4.53-12.75-5.16-19.55-1.34-14.39.43-28.34,5.87-41.67.33-.81.91-1.5,1.37-2.25l.32.3.02.02ZM163.52,35.04c.29.31.58.62.87.93.66,1.61,1.96,2.32,3.44,2.78,5.28,5.39,11.91,9.16,16.33,15.6-3.35-7.53-9.09-12.41-15.66-16.35-.67-.83-1.33-1.65-2-2.48.79-.11,2.2-.08,2.26-.36.29-1.36-.98-1.49-1.81-1.91-2.61-3.61-5.81-6.03-10.52-5.73,4.27.07,2.98,5.72,6.28,6.64.27.3.54.6.81.89h0ZM160.98,42.33c-2.13-2.92-4.27-5.84-6.4-8.76-.29.26-.58.51-.86.77l1.73,3.94c-5.56-2.39-6.12-8.72-8.92-13.82-.96,2.42-.08,3.9.39,5.43,2.3,7.51,8.61,11.76,12.96,17.58,1.6,2.14.8-1.39,1.51-1.96.92-.39,1.84,1.35,2.5.3.6-.95-.42-1.83-1.14-2.44-.52-.44-1.18-.7-1.77-1.04ZM134.48,93.21c.33.37.67.73,1,1.1.64-.71.22-1.27-.23-1.83-2.69-8.61-3.05-17.61-3.72-26.57-1.11,9.4-.83,18.59,2.95,27.31h0ZM184.59,85.15c-1.46-7.64-4.38-13.81-4.99-20.61-.09-1-.78-2.47-1.65-.69-1.14,2.35-1.11.47-1.39-.27-1.84-4.78-4.09-9.32-7.52-13.03-1.11-1.2-1.86-3.27-4.17-3.15.47,2.15,1.89,3.05,2.9,4.27,3.81,4.61,7.24,9.76,7.83,15.8.69,7.12,4.53,11.89,8.99,17.68ZM132.46,56.96c1.46-5.46,2.64-10.96,3.95-16.44-3.21,5-4.33,10.54-3.95,16.44ZM156.06,55.99c1.5,4.47,3.49,8.7,5.53,12.91-.23-5.11-2.26-9.32-5.53-12.91Z"/>
  <path class="cls-2" d="M76.05,130.05c.67-1.21,2.03-.93,2.97-1.56.47-.31,1.27-.33,1.5-.74,1.85-3.35,1.8-3.43,5.98-4.6,1.91-.53,3.23-.95.51-2.77,4-.57,7.93.6,11.54-1.75h-14.15c1.26-2.63,4.08-1.29,5.66-2.7.31-2.19-3.49-.18-2.62-2.96.66-2.09,2.08-3.05,4.03-3.53,4.78-1.17,9.13-3.38,12.88-6.76,6.32-5.7,13.94-8.63,21.58-11.49.76-.29,2.02-1.65,2.74.24.67,1.76-.44,2.43-1.7,2.98-1.42.62-2.84,1.25-4.25,1.87.1,1.96,2.08.36,2.4,1.89-5.14,2.36-11.37,2.32-15.68,7.32,1.7,1.41,2.42-.19,3.44-.66,1.98-.92,3.51-3.04,6.33-.65,1.82,1.55,4.5-.93,6.59-2.09,2.51-1.39,4.82-2.65,7.17.82-13.63,6.06-23.82,19.83-40.42,19.34,2.8,2.35,5.58-.47,8.18.88-.26,1.06-2.51.12-2.04,1.77.15.54,1.61.65,2.85,1.09-4.74,4.29-7,11.62-15.05,10.28,1.25,3.02,3.07.99,4.34,1.64-1.11,1.05-4.86,1.24-11.27.57,2.41,3.35,6.02,2.14,9.08,3.07-3.43,3.09-10.63.71-16.94-5.56,6.43-1.86,13.09,1.41,19.06-2.08-4.71-.13-9.41.2-14.66-.56,4.06-3.24,8.64-.3,13.29-2.68-5.09-1.3-9.27-.49-13.39-.65l.04.04h.01ZM108.1,115.26c-2.15.5-4.63.26-6.66,3.01,3.02-.12,5.05-.97,6.66-3.01ZM101.36,110.11c2.84-.43,4.79-1.01,6.51-3.69-2.8.39-4.7,1.08-6.51,3.69Z"/>
  <path class="cls-2" d="M149.74,169.51c-.94,2.74.64,2.17,2.18,1.99,6.58-.8,13.13-1.86,19.81-1.4,3.01.21,5.24.43,3.06,4.56-1.14,2.17-1.08,4.82-.56,7.11.83,3.66-.74,4.03-3.42,3.65-4.43-.64-8.86-1.22-13.35-1.45,3.85,3.02,8.52,2.71,12.79,3.02,3.91.28,5.99,1.27,6.16,5.58.03.84.55,1.65,1.01,2.93-10.96-.86-21.01-3.53-29.66-10.41-4.43-3.53-5.16-9.83-2.55-15.94l-.05-.05c1.53,4.35,2.75-1.33,4.18-.15.14.19.27.38.4.57h0ZM167.83,173.27c-.02-.44-.04-.89-.05-1.33-3.73-.1-7.51-.69-10.93,2.27,3.66-.31,7.32-.62,10.98-.94ZM172.93,188.48h-6.37c2.12,1.13,4.2,2.13,6.37,0Z"/>
  <path class="cls-2" d="M148.4,166.11c5.27-4,11.36-4.08,17.46-4.09.7,0,1.4.26,2.1.32.74.07,1.56-.14,1.69-.99.2-1.36-.91-1.27-1.7-1.3-5.48-.21-10.97-.58-16.42,1.15,6.73-7,14.89-10.82,23.82-12.98,5.69-1.38,11.48-2.05,17.32-2.07.93,0,2.56-1.33,2.63.74.04,1.21-.99,2.48-2.6,2.44-2.42-.07-4.84-.06-7.25-.14-3.68-.13-7.27.33-10.79,1.92,3.84,1.28,7.77-1.19,11.89.32-2.21,2.4-2.31,6.32-5.96,7.88-1.95.84-3.09,3.28-3.02,5.67.1,3.12-1.47,3.43-3.75,3.19-8.09-.84-16.15-.85-24.09,1.33-.13-.19-.26-.38-.4-.57,3.58-3.2,8.62-2.11,13.41-4.77-5.67-1.14-9.73,1.39-14.04,2.35-.1-.14-.21-.28-.31-.42v.02Z"/>
  <path class="cls-2" d="M99.07,102.24c-2.61-.97-4.09,2.06-6.07,1.32.43-4.56,4.23-7.51,4.65-12.13.1-1.08,2.1-1.92,2.31-3.05.27-1.52,5.99-1.03,1.4-4.16.26-.3.48-.65.78-.88,3.81-2.97,7.96-5.27,12.34-7.12,1.84-.78,3.35,2.69,5.57.29-6.06,3.9-12.03,7.34-17.12,12.93,2.28.79,3.29-.74,4.12-1.58,4.93-5.04,10.83-7.65,17.5-8.5.88-.11,2.13-.74,2.53.75.42,1.55-.92,1.55-1.77,1.96-4.21,2.01-8.75,3.39-12.04,7.53,4.79-3.24,9.93-3.47,15.27-2.7-.11,1.98-1.65,1.9-2.75,2.31-8.92,3.28-17.42,7.37-24.76,13.85-2.77,2.44-6.02,3.82-10.72,4.54,3.27-2.5,6.63-2.58,8.77-5.33v-.03Z"/>
  <path class="cls-2" d="M191.02,132.23c-1.07,1.24-1.91-1.13-2.64-.06-.82,1.19.39,1.91,1.04,2.55,1.51,1.51,3.14,2.88,4.92,4.48-2.36,1.81-4.94-2.91-5.92,1.66-.1.45-2.18.44-2.92-.81-5.25-8.81-7.84-18.16-4.92-28.64,1.84,7.92,5.67,14.66,10.46,20.82h-.02ZM186.59,135.92c.38.7.78,1.85,1.64.76.5-.64-.35-1.17-.96-1.47-2.08-4.22-4.75-8.12-6.03-12.8-.18,5.45,1.74,9.88,5.35,13.51Z"/>
  <path class="cls-2" d="M234.8,173.57c.04.42.09.83.13,1.25,0,4.06-1.43,6.99-4.88,9.21-2.72,1.76-4.25,5.35-7.68,6.29-.17-.15-.34-.31-.5-.48.07-.67.13-1.34.2-2,.84-3.3,3.83-3.84,6.06-5.35,3.02-.48,4.67-2.47,5.07-5.56.18-1.39.33-2.64,1.6-3.36Z"/>
  <path class="cls-2" d="M169.19,197.53c4.97.96,10.8-1.65,15.37,4.33-6.05.2-10.66-2.29-15.37-4.33Z"/>
  <path class="cls-2" d="M188.7,156.56c.22,2.66-.83,3.91-3.41,3.46.72-4.73,2.92-7.68,7.83-7.31,1.77.13,2.95-.47,3.37-2.48.26-1.24,1.04-2.09,2.35-2.19l.18.24c-1.42,3.22-2.66,6.46-7.13,5.52-1.41-.3-3.04.65-3.2,2.77h0Z"/>
  <path class="cls-2" d="M209.36,142.59c-6.19,2.14-12.45.82-18.69.63,6.23-.03,12.41-1.68,18.69-.63Z"/>
  <path class="cls-2" d="M60.66,49.17c-.79-.14-1.57-.29-3.3-.6,5.04-4.07,9.76-7.01,15.23-8.53l.1.12c-1.17,2.09-3.56,2.13-5.16,3.49-.95.81-2.98.54-2.58,2.78l-.02.02c-2.15-.4-3.7.26-4.25,2.71h-.02Z"/>
  <path class="cls-2" d="M209.25,145.83c-.48,5.3-4.37,2.61-6.82,3.3-.78-1.87-2.22-.79-3.4-.86,0,0-.18-.23-.18-.24,1.73-2.81,4.98-.63,7.03-2.41.87,1.01,1.7.97,2.49-.11.3.11.59.21.89.32h-.01Z"/>
  <path class="cls-2" d="M171.39,126.95c.16-1.39,4.18-.51,1.79-3.64-.53-.69,1.32-1.06,2.16-1.3,1.08-.31,2.03,0,2.15,1.4.1,1.15.46,2.5-1.14,2.93-1.51.4-3.02.79-4.52,1.18-.15-.18-.3-.37-.44-.56h0Z"/>
  <path class="cls-2" d="M204.99,197.06c.73-.86,1.68-.67,2.6-.65.64,4,3.29,1.01,4.92,1.6.13.17.25.33.36.51-2.5,2.59-5.31.18-7.95.54l.05.05c0-.69,0-1.37,0-2.06h0Z"/>
  <path class="cls-2" d="M218.12,193.12c-.32,3.36-2.34,4.87-5.24,5.4-.12-.17-.24-.34-.36-.5,1.68-1.82,3.37-3.63,5.05-5.45.19.18.37.37.55.56h0Z"/>
  <path class="cls-2" d="M166.46,90.13c-1.16-2.39-2.33-4.79-3.49-7.18.14-.15.27-.3.4-.45,2.27,1.85,3.07,4.47,3.36,7.34l-.27.29Z"/>
  <path class="cls-2" d="M19.7,97.34c.23-2.9,1.54-5.24,3.4-7.28l-.02-.02c-.16,2.94-1.47,5.28-3.43,7.26l.05.04Z"/>
  <path class="cls-2" d="M150.47,151.11c-1.12,1.36-2.26,2.68-4.12,2.81-.13-.1-.25-.21-.36-.32.26-.91,1.68-1.37.92-2.68l-.02.02c1.1.58,2-.1,2.94-.55.21.24.43.48.64.71h0Z"/>
  <path class="cls-2" d="M141.78,165.48c-1.27,1.85-3.03,2.64-5.13,2.72,1.24-1.88,3-2.68,5.11-2.73h.02Z"/>
  <path class="cls-2" d="M17.14,102.79c.16-2.19,1.14-3.93,2.57-5.45l-.05-.04c.01.91.03,1.82.04,2.73l-.02.03c-1.49.21-1.2,2.36-2.57,2.69l.04.03h-.01Z"/>
  <path class="cls-2" d="M222.38,190.32c-.6,2.35-3.13,1.37-4.26,2.8-.18-.19-.36-.37-.55-.55.51-2.57,3.04-1.51,4.31-2.72.16.16.33.32.5.48h0Z"/>
  <path class="cls-2" d="M121.56,75.94c1.44-1.63,2.77-.92,3.96-1.11-1.23.5-2.23,1.91-3.96,1.11Z"/>
  <path class="cls-2" d="M171.82,127.51c-1.02,1.19-2.23,2.04-3.99,2.44.57-2.11,2.08-2.53,3.56-3,.14.19.28.38.43.56Z"/>
  <path class="cls-2" d="M197.38,201.5c.32-.21.65-.42.97-.63,1.15,1.29,2.7.7,4.07.98l-.03-.03c-1.75,1.37-3.44,1.62-5.01-.31h0Z"/>
  <path class="cls-2" d="M75.18,39.18c1.24-1.27,2.67-1.86,4.59-1.51-1.42,1.4-2.98,1.56-4.6,1.5h.01Z"/>
  <path class="cls-2" d="M64.94,46.43c.57,0,1.14.02,1.71.03l-.03-.05c-.56.91-1.11,1.83-1.67,2.74l-.03.03c-.85,0-1.7,0-2.55,0,.52-1.26,2.32-1.16,2.55-2.72l.02-.02Z"/>
  <path class="cls-2" d="M153.29,148.62c-.6,1.27-1.58,2.05-2.82,2.49-.21-.24-.43-.48-.64-.71.69-1.1,1.54-2,2.71-2.52.25.25.5.49.75.74Z"/>
  <path class="cls-2" d="M179.33,96.43c1.03,1,1.25,2.31,1.79,4.14-1.96-1.32-1.64-2.83-1.74-4.18l-.05.05h0Z"/>
  <path class="cls-2" d="M129.8,95.5c-.66,1-1.44,1.77-2.8,1.58.46-1.63,1.76-1.34,2.83-1.54l-.03-.04Z"/>
  <path class="cls-2" d="M146.35,153.93c-.35,1.5-1.45,2.16-2.65,2.71-.21-.25-.43-.5-.63-.74.98-.76,1.95-1.53,2.93-2.29.11.12.23.22.36.32h0Z"/>
  <path class="cls-2" d="M168.08,125.33c.79-1.08,1.76-1.68,3.4-1.55-.67,1.6-1.84,1.75-2.94,2.02-.15-.16-.3-.31-.45-.47h-.01Z"/>
  <path class="cls-2" d="M141.77,165.47c.33-1.14,1.13-1.33,2.19-1.5-.24,1.76-1.35,1.36-2.18,1.51h0Z"/>
  <path class="cls-2" d="M32.47,95.52c-.57.29-1.14.58-1.71.87l.04.04c.14-1.21.39-2.35,1.71-2.71l-.05-.05c.01.61.02,1.22.03,1.82l-.03.03h.01Z"/>
  <path class="cls-2" d="M14.59,111c-.01-1.29-.17-2.62.84-3.65l-.04-.04c-.14,1.25.23,2.64-.85,3.64l.06.05h0Z"/>
  <path class="cls-3" d="M208.36,145.51c-.79,1.08-1.62,1.12-2.49.11.83-.04,1.66-.07,2.49-.11Z"/>
  <path class="cls-2" d="M75.18,39.17c-.53,1.19-1.55.99-2.49,1l-.09-.12c.65-1.01,1.64-.88,2.59-.86h0s0-.02,0-.02Z"/>
  <path class="cls-2" d="M84.35,158.94c0-1.02.11-1.99.91-2.71.11.12.22.23.33.35-.26.9-.52,1.81-.78,2.71-.16-.12-.31-.24-.47-.36h.01Z"/>
  <path class="cls-2" d="M16.29,105.52c.1-.97-.13-2.06.85-2.73l-.04-.03c.04,1.02.02,2.03-.85,2.73l.04.02h0Z"/>
  <path class="cls-2" d="M105.92,44.63c.12-.66.24-1.32.35-1.97.11.08.29.15.31.25.14.72.04,1.36-.67,1.72h.01Z"/>
  <path class="cls-2" d="M68.33,45.52c.64-1,1.57-1.08,2.58-.89-.62.98-1.54,1.07-2.53.95l-.04-.06h0Z"/>
  <path class="cls-2" d="M32.52,93.72c-.06-.79-.08-1.56.85-1.83l-.04-.03c0,.61.02,1.22.02,1.83-.29,0-.58-.02-.87-.03l.05.05h-.01Z"/>
  <path class="cls-2" d="M23.9,89.1c-.05-.79.18-1.42.91-1.76l-.03-.03c.1.8-.02,1.49-.79,1.87l-.09-.08Z"/>
  <path class="cls-2" d="M15.43,107.35c.14-.69.09-1.47.86-1.83l-.04-.02c-.09.71-.08,1.47-.86,1.81l.04.04Z"/>
  <path class="cls-2" d="M84.31,121.26c.11-.04.22-.08.33-.11l.09.42c-.12-.02-.24,0-.34-.06-.05-.03-.05-.16-.08-.25Z"/>
  <path class="cls-2" d="M133.23,170.01c.28-.96.98-.97,1.73-.87l-.05-.05c-.35.73-1.01.84-1.68.94v-.02Z"/>
  <path class="cls-2" d="M66.65,46.46c.37-.71.99-.9,1.68-.94l.04.06c-.29.99-1.02.92-1.76.84l.03.05h0Z"/>
  <path class="cls-2" d="M136.65,168.2c-.35.79-1.05.83-1.73.89l.05.05c.26-.95.96-.98,1.69-.93h-.01Z"/>
  <path class="cls-2" d="M71.76,43.71c.34-.78,1-.91,1.71-.91v.02c-.25.93-.93,1-1.68.93l-.03-.04Z"/>
  <path class="cls-2" d="M146.8,167.19c.53-.36,1.07-.72,1.6-1.08.1.14.2.28.3.41-.38.69-1,.88-1.69.92l-.21-.25Z"/>
  <path class="cls-2" d="M197.57,138.75c.35.28,1.22.34.81.99-.33.52-.92.07-1.25-.42.15-.19.3-.38.45-.57h-.01Z"/>
  <path class="cls-2" d="M136.54,34.51c.18-.39.05-1.29.67-.97.46.24.07.92-.35,1.27l-.32-.3Z"/>
  <path class="cls-2" d="M204.93,199.06c-.28.61-.55,1.22-.83,1.83l.03.04c-.09-.81-.02-1.53.86-1.82l-.05-.05h0Z"/>
  <path class="cls-2" d="M82.14,36.78c.03.07.06.14.09.21-.1.03-.21.07-.31.07-.03,0-.06-.13-.09-.2.1-.03.21-.05.31-.08Z"/>
  <path class="cls-2" d="M25.65,86.42c-.06-.78.14-1.44.83-1.84,0,0,.16.16.16.15.06.81-.24,1.39-.97,1.7h-.02Z"/>
  <path class="cls-2" d="M204.1,200.9c-.57.3-1.14.61-1.72.91l.03.03c.22-1.05.96-.99,1.72-.91l-.03-.04h0Z"/>
  <path class="cls-2" d="M29.93,150.96c.36-.78,1.05-.84,1.74-.9l-.05-.05c-.57.3-1.15.6-1.72.91l.03.05h0Z"/>
  <path class="cls-2" d="M28.76,100.99h-.25l.12-.4.13.4Z"/>
  <path class="cls-2" d="M211.09,146.75l-.15-1.2c1.2.23.53.74.15,1.2Z"/>
  <path class="cls-2" d="M131.92,99.43l.13.3-.31-.03.18-.27Z"/>
  <path class="cls-2" d="M76.01,130.01c-.07.22-.15.43-.22.65-.66-.56.1-.44.26-.61l-.04-.04Z"/>
  <path class="cls-2" d="M173.54,96.25c.09.23.18.46.27.68-.21-.1-.42-.2-.64-.29.12-.13.24-.26.37-.39Z"/>
  <path class="cls-2" d="M167.13,126.13c.32-.27.64-.53.95-.8.15.16.3.31.45.47-.32.27-.64.54-.96.81-.15-.16-.29-.32-.44-.48Z"/>
  <path class="cls-2" d="M30.77,96.39c-.06.13-.13.26-.19.4.07-.12.15-.24.22-.36l-.04-.04h.01Z"/>
  <path class="cls-2" d="M182.78,141.88c.05-.12.1-.24.15-.36-.07.1-.13.21-.2.31l.05.05Z"/>
  <path class="cls-2" d="M129.84,95.53c.06-.13.12-.26.17-.4-.07.12-.14.24-.21.36l.03.04h.01Z"/>
  <path class="cls-2" d="M145.93,168.09c.29-.3.58-.6.88-.9l.21.25c-.3.27-.61.55-.91.82l-.17-.18h-.01Z"/>
  <path class="cls-2" d="M167.57,126.61c-.26.34-.54.73-.9.15-.04-.07.3-.41.46-.63.15.16.3.32.44.48Z"/>
  <path class="cls-2" d="M145.21,169.14c.24-.35.48-.7.72-1.05,0,0,.17.18.17.17-.31.27-.63.55-.94.82l.05.05h0Z"/>
  <path class="cls-2" d="M192.44,134.27c.34.28.75.57.16.97-.07.05-.39-.33-.6-.51.15-.15.29-.3.44-.46Z"/>
  <path class="cls-2" d="M192,134.73c-.17-.22-.51-.57-.47-.64.39-.64.64-.11.9.18-.14.15-.29.31-.44.46h0Z"/>
  <path class="cls-2" d="M70.91,44.63c-.03-.63.33-.86.84-.92l.03.04c-.29.29-.59.58-.88.87h0Z"/>
  <path class="cls-2" d="M165.57,127.89c-.09.08-.19.16-.28.23-.07-.1-.2-.21-.19-.3,0-.09.17-.16.26-.24.07.1.14.21.21.31Z"/>
  <path class="cls-2" d="M23.1,90.06c.27-.32.53-.64.8-.96l.09.08c-.12.5-.32.9-.9.86l.02.02h-.01Z"/>
  <path class="cls-2" d="M152.2,132.21l.29-.11-.03.29-.26-.18Z"/>
  <path class="cls-2" d="M24.81,87.34c.06-.53.27-.92.84-.93h.01c-.08.55-.32.91-.89.89l.03.03h.01Z"/>
  <path class="cls-2" d="M162.97,82.95c-.29-.3-.58-.6-.88-.9.19-.18.38-.35.56-.52.24.32.48.64.72.97-.13.15-.27.3-.4.45Z"/>
  <path class="cls-4" d="M284.38,124.6c-3.89-8.16-10.95-13.95-18.59-13.04-6.82.82-10.63-2.68-15.43-5.17-4.15-2.16-8.21-4.51-13.13-6.14,1.58-1.66,2.95-.83,4.19-.82.97.83,1.89,1.81,3.35,1.12-.63-1.29-1.85-1.31-2.87-1.69.11-2.17,1.34-1.49,2.37-.97,2.43,1.24,4.91,2.42,7.23,3.88,5.78,3.62,11.7,6.66,18.34,8.26,6.99,1.68,11.71,7.14,16.24,12.64.55.66,1.17,1.61.29,2.3-.38.29-1.32-.23-2.01-.39l.03.03h-.01ZM246.83,101.83c-.06-.47-.17-.83-.67-.35.21.14.41.27.62.41.35.77,1.02.86,1.7.92.78,1.37,1.93,1.96,3.42,1.81,0,.6.34.84.85.91,1.94,2.26,4.49,3.19,7.19,3.81-2.12-1.85-4.21-3.74-7.14-3.86,0-.6-.33-.86-.86-.9-.75-1.41-1.95-1.89-3.4-1.85-.3-.88-.96-.99-1.71-.9Z"/>
  <path class="cls-4" d="M286.08,141.86c.05-2.76-2.18-3.74-3.75-5.04-3.48-2.87-7.19-5.53-11.35-7.08-2.25-.84-4.6-4.61-7.32-.62-.04.07-.28.02-.41-.02-7.66-2.64-14.95-6-20.72-12.31,5.99,2.27,10.71,7.45,17.36,8.73-.22-2.51-3.4-1.72-3.45-4.62,13.12,6.36,27.3,10.39,35.4,24.42,2.32,4.02,5.81,6.35,9.67,8.7-2.16,1.36-3.55-.82-5.21-.38l.05.04c-1.74-2.13-3.43-4.3-5.23-6.37-1.36-1.56-1.64-4.26-4.2-4.57l.03.03c.04-.67-.24-1-.88-.94l.03.03h-.02Z"/>
  <path class="cls-4" d="M269.12,135.89c-19.61-4.54-34.56-15.39-48.3-29.98,4.21.34,6.06,3.4,8.3,5.59,10.62,10.41,22.76,17.81,36.78,21.66.89.24,2.02.12,3.23,2.73h0Z"/>
  <path class="cls-4" d="M264.02,104.6c-13.3-10.76-28.61-14.75-44.95-15.4,8.72-3.75,36.59,3.77,44.95,15.4Z"/>
  <path class="cls-4" d="M230.58,136.41c.2-1.23.83-1.81,2.05-1.72,14.3,1.04,27.93,4.58,40.42,12.33.51.31.85.77.45,2.59-13.25-8.85-27.84-12.15-42.98-13.25l.05.04h0Z"/>
  <path class="cls-4" d="M203.08,110.42c11.68,9.38,22.5,20.35,38.48,21.88-7.02,4.28-30.64-9.13-38.48-21.88Z"/>
  <path class="cls-4" d="M230.53,136.37c.46.54,1.35,1.15,1.29,1.62-.18,1.35-1.22.83-1.97.56-13.71-4.9-26.29-11.83-36.24-23.31-.69-.8-3.19-2.56.26-3.35l-.03-.03c3.1,6.23,8.56,9.84,13.8,13.5,7.07,4.94,14.54,9.16,22.95,11.06l-.05-.04h0Z"/>
  <path class="cls-4" d="M234.44,111.36c-4.19-2.3-7.36-6.05-11.2-8.88-4.28-3.16-8.39-6.56-13.66-7.91,3.75-1.94,6.49,2.13,9.91,1.87l-.05-.04c0,.65.37.88.9.96l-.05-.04c.49,1.23,1.3,1.94,2.61,1.85l-.05-.04c0,.63.37.88.9.96l-.05-.04c.35.83.97,1.05,1.76.9.03.58.34.85.86.91.1.16.2.31.3.47-.01-.08,0-.19-.05-.24-.08-.08-.2-.12-.31-.18-.28-.3-.57-.61-.85-.91-.07-.23-.13-.46-.19-.69.22-.23.43-.47.65-.7,3.38,1.69,5.62,4.89,8.48,7.27-.23.29-.46.59-.69.88-.24.04-.48.09-.72.13.28,1.04,1.14,1.11,1.93,1.3l-.07-.07c.15.46.3.93.45,1.39l-.82.86h0Z"/>
  <path class="cls-4" d="M284.73,164.92c-11.35-3.68-22.69,4.38-33.97,0,0-1.13.7-1.27,1.16-1.16,7.43,1.88,14.61-.36,21.86-1.46,3.92-.6,7.62-.04,10.96,2.63h0Z"/>
  <path class="cls-4" d="M296.29,153.64c1.89,3.24,5.24,2.11,8.01,2.95-5.73,3.86-11.98-.56-21.28-14.93,1.1-1.33,2.01.71,3.06.2l-.03-.03c0,.63.3.94.88.94l-.03-.03c2.03,4.73,3.88,9.64,9.43,10.93l-.05-.04h0Z"/>
  <path class="cls-4" d="M193.87,111.89c-.06-3.14-2.47-4.91-3.8-7.29-1.35-2.41-2.88-4.67-2.41-7.85,3.69,7.94,8.97,14.58,14.57,21.03-3.77-.61-4.83-5.2-8.39-5.92l.03.04h0Z"/>
  <path class="cls-4" d="M219.5,96.44c-3.22-3.83-7.61-4.29-12-4.61-2.14-.16-4.31-.03-6.44-.36,7.22-3.79,18.55.09,24.82,8.13-.21.23-.43.46-.64.7-.51-.08-1.01-.17-1.52-.25l.05.04-.9-.96.05.04c-.5-1.22-1.26-2.01-2.61-1.85l.05.04c0-.64-.36-.89-.9-.96l.05.04h-.01Z"/>
  <path class="cls-4" d="M284.84,128.63c-5.78-5.44-11.2-11.42-19.25-14.28,3.48-.69,4.2-.3,7.67,1.73,4.05,2.37,6.79,6.63,11.13,8.52l-.03-.03c-.52,1.45.91,2.27,1,3.52-.18.17-.35.35-.51.54h-.01Z"/>
  <path class="cls-4" d="M301.28,146.97c-2.87-4.46-5.33-9.18-8.96-13.99,4.21,1.57,8.12,7.71,8.96,13.99Z"/>
  <path class="cls-4" d="M217.3,128.55c-5.05-1.79-9.65-4.32-12.79-9.16,4.19,3.17,8.89,5.53,12.79,9.16Z"/>
  <path class="cls-4" d="M286.18,129.01c4.04,3.2,6.62,7.59,8.61,12.51-3.17-3.87-6.82-7.3-9.06-12,.16-.17.31-.34.45-.51Z"/>
  <path class="cls-4" d="M248.03,147.72c3.8,1.26,7.6,2.52,11.4,3.79-.12.38-.23.77-.35,1.15-4.15-.09-7.91-1.49-11.05-4.94Z"/>
  <path class="cls-4" d="M193.65,95.8c3.89-.59,7.48.62,11.02,2.12l-.16,1.13c-3.68-.66-7.37-1.32-11.05-1.98.07-.43.13-.86.2-1.28h-.01Z"/>
  <path class="cls-4" d="M243.82,146.54c-3.19-.73-6.15-1.97-8.34-4.81,3.12.85,6.11,1.98,8.34,4.81Z"/>
  <path class="cls-4" d="M277.1,154.3c3.34-.38,6.45.61,9.47,2.1-3.41.82-6.46-.38-9.47-2.1Z"/>
  <path class="cls-4" d="M244.93,150.28c2.62,1.06,5.24,2.11,7.86,3.17-3.24.51-6.13.06-8.49-1.94.21-.41.42-.82.63-1.22h0Z"/>
  <path class="cls-4" d="M233.66,96.5c2.22-1.23,4.18-.96,6.46.8-2.79,1.38-4.53-.43-6.46-.8Z"/>
  <path class="cls-4" d="M207.04,100.52c2.55-1.82,4.25-.03,6.21.82-.1.44-.2.89-.3,1.33-1.97-.72-3.94-1.43-5.91-2.15Z"/>
  <path class="cls-4" d="M239.57,115.06c-2.02-.74-3.91-1.7-5.13-3.7.27-.29.55-.57.82-.86,1.01.47,2.02.93,3.03,1.4l-.07-.05c.66.81,1.33,1.62,1.99,2.43-.22.26-.43.53-.65.79h.01Z"/>
  <path class="cls-4" d="M240.37,111.4c1.41.54,2.86,1.01,3.8,2.61-.67,1.18-1.74.25-2.52.57l.05.05c-.66-.8-1.33-1.61-1.99-2.41.22-.27.44-.54.66-.81h0Z"/>
  <path class="cls-4" d="M234.36,106.85c1.37.58,2.71,1.19,3.42,2.71-.21.27-.42.54-.63.81l-2.34-1.27.07.07c-.4-.48-.81-.95-1.21-1.43.23-.29.46-.59.69-.88h0Z"/>
  <path class="cls-4" d="M290.46,156.57c-.23.53-.39,1.23-1.1,1.04-.23-.06-.52-.72-.45-1.01.08-.32.52-.67.86-.76.41-.11.87.04.68.72h.01Z"/>
  <path class="cls-4" d="M237.78,109.57c1.05.31,2.03.73,2.58,1.83-.22.27-.44.54-.66.81-.49-.12-.99-.25-1.48-.37l.07.05c-.38-.51-.76-1.01-1.14-1.52.21-.27.42-.54.63-.81h0Z"/>
  <path class="cls-4" d="M241.65,114.57c-.04.53.07,1.4-.16,1.52-.94.5-1.42-.38-1.92-1.04.22-.26.43-.52.65-.79.49.12.99.24,1.48.35l-.05-.05h0Z"/>
  <path class="cls-4" d="M285.35,128.09c.28.3.55.61.83.91l-.45.51c-.3-.29-.59-.59-.89-.89.16-.19.33-.37.51-.54h0Z"/>
  <path class="cls-4" d="M29.9,150.91c.57-.3,1.15-.6,1.72-.91,3.23-1.13,6.77-1.88,6.31-6.9-.05-.58.64-1.27,1.05-1.86,1.37-1.95,4.18-3.21,2.15-6.65-.58-.98.89-2.36,2.06-3.06.19.15.37.31.55.46-.07.55-.13,1.09-.2,1.64-.37.22-.76.44-.18.86.02.01.3-.39.46-.59,1.63-.35,2.01-1.41,1.49-2.98l-.04.05c.58.15,1.14.15,1.5-.46,3.11-5.27,4.35-11.28,6.97-18.05-5.23,2.92-7.58,7.83-12.33,9.17,8.69-8.3,15.88-17.84,22.09-29.11.05,3.52-.49,3.23-3.57,9.71-3.4,7.15-6.79,14.71-7.95,22.48-.56,3.73-1.34,7.1-2.95,10.08-3.68,6.87-8.22,13.13-15.28,16.5-.96.46-2.92,3.16-3.86-.37h.01ZM44.06,138.99c.08-.08.22-.15.23-.23,0-.08-.12-.18-.19-.27-.08.08-.22.15-.23.23,0,.08.12.18.18.27h.01ZM46.82,135.15c-.06-.1-.12-.2-.18-.3-.08.08-.22.15-.23.24,0,.09.11.2.17.29.08-.08.17-.16.25-.24h-.01Z"/>
  <path class="cls-4" d="M69.06,58.1c-3.94,5.13-7.84,10.31-11.85,15.38-1.98,2.51-4.04,4.99-6.83,6.53-1.08-1.21-.15-1.8.42-2.34,6.02-5.62,10.58-12.56,15.44-19.24,7.79-10.72,17.59-18.33,30.17-21.48.69-.17,1.34-.53,2.48.53-2.99,1.39-5.72,2.77-8.53,3.93-2.36.97-6.09,0-5.48,4.84.04.3-.79.77-1.26,1.1-4.36,3.17-8.18,6.99-11.71,11.17-.75.89-1.81,3.31-2.54-.09.23-.36.46-.72.69-1.07.29-.3.57-.6.86-.9.27-.32.55-.63.82-.95.19-.18.92-.16.23-.68-.06.24-.13.48-.19.72-.58-.06-.87.25-.91.85-.55.03-.82.34-.84.92-.32.26-.64.52-.97.78ZM76.86,50.06c-1.32.09-2.15.72-2.59,2.38,1.48-.48,2.17-1.28,2.62-2.35.25-.13.88-.08.3-.64-.11.2-.22.41-.33.61ZM72.91,53.33l.24.17.03-.28-.27.11Z"/>
  <path class="cls-4" d="M80.31,67.33c-2.24-.46-2.91,1.65-3.81,2.95-2.61,3.76-4.86,7.77-6.55,12.12-.54,1.39-.61,3.31-2.95,3.88,1.06-5.5,3.56-9.97,6.25-14.25,3.9-6.21,8.77-11.42,15.09-14.95,4.81-2.68,8.4-6.58,10.24-12.16.28-.84.15-2.23,2.5-2.47-2.9,5.02-.75,11.24-5.02,15.27-4,3.78-8.45,6.96-13.22,9.58l.04.05c.45-2.42,2.31-3.5,3.94-4.86,1.93-1.61,4.51-2.32,5.8-4.79.1-.3.2-.59.31-.88-.3.09-.6.18-.89.27-1.58.93-3.23,1.76-4.72,2.82-2.78,1.98-6.27,3.26-7.02,7.43l.02-.02h-.01ZM94.62,55.95c-.07-.09-.14-.25-.22-.26-.08,0-.18.13-.27.21.07.09.14.25.22.26.08,0,.18-.13.26-.21h.01Z"/>
  <path class="cls-4" d="M67.49,116.92c2.24-3.36,5.68-4.75,8.09-7.36,1.17-1.26,4.13-1.71,2.13-4.66-.05-.08.02-.39.09-.41,5.35-1.72,3.28-7.97,6.17-11.37,3.22-3.79,3.62-9.44,6.77-13.43.06-.08.25-.04.62-.08.27,2.45-1.48,4.14-2,6.22-.58,2.32-3.42,4.38-.81,7.17.2.21-.15,1.14-.4,1.65-4.45,9.35-10.55,17.13-19.12,22.51-.26.16-.76-.1-1.54-.24Z"/>
  <path class="cls-4" d="M61.55,80.95c-.69-.05-1.61.19-2.02-.2-.96-.91.08-1.58.63-2.13,4.98-5.08,8.14-11.62,12.35-17.3,3.61-4.87,7.76-8.97,14.03-9.74-11.9,5.88-17.1,18.09-24.19,28.5l.03-.03c-.61,0-.9.31-.89.95l.05-.04h0Z"/>
  <path class="cls-4" d="M58.52,85.99c-1.71,2.11-3.42,4.22-5.12,6.32.85,1.23,1.88-1.02,2.62.33-3.13,3.52-6.27,7.06-9.41,10.6-.25-.24-.51-.48-.76-.72l-.23-1.04c-1.15.3-1.19,1.27-1.2,2.25l.06-.06c-.49.1-.98.21-1.48.31-.24-.24-.47-.47-.7-.7,4.08-7.09,9.59-12.77,15.58-17.98l.63.7h0ZM51.29,94.62c-.66.35-1.02.9-.96,1.71-1.54.22-2.3,1.22-2.48,2.8-.33.09-.86.06-.35.66.13-.21.25-.42.38-.63,1.21-.53,2.01-1.5,2.59-2.71.75-.39,1.04-1,.79-1.87.35.04.81.22.5-.5-.16.18-.31.36-.47.54Z"/>
  <path class="cls-4" d="M95.47,62.77c-3.32,6.87-8.6,12.48-11.14,20.99-1.55-5.8,5.27-15.63,11.14-20.99Z"/>
  <path class="cls-4" d="M24.78,87.31c.57.02.8-.34.89-.88.73-.3,1.03-.89.97-1.7.96-.39,1.92-.78,2.87-1.18-3.89,5.23-5.23,11.99-9.82,16.48-.01-.91-.03-1.82-.04-2.73,1.96-1.99,3.27-4.32,3.43-7.26.58.04.78-.36.9-.86.77-.38.9-1.07.79-1.87h0Z"/>
  <path class="cls-4" d="M21.52,106.97c-1.27,4.39-2.52,8.78-3.83,13.16-.17.56-.64,1.06-1.31.79-.35-.14-.61-.32-.49-.97.87-4.72,1.76-9.43,4.39-13.41.42.15.83.29,1.25.44h0Z"/>
  <path class="cls-4" d="M57.68,143.25c-3.5,4.07-7.68,6.84-12.82,7.81,4.08-2.84,8.13-5.67,12.1-8.63.24.27.48.54.71.81h.01Z"/>
  <path class="cls-4" d="M73.51,101.96c2.18-3.99,4.36-7.99,6.55-11.98.36.22.72.44,1.08.66-1.62,4.38-3.94,8.33-6.47,12.17-.38-.28-.77-.57-1.15-.85h0Z"/>
  <path class="cls-4" d="M64.5,131.33c-3.26,4.19-5.96,7.54-9.3,9.85,2.78-2.94,5.71-6.05,9.3-9.85Z"/>
  <path class="cls-4" d="M70.91,44.62c.29-.29.59-.58.88-.87.75.07,1.43,0,1.69-.93.81.13,2.1,0,2.33.46.47.93-.5,1.61-1.28,1.89-3.25,1.19-5.82,4.22-9.58,3.99.56-.91,1.11-1.83,1.67-2.74.74.08,1.47.15,1.76-.84.99.13,1.91.04,2.53-.96Z"/>
  <path class="cls-4" d="M35.03,93.72c2.88-.48,2.66-4.77,6.53-5.53-2.73,4.4-5.03,8.11-7.67,12.35-.86-3.05,1.76-4.62,1.18-6.87l-.04.05Z"/>
  <path class="cls-4" d="M44.22,73.48c2.17-3.69,5.61-5.66,8.93-7.8.27.33.54.65.81.98-3.02,2.5-6.04,4.99-9.05,7.49-.23-.22-.46-.44-.69-.66h0Z"/>
  <path class="cls-4" d="M15.39,107.31c.78-.34.77-1.1.86-1.81.86-.71.88-1.71.85-2.73,1.38-.33,1.09-2.48,2.57-2.69-.06,5.04-3.28,8.82-4.14,13.76-1.36-1.1-.99-2.03-1-2.89,1.08-1,.72-2.38.85-3.64h.01Z"/>
  <path class="cls-4" d="M39.83,123.39c-1.85,3.07-4.54,5.04-7.78,6.29,2.05-2.81,4.43-5.19,7.78-6.29Z"/>
  <path class="cls-4" d="M57.88,85.29c.59-2.05,2.84-2.51,3.66-4.34l-.05.04c.46-.14.9-.31.89-.95l-.03.03c1.52.59,2.21-1.91,4.23-.99-2.13,3.26-5.23,4.93-8.07,6.9-.21-.23-.42-.46-.63-.7h0Z"/>
  <path class="cls-4" d="M40.59,106.89c-1.39,3.38-3.13,6.52-5.67,9.12.6-3.91,2.55-7.01,5.08-9.78.2.22.4.44.6.66h0Z"/>
  <path class="cls-4" d="M44.9,74.14c-1.33,3.35-3.97,5.59-6.09,8.3.23-4.1,3.02-6.38,5.41-8.96.23.22.46.44.68.66Z"/>
  <path class="cls-4" d="M14.89,132.1c-.58-2.76-.61-5.46.86-7.98.51,2.76.83,5.49-.86,7.98Z"/>
  <path class="cls-4" d="M26.18,144.08c1.59-3.25,3.35-5.09,6.39-7.4-1.4,3.89-2.82,6.05-6.39,7.4Z"/>
  <path class="cls-4" d="M82.85,67.32c-.8,2.67-2.81,4.31-4.66,6.71-1.09-3.34,2.51-4.24,2.12-6.69l-.02.02c.86,0,1.72,0,2.59.01l-.04-.05h.01Z"/>
  <path class="cls-4" d="M62.37,49.17c.85,0,1.7,0,2.55.01-.47,2.75-2.61,3.43-4.65,4.56-.73-2.54,2.5-2.54,2.11-4.57h-.01Z"/>
  <path class="cls-4" d="M14.15,122.33c-1.89-2.5-.9-4.54.89-6.42-.3,2.14-.59,4.28-.89,6.42Z"/>
  <path class="cls-4" d="M46.61,103.24c-.67,1.65-1.32,3.31-3.22,3.92-1.07-1.74.92-2.3,1.09-3.49l-.06.06c.48-.4.95-.81,1.43-1.21.25.24.51.48.76.72Z"/>
  <path class="cls-4" d="M64.92,46.45c-.23,1.56-2.03,1.46-2.55,2.72h-1.7c.54-2.46,2.1-3.12,4.25-2.72Z"/>
  <path class="cls-4" d="M43.19,131.53c.2-.56.29-1.2.61-1.67.44-.65.7-1.96,1.76-1.27.26.17-.18,1.56-.3,2.38l.04-.05c-.52.36-1.04.72-1.57,1.07-.18-.16-.36-.31-.55-.46h.01Z"/>
  <path class="cls-4" d="M32.08,147.76c.88-1.13,1.77-2.24,3.66-2.05-.52,1.75-1.72,2.32-3,2.8-.22-.25-.44-.5-.66-.75Z"/>
  <path class="cls-4" d="M33.35,93.69c0-.61-.02-1.22-.02-1.83.95.1,1.33-1.96,2.27-.92.34.38-.35,1.82-.57,2.78l.04-.05c-.57,0-1.15,0-1.72.02Z"/>
  <path class="cls-4" d="M42.17,104.9c-.15,1-.67,1.68-1.58,1.99-.19-.22-.39-.44-.59-.66.2-.93.71-1.61,1.51-2.05.22.24.44.48.66.72Z"/>
  <path class="cls-4" d="M63.82,135.25c.27-.72.86-1.72,1.42-1.25,1.07.91-.08,1.43-.72,1.94-.23-.23-.46-.46-.69-.69h0Z"/>
  <path class="cls-4" d="M32.46,93.67c.29,0,.58.02.87.03.47,1,.29,1.65-.84,1.8-.01-.61-.02-1.22-.03-1.82h0Z"/>
  <path class="cls-4" d="M64.52,135.94c-.38.36-1.05,1.06-1.09,1.02-.8-.77,0-1.2.4-1.71.23.23.46.46.69.69Z"/>
  <path class="cls-4" d="M56.97,142.43c.55-.34,1.1-.69,1.64-1.03.2.23.39.46.59.69-.51.38-1.02.77-1.52,1.15-.23-.27-.47-.54-.71-.81Z"/>
  <path class="cls-4" d="M30.39,82.18c.07.08.22.18.22.27s-.15.18-.23.27c-.08-.09-.23-.19-.23-.28s.16-.18.24-.26Z"/>
  <path class="cls-4" d="M41.5,104.18c.27-.3.54-.6.81-.9.23.23.46.47.7.7-.28.31-.56.61-.84.92-.22-.24-.44-.48-.66-.72h0Z"/>
  <path class="cls-4" d="M58.61,141.4c.31-.12.62-.24.92-.37-.11.35-.23.7-.34,1.06-.19-.23-.39-.46-.59-.69h0Z"/>
  <path class="cls-4" d="M131.23,135.39c-14.84,11.04-32.32,18.91-40.47,38.56-1.09-2.52-.02-4.39.88-6.25,3.02-6.18,7.9-10.66,12.71-15.07,7.96-7.3,17.32-12.35,26.87-17.24h.01Z"/>
  <path class="cls-4" d="M108.88,134.16c-1.18,1.49-2.23,3.14-3.57,4.45-4.69,4.57-7.29,10.45-9.59,16.57-1.06,2.81-5.32,2.47-5.63,6.4-.11,1.37,0,3.29-1.45,4.63-1.49-6.74,9.99-25.66,19.63-32.77.2.24.4.48.6.72h.01Z"/>
  <path class="cls-4" d="M112.77,166.36c-1.67-.39-3.09,1.57-6.09.24,14.41-5.91,25.46-15.79,37.78-23.53-7.46,7.09-15.7,13.02-24.05,18.79l.04-.04c-.59.32-1.18.63-1.77.95l.07-.05c-.59.32-1.19.64-1.78.96l.06-.05c-1.57.7-3.32,1.07-4.32,2.77l.05-.04h.01Z"/>
  <path class="cls-4" d="M148.2,127.81c-5.13,6.42-18.02,15.27-27.09,18.4.63-2.39,2.4-2.75,3.72-3.46,7.75-4.11,15.43-8.31,21.23-15.46l-.04.04c.49-.11.98-.21,1.47-.32.23.26.47.53.7.79h0Z"/>
  <path class="cls-4" d="M123.51,116.47c-7.77,6.11-15.04,12.86-22.25,19.68,5.83-8.55,13.17-15.21,22.25-19.68Z"/>
  <path class="cls-4" d="M145.99,153.6c-.98.77-1.95,1.53-2.93,2.29-4.23,2.51-8.46,5.03-12.69,7.54-.24-.42-.48-.84-.71-1.26,5.75-3.75,11.5-7.5,17.26-11.25.77,1.31-.66,1.76-.92,2.68h0Z"/>
  <path class="cls-4" d="M84.82,159.29c.26-.9.52-1.81.78-2.71,2.15.1,1.61,1.73,1.34,2.94-1.1,4.85-1.73,9.65.38,14.42-4.62-4.12-2.84-9.54-2.5-14.65Z"/>
  <path class="cls-4" d="M108.28,133.45c3.91-4.93,8.63-8.71,13.85-11.78.26.34.51.68.77,1.02-4.67,3.83-9.35,7.65-14.02,11.48-.2-.24-.4-.48-.6-.72Z"/>
  <path class="cls-4" d="M131.63,118.05c2.84-4.89,9.3-8.99,13.93-9.27-5.07,3.37-9.5,6.32-13.93,9.27Z"/>
  <path class="cls-4" d="M153.32,117.82c4.18-5.9,9.06-9.2,14.01-8.79-5.27,1.94-9.23,5.83-13.34,9.49l-.67-.69h0Z"/>
  <path class="cls-4" d="M156.68,99.87c-4.94,1.94-9.88,3.88-15.64,6.14,3.41-4.1,10.48-6.89,15.64-6.14Z"/>
  <path class="cls-4" d="M110.84,169.3c-3.62,4.05-7.93,6.18-13.23,5.57,4.47-1.69,8.95-3.36,13.23-5.57Z"/>
  <path class="cls-4" d="M152.86,120.98c.76-.06,1.4-1.32,2.19-.49.67.69-.04,1.37-.51,1.83-2.02,1.95-3.63,4.45-6.35,5.5-.23-.26-.46-.53-.7-.79.95-1.12,1.89-2.24,2.84-3.36l-.04.04c.3-.32.6-.64.9-.96l-.04.05c.9-.29,1.48-.9,1.75-1.86l-.04.04Z"/>
  <path class="cls-4" d="M146.07,127.3c-2.42-.89-3.21,2.87-5.6,2.3,1.41-2.83,2.56-3.81,6.31-5.47.74,1.34-1.29,1.95-.75,3.21l.04-.04Z"/>
  <path class="cls-4" d="M123.4,162.32c-2,2.07-4.39,3.42-7.02,4.34-.24-.31-.47-.62-.71-.93.66-.55,1.52-.95,1.37-2.1l-.06.05c.77.04,1.51.05,1.78-.96l-.07.05c.75.02,1.49.02,1.77-.95l-.04.04c.76-.12,1.52-.25,2.28-.37.23.28.47.55.7.83Z"/>
  <path class="cls-4" d="M120.38,167.83c1.5-2.86,4.19-2.68,6.31-3.5-1.52,1.87-3.1,3.61-6.31,3.5Z"/>
  <path class="cls-4" d="M152.54,147.88c-1.17.52-2.02,1.42-2.71,2.52-.94.44-1.84,1.12-2.94.54.57-2.29,2.6-3.05,4.14-4.25.86-.67,1.58-.05,1.51,1.19Z"/>
  <path class="cls-4" d="M133.73,133.97c1.29-1.71,2.69-3.25,5.41-3.69-1.26,2.88-3.28,3.41-5.41,3.69Z"/>
  <path class="cls-4" d="M150.34,123.66c-.76-.51-2.27.77-2.38-.58-.15-1.7,1.54-2.07,2.77-2.61l.65.69c-.07.54-.15,1.09-.22,1.63l.04-.05c-.61,0-.93.28-.9.96l.04-.04Z"/>
  <path class="cls-4" d="M116.38,166.66c-1.17,1.2-2.44,2.19-4.19,2.35-.78-1.17.74-1.71.57-2.65l-.05.04c1.08.24,2.03-.15,2.95-.68.24.31.47.62.71.93h.01Z"/>
  <path class="cls-4" d="M150.72,120.48c.27-.96.88-1.54,1.77-1.8.21.24.42.48.63.71-.09.53-.18,1.05-.27,1.58l.04-.04c-.51.08-1.02.16-1.53.23l-.65-.69h.01Z"/>
  <path class="cls-4" d="M122.69,161.49c.5-.45,1-1.01,1.61-.24.04.05-.59.7-.91,1.07-.23-.28-.47-.55-.7-.83Z"/>
  <path class="cls-4" d="M153.99,118.51c-.29.3-.58.59-.87.89-.21-.24-.42-.47-.63-.71.28-.29.55-.58.83-.87.22.23.44.46.67.69Z"/>
  <path class="cls-4" d="M163.37,82.5c-.24-.32-.48-.64-.72-.97-7.1-8.03-12.21-17.33-15.66-27.72-1.96-5.89-2.89-11.97-3.34-18.16-.11-1.56-.18-3.23,1.76-5-.36,10.66,1.98,19.94,5.66,28.98,2.81,6.88,6.27,13.2,11.4,18.4,2.41,2.44,4.22,5.32,5.33,8.64.4,1.19,1.58,3.03-1.08,3.17-.29-2.88-1.09-5.5-3.36-7.35h.01Z"/>
  <path class="cls-4" d="M184.6,85.15c-4.47-5.79-8.3-10.56-8.99-17.68-.59-6.04-4.02-11.19-7.83-15.8-1.01-1.22-2.43-2.12-2.9-4.27,2.31-.11,3.06,1.95,4.17,3.15,3.43,3.71,5.68,8.25,7.52,13.03.29.75.25,2.62,1.39.27.87-1.78,1.56-.31,1.65.69.61,6.8,3.53,12.97,4.99,20.61ZM178.42,67.71l-.34-.79c-.13.25-.37.51-.35.74.04.3.29.57.44.86.08-.27.16-.53.24-.81h0Z"/>
  <path class="cls-4" d="M161.4,45.52c-.71.57.09,4.11-1.51,1.96-4.35-5.82-10.66-10.06-12.96-17.58-.47-1.54-1.34-3.01-.39-5.43,2.8,5.09,3.36,11.43,8.92,13.82l-.04-.04c-.04.68.31.95.9.96l-.04-.05c-.14.86.13,1.5.89,1.88l-.05-.06c1.35,1.62,1.98,4.01,4.32,4.58l-.03-.03h-.01Z"/>
  <path class="cls-4" d="M168.51,37.99c6.57,3.95,12.3,8.83,15.66,16.36-4.42-6.45-11.05-10.21-16.33-15.6.22-.25.45-.5.67-.75h0Z"/>
  <path class="cls-4" d="M134.49,93.22c-3.78-8.72-4.06-17.91-2.95-27.31.67,8.96,1.03,17.97,3.72,26.57-.26.25-.52.49-.78.74h.01Z"/>
  <path class="cls-4" d="M162.72,34.15c-3.3-.92-2.01-6.57-6.28-6.64,4.71-.3,7.91,2.12,10.52,5.73-.24.27-.49.54-.73.81-1.08.57-1.45-2.71-2.82-.6-.23.23-.46.46-.69.7Z"/>
  <path class="cls-4" d="M132.47,56.97c-.38-5.9.75-11.44,3.95-16.44-1.31,5.47-2.49,10.98-3.95,16.44Z"/>
  <path class="cls-4" d="M156.07,56c3.27,3.59,5.3,7.8,5.53,12.91-2.04-4.21-4.03-8.44-5.53-12.91Z"/>
  <path class="cls-4" d="M155.46,38.28l-1.73-3.94c.29-.26.58-.51.86-.77,2.13,2.92,4.27,5.84,6.4,8.76l-.66.72c-1.13-.6-1.66-2.24-3.22-2.09l.05.06c.11-.85-.14-1.5-.89-1.88l.04.05c-.3-.32-.6-.64-.9-.96l.04.04h.01Z"/>
  <path class="cls-4" d="M160.99,42.33c.6.34,1.25.59,1.77,1.04.72.62,1.73,1.49,1.14,2.44-.66,1.05-1.59-.68-2.5-.3l.03.03c.13-1.08-.62-1.72-1.1-2.5l.66-.72h0Z"/>
  <path class="cls-4" d="M167.84,38.75c-1.48-.46-2.78-1.17-3.44-2.78.24-.26.48-.52.72-.78.48.13.96.25,1.44.37l-.04-.04c.67.83,1.33,1.65,2,2.48-.22.25-.45.5-.67.75h0Z"/>
  <path class="cls-4" d="M166.96,33.24c.84.43,2.1.55,1.81,1.91-.06.29-1.47.25-2.26.36l.04.04c-.11-.5-.22-1-.33-1.51.24-.27.49-.54.73-.82v.02Z"/>
  <path class="cls-4" d="M135.26,92.48c.44.56.86,1.12.23,1.83-.33-.37-.67-.73-1-1.1.26-.24.52-.49.77-.74h0Z"/>
  <path class="cls-4" d="M164.4,35.97c-.29-.31-.58-.62-.87-.93.24-.24.49-.48.73-.71.29.29.58.57.86.86-.24.26-.48.52-.72.78Z"/>
  <path class="cls-4" d="M163.53,35.04c-.27-.3-.54-.6-.81-.89.23-.23.46-.46.69-.69.28.29.57.58.85.87-.24.24-.49.48-.73.71Z"/>
  <path class="cls-4" d="M221.88,189.84c-1.27,1.21-3.8.16-4.31,2.72-1.68,1.82-3.37,3.63-5.05,5.45-1.62-.59-4.28,2.4-4.92-1.61,3.73,1.32,5.97-1.88,7.27-4.09,1.88-3.21,4.54-3.51,7.21-4.47-.07.67-.13,1.33-.2,2Z"/>
  <path class="cls-4" d="M199.03,148.27c1.18.06,2.62-1.01,3.4.86-.65.3-1.75.45-1.88.92-1.87,6.54-7.48,5.24-11.85,6.51.16-2.11,1.79-3.06,3.2-2.76,4.46.94,5.71-2.3,7.13-5.52h0Z"/>
  <path class="cls-4" d="M234.8,173.57c-1.28.73-1.42,1.97-1.6,3.36-.4,3.09-2.05,5.08-5.07,5.56,2.81-3.52,3.61-8.18,5.75-12.17,1.55.92.79,2.2.92,3.24h0Z"/>
  <path class="cls-4" d="M204.13,200.94c-.75-.08-1.49-.15-1.72.91-1.37-.28-2.92.31-4.07-.98,2.22-1.27,4.43-2.54,6.65-3.81,0,.69,0,1.37,0,2.06-.87.29-.95,1.01-.86,1.82h0Z"/>
  <path class="cls-4" d="M108.1,115.26c-1.61,2.04-3.64,2.89-6.66,3.01,2.03-2.75,4.51-2.51,6.66-3.01Z"/>
  <path class="cls-4" d="M101.36,110.11c1.81-2.61,3.71-3.29,6.51-3.69-1.72,2.67-3.67,3.25-6.51,3.69Z"/>
  <path class="cls-4" d="M145.16,169.09c.31-.27.62-.55.94-.82.3-.27.61-.55.91-.82.69-.04,1.31-.23,1.7-.92,4.31-.97,8.37-3.49,14.04-2.35-4.78,2.66-9.83,1.57-13.41,4.77-1.43-1.18-2.65,4.5-4.18.15h0Z"/>
  <path class="cls-4" d="M167.83,173.28c-3.66.31-7.32.62-10.98.94,3.41-2.96,7.2-2.37,10.93-2.27.02.44.04.89.05,1.33Z"/>
  <path class="cls-4" d="M172.93,188.48c-2.16,2.13-4.25,1.13-6.37,0h6.37Z"/>
  <path class="cls-4" d="M186.59,135.93c-3.61-3.64-5.53-8.06-5.34-13.51,1.28,4.68,3.95,8.58,6.03,12.8-.23.24-.46.47-.68.71h0Z"/>
  <path class="cls-4" d="M187.27,135.22c.61.3,1.46.83.96,1.47-.86,1.09-1.26-.07-1.64-.76.23-.23.45-.47.68-.71Z"/>
  <path class="cls-2" d="M252.8,105.48c2.93.12,5.03,2.01,7.14,3.86-2.7-.62-5.25-1.55-7.19-3.81l.04-.05h0Z"/>
  <path class="cls-2" d="M241.9,98.86c1.03.38,2.24.4,2.87,1.69-1.46.69-2.38-.28-3.35-1.12.16-.19.32-.38.48-.58h0Z"/>
  <path class="cls-2" d="M251.9,104.62c-1.49.15-2.64-.44-3.42-1.81l.07-.08c1.45-.04,2.65.44,3.4,1.85l-.04.04h0Z"/>
  <path class="cls-2" d="M248.48,102.81c-.68-.06-1.35-.15-1.7-.92l.05-.06c.75-.09,1.41.01,1.71.9l-.07.08h.01Z"/>
  <path class="cls-2" d="M246.78,101.89c-.21-.14-.41-.27-.62-.41.5-.47.61-.12.67.35l-.05.06Z"/>
  <path class="cls-2" d="M251.94,104.58c.52.05.85.3.86.9l-.04.05c-.51-.07-.85-.31-.85-.91l.04-.04h0Z"/>
  <path class="cls-2" d="M296.34,153.68c-5.55-1.29-7.4-6.2-9.43-10.93,2.56.3,2.85,3,4.2,4.57,1.8,2.07,3.49,4.24,5.23,6.37h0Z"/>
  <path class="cls-2" d="M286.94,142.78c-.58,0-.88-.31-.88-.94.64-.06.92.27.88.94Z"/>
  <path class="cls-2" d="M237.15,110.37c.38.51.76,1.01,1.14,1.52-1.01-.47-2.02-.93-3.03-1.4-.15-.47-.3-.93-.45-1.39.78.42,1.56.85,2.34,1.27Z"/>
  <path class="cls-2" d="M220.3,97.31c1.35-.15,2.12.64,2.61,1.85-1.31.08-2.13-.62-2.61-1.85Z"/>
  <path class="cls-2" d="M233.67,107.74c.4.48.81.95,1.21,1.43-.79-.18-1.65-.26-1.93-1.3.24-.04.48-.09.72-.13Z"/>
  <path class="cls-2" d="M223.71,100.03c.51.08,1.01.17,1.52.25.06.23.12.46.19.69l.05-.05c-.79.15-1.41-.06-1.76-.9h0Z"/>
  <path class="cls-2" d="M222.87,99.12l.9.96c-.53-.07-.89-.33-.9-.96Z"/>
  <path class="cls-2" d="M225.42,100.98c.28.3.57.61.85.91l.05-.05c-.52-.06-.83-.33-.86-.91l-.05.05h0Z"/>
  <path class="cls-2" d="M219.45,96.4c.54.06.9.32.9.96-.53-.07-.91-.31-.9-.96Z"/>
  <path class="cls-2" d="M226.28,101.89c.1.06.22.1.31.18.05.04.03.16.05.24-.1-.16-.2-.31-.3-.47l-.05.05h-.01Z"/>
  <path class="cls-2" d="M241.7,114.62c-.49-.12-.99-.23-1.48-.35-.66-.81-1.33-1.62-1.99-2.43.49.12.99.24,1.48.37.66.8,1.33,1.61,1.99,2.41Z"/>
  <path class="cls-2" d="M43.74,131.99c.52-.36,1.04-.72,1.57-1.07.52,1.57.14,2.63-1.49,2.98l-.28-.26c.07-.55.13-1.09.2-1.64h0Z"/>
  <path class="cls-2" d="M44.06,138.99c-.07-.09-.19-.19-.18-.27,0-.08.14-.16.23-.23.07.09.19.19.19.27s-.15.15-.23.23h0Z"/>
  <path class="cls-2" d="M46.82,135.15c-.08.08-.17.16-.25.24-.06-.1-.18-.21-.17-.29,0-.09.15-.16.23-.24.06.1.12.2.18.3h0Z"/>
  <path class="cls-2" d="M43.82,133.9c-.16.21-.44.61-.46.59-.58-.42-.19-.64.18-.86l.28.26h0Z"/>
  <path class="cls-2" d="M76.9,50.09c-.46,1.07-1.14,1.87-2.62,2.35.45-1.66,1.28-2.29,2.59-2.38l.03.03Z"/>
  <path class="cls-2" d="M70.08,57.37c-.23.36-.46.71-.69,1.07-.11-.11-.21-.22-.32-.34.32-.26.64-.52.97-.78l.04.05Z"/>
  <path class="cls-2" d="M70.87,56.4c.04-.6.33-.91.91-.85l-.03-.03c-.27.32-.55.63-.82.95l-.06-.06h0Z"/>
  <path class="cls-2" d="M71.79,55.55c.06-.24.13-.48.19-.72.7.52-.04.5-.23.68l.03.03h.01Z"/>
  <path class="cls-2" d="M72.92,53.33l.26-.12-.03.29-.23-.17Z"/>
  <path class="cls-2" d="M76.87,50.06c.11-.2.22-.41.33-.61.58.57-.04.51-.3.64l-.03-.03Z"/>
  <path class="cls-2" d="M70.93,56.47c-.29.3-.57.6-.86.9,0,0-.04-.04-.04-.05.02-.57.29-.89.84-.92l.06.06h0Z"/>
  <path class="cls-2" d="M82.88,67.36c-.86,0-1.72,0-2.59-.01.75-4.17,4.24-5.45,7.02-7.43,1.5-1.06,3.14-1.89,4.72-2.82.19.21.38.42.59.61-1.29,2.47-3.88,3.18-5.8,4.79-1.63,1.36-3.49,2.44-3.94,4.86Z"/>
  <path class="cls-2" d="M92.04,57.1c.3-.09.6-.18.89-.27-.1.29-.21.59-.31.88-.2-.19-.4-.4-.58-.61Z"/>
  <path class="cls-2" d="M94.62,55.95c-.09.08-.18.22-.26.21-.08,0-.15-.17-.22-.26.09-.08.18-.22.27-.21.08,0,.15.17.22.26h-.01Z"/>
  <path class="cls-2" d="M62.39,80.04c0,.65-.43.81-.89.95,0-.65.28-.97.89-.95Z"/>
  <path class="cls-2" d="M47.84,99.13c.17-1.59.94-2.58,2.48-2.8l.13.12c-.57,1.21-1.38,2.18-2.59,2.71l-.02-.02h0Z"/>
  <path class="cls-2" d="M45.85,102.52c-.48.4-.95.81-1.43,1.21.01-.98.05-1.95,1.2-2.25l.23,1.04Z"/>
  <path class="cls-2" d="M50.32,96.33c-.06-.81.3-1.36.96-1.71l-.04-.05c.25.87-.04,1.48-.79,1.87l-.13-.12h0Z"/>
  <path class="cls-2" d="M47.87,99.16c-.13.21-.25.42-.38.63-.51-.6.02-.57.35-.66l.02.02h0Z"/>
  <path class="cls-2" d="M51.28,94.62c.16-.18.31-.36.47-.54.31.71-.16.54-.5.5l.04.05h-.01Z"/>
  <path class="cls-2" d="M115.67,165.72c-.92.52-1.87.91-2.95.68,1-1.7,2.75-2.08,4.32-2.77.15,1.15-.71,1.55-1.37,2.1h0Z"/>
  <path class="cls-2" d="M118.75,162.72c-.27,1-1.01,1-1.78.96.59-.32,1.19-.64,1.78-.96Z"/>
  <path class="cls-2" d="M120.46,161.82c-.28.97-1.02.97-1.77.95.59-.32,1.18-.63,1.77-.95Z"/>
  <path class="cls-2" d="M151.37,121.17c.51-.08,1.02-.16,1.53-.23-.26.96-.85,1.58-1.75,1.86.07-.54.15-1.09.22-1.63Z"/>
  <path class="cls-2" d="M150.29,123.7c-.04-.67.29-.96.9-.96-.3.32-.6.64-.9.96Z"/>
  <path class="cls-2" d="M178.42,67.71c-.08.27-.16.54-.24.8-.16-.29-.41-.56-.44-.86-.03-.23.22-.49.35-.74.11.26.22.52.34.79h0Z"/>
  <path class="cls-2" d="M160.33,43.05c.47.78,1.23,1.42,1.1,2.5-2.34-.57-2.97-2.96-4.32-4.58,1.56-.15,2.09,1.49,3.22,2.09h0Z"/>
  <path class="cls-2" d="M156.28,39.14c.75.39,1,1.04.89,1.88-.75-.38-1.03-1.02-.89-1.88Z"/>
  <path class="cls-2" d="M155.42,38.24c.3.32.6.64.9.96-.59,0-.94-.27-.9-.96Z"/>
  <path class="cls-2" d="M164.26,34.33c-.28-.29-.57-.58-.85-.87,1.37-2.12,1.74,1.17,2.82.6.11.5.22,1.01.33,1.51-.48-.12-.96-.25-1.44-.37-.29-.29-.57-.58-.86-.86h0Z"/>
</svg>