<?xml version="1.0" encoding="UTF-8"?>
<svg id="Layer_1" data-name="Layer 1" xmlns="http://www.w3.org/2000/svg" viewBox="0 0 317.36 281.21">
  <defs>
    <style>
      .cls-1 {
        fill: #537959;
        stroke-width: 0px;
      }
    </style>
  </defs>
  <path class="cls-1" d="M260.16,29.92c.42.77.84,1.53,1.64,2.98,3.24-8.45,6.02-15.99,12.13-21.67,1.97-1.83,4.11-3.12,6.15-2.27,1.76.74,3.47,3.01,4.08,4.97,2.87,9.21,5.38,18.55,7.97,27.86,1.68,6.03,3.19,12.11,4.89,18.14.94,3.35,2.18,6.6,3.14,9.94,1.07,3.72,2.05,7.46,2.93,11.22,1.23,5.28-2.68,9-7.9,7.68-11.76-2.97-21.24-9.52-28.76-19.11-4-5.11-5.41-5.4-11.77-3.7-16.37,4.38-32.8,8.54-49.18,12.83-1.68.44-3.27,1.26-4.93,1.82-2.14.71-2.57,2.28-2.73,4.39-.1,1.2-1.22,2.33-1.89,3.49-.35.6-1.16,1.4-1,1.75,3.01,6.85.92,13.8.59,20.72-.18,3.88-.16,7.78.08,11.65.91,14.58-.05,29.1-.85,43.65-.47,8.44.41,16.94.42,25.41.02,7.86-.26,15.73-.51,23.59-.14,4.49-.53,8.98-.77,13.46-.43,7.77-.64,15.57-1.29,23.32-.46,5.43-3.05,10.04-6.51,14.16-.86,1.02-1.3,2.42-2.17,3.44-.55.65-1.52,1.18-2.35,1.27-5.54.62-11.09,1.21-16.65,1.61-15.43,1.13-30.85,2.42-46.3,3.11-6.71.3-13.48-.96-20.22-1.06-12.74-.18-25.48.03-38.22-.04-9.09-.05-17.55-3.02-25.76-6.59-6.46-2.81-9.51-8.43-10.15-15.36-.68-7.26-1.36-14.53-1.61-21.81-.57-16.37-.88-32.74-1.28-49.12-.17-6.99-.41-13.98-.4-20.97,0-7.98.21-15.96.43-23.93.06-2.35-.59-3.1-3.04-2.82-5.12.59-7.4-1.31-8.49-6.38-.12-.55-.53-1.03-.77-1.56-.78-1.69-1.81-3.31-2.25-5.09-1.33-5.43.1-10.74,1.46-15.89.96-3.66,4.01-5.52,7.77-5.87.68-.07,1.37-.1,2.05-.16,2.98-.25,4.97-1.26,5.62-4.8.65-3.48,1.98-6.92,3.54-10.1,2.45-5.01,6.69-7.82,12.05-9.12,10.11-2.43,20.29-2.75,30.62-2.05,6.51.44,13.08-.03,19.63-.11,11.24-.12,22.49-.2,33.73-.41,8.7-.16,17.41-.7,26.11-.7,7.12,0,14.26.95,21.36.7,5.52-.19,11.12-1.14,16.46-2.59,3.53-.96,5.87-1.32,7.91,1.65,1.38,2.02,2.71,2.28,4.92,1.67,14.09-3.84,28.23-7.48,42.33-11.3,3.87-1.05,7.64-2.51,11.46-3.77,4.02-1.33,4.78-4.93,5.6-8.43,1.25-5.29.8-10.63.22-15.97-.13-1.16-.02-2.35-.02-3.53.17-.1.35-.2.51-.29l-.02.03ZM100.82,134.58c-.43-2.23-1.93-4.3-.59-6.78.26-.5-.67-1.66-1.04-2.51-1.66,2.86-2.51,5.59-3.42,8.3-3.6,10.76-5.96,21.65-5.34,33.19.47,8.66.95,17.47-.12,26.02-1.13,9-.51,17.7.74,26.49.14.98,1.38,2.61,2.01,2.56,2.9-.22,5.51-.83,8.58.57,2.86,1.31,6.46.92,10.2,1.34,1.33-7.14,2.7-14.44,4.06-21.76-.31-.07-.6-.12-.91-.19-.18.85-.35,1.71-.52,2.56-.99,4.85-1.85,9.72-3.03,14.52-.31,1.24-1.53,2.98-2.55,3.16-1.79.31-3.75-.4-5.9-.73,1.09-1.29,2.01-2.37,2.8-3.3-2.99-3.94-5.9-7.63-8.62-11.45-.48-.68-.43-2.07-.14-2.95,1.54-4.52,3.22-8.99,4.9-13.44.25-.66.76-1.61,1.29-1.72,5.07-1.01,7.63-5.58,11.78-7.86-.14-.22-.29-.44-.44-.67-3.23,2.35-6.47,4.7-9.69,7.05-.24-.29-.48-.57-.71-.87.16-4.07,4.84-4.3,6.89-7.75-2.48,1.53-4.4,2.72-6.31,3.9-.19-.29-.39-.57-.59-.85,2.05-1.74,4.1-3.47,6.15-5.21l-.35-.41-4.89,3.08c-.19-.29-.39-.58-.58-.87,1.34-1.06,2.7-2.1,4.01-3.21,1.26-1.06,2.46-2.18,3.7-3.27-.12-.14-.25-.27-.37-.41-2.26,1.64-4.52,3.27-6.78,4.91-.29-.39-.58-.79-.87-1.18,2.83-2.33,5.66-4.66,8.5-6.99-.13-.17-.26-.34-.39-.52-2.38,1.68-4.77,3.35-7.16,5.03l-.83-1.01c2.79-2.61,5.59-5.22,8.38-7.83-.09-.11-.18-.21-.26-.31-2.45,1.88-4.89,3.74-7.34,5.62-.3-.38-.6-.75-.9-1.14,2.2-1.98,4.4-3.95,6.59-5.93-.12-.16-.25-.3-.37-.46-1.84,1.25-3.67,2.51-5.51,3.76-.27-.31-.54-.63-.81-.94,2.25-2.35,4.5-4.69,6.75-7.04-.1-.11-.2-.21-.3-.32-1.81,1.41-3.6,2.82-5.41,4.21-.23-.28-.47-.55-.7-.83,1.36-1.6,2.74-3.2,4.1-4.8-.1-.07-.19-.14-.28-.21-1.04.88-2.09,1.77-3.13,2.65-.21-.21-.42-.42-.63-.63,1.13-1.65,2.26-3.28,3.39-4.93-.08-.04-.15-.08-.23-.12-.89.79-1.78,1.59-2.67,2.38-.18-.16-.35-.32-.54-.48.78-1.18,1.55-2.35,2.59-3.94-.95.57-1.52.91-2.78,1.66,1.24-1.85,2.01-3,2.78-4.16-.12-.08-.24-.17-.35-.25-.59.38-1.17.77-1.76,1.15-.1-.11-.2-.21-.3-.33,1.05-1.47,2.11-2.95,3.16-4.42-.08-.09-.17-.18-.25-.28-.95.73-1.9,1.46-2.86,2.19-.12-.11-.24-.21-.35-.32.63-1.05,1.25-2.11,1.93-3.26-.59-.06-1.16-.11-2.16-.21,1.08-1.55,1.91-2.74,2.4-3.45-.79-1.79-1.44-3.25-1.97-4.43-.83-.19-1.87-.42-2.98-.66-.14.23-.44.74-.75,1.25l.04-.03v.05ZM130.19,164.61c-.25-1.06-.45-2.13-.75-3.17-.79-2.76-1.94-5.45-2.37-8.27-.49-3.22-.34-6.54-.53-9.81-.04-.65-.39-1.3-.58-1.95-.61.07-1.22.15-1.83.22,4.34,1.83.16,3.22.71,5.16.41,1.45-.83,3.38-1.28,4.88.36-.15,1.12-.44,1.87-.74.31.09.63.19.94.28-3.03,1.95,1.32,4.49-1.43,6.57-2.14,1.63-4.1,3.51-6.14,5.28.18.24.37.47.55.71,2.36-1.93,4.72-3.85,7.08-5.79.27.32.54.63.83.95-1.78,3.52-5.93,4.87-7.77,8.45,2.72-2.18,5.45-4.35,8.17-6.53l.76.94c-1.9,3.49-5.92,4.9-8.17,8.09,2.28-1.45,4.35-3.19,6.61-4.62.91-.57,2.22-.47,3.35-.68-2.5,2.3-4.99,4.61-7.5,6.89-1,.91-2.07,1.75-3.11,2.62.14.17.3.34.44.52,3.36-2.54,6.71-5.08,10.21-7.72,1.61,3.31-1.63,3.76-2.29,5.57.97-.25,1.8-.45,2.62-.66.16.26.32.53.48.79l-6.08,5.11c.13.15.25.29.38.43,1.56-1.05,3.11-2.09,4.97-3.34-.36,2.87.72,5.56-1.88,7.23-2.08,1.38-4.16,2.77-6.23,4.16.23.3.46.6.7.9l5.51-5.08h2.48c-.81,1.33-1.31,2.15-1.83,3.02,1.75.42,2.25,1.15.7,2.47-1.68,1.43-3.31,2.92-4.97,4.39l.41.5c1.66-1.22,3.31-2.44,4.97-3.66.32.38.64.75.97,1.12-2.55,2.63-5.11,5.25-7.66,7.87.1.12.19.23.29.34,2.1-1.7,4.2-3.41,6.31-5.11l.49.56c-.52.89-1.04,1.79-1.57,2.68.62,3.45,2.53,6.98-1.31,10.55,1.42-.69,2.1-1.01,2.78-1.35.13.16.26.32.39.47-1.25,1.54-2.51,3.08-3.76,4.62.08.09.17.17.25.26,1.06-.89,2.12-1.78,3.18-2.67.15.15.31.29.47.44-.47.91-.94,1.81-1.46,2.81.57.08,1.08.15,2.37.34-4.08,2.74-1.91,6.21-1.8,8.86.88,0,2.28-.45,3.03.08,2.65,1.89,2.03,4.34.31,6.79.92.42,1.66.75,2.68,1.21.77-2.45,1.19-4.75,2.17-6.77,4.16-8.48,5.41-17.71,6.5-26.89.92-7.8.69-15.73,1.51-23.55,1.32-12.59-.89-24.85-2.41-37.2-.25-1.98-1.11-2.67-3.19-2.25-2.59.52-5.2,1.48-7.92-.21-1.12-.7-2.88-.31-4.35-.42,0,.31,0,.63.02.94.87.12,1.75.25,2.45.35-.45,1.54-1.6,3.34-1.11,4.17,2.07,3.56,4.72,6.77,6.91,10.26.58.92.44,2.43.31,3.63-.09.83-.83,1.55-1.13,2.39-1.48,4.18-2.9,8.39-4.4,12.78-.47-.43-.88-.82-1.3-1.19l.02-.04ZM65.58,122c-1.78.28-2.82.36-3.81.61-8.94,2.22-17.84,4.6-26.82,6.62-3.01.68-4.14,2.15-4.12,5.09.02,3.09,0,6.19-.23,9.28-.39,5.04-1.39,10.07-1.4,15.11-.05,15.37.24,30.74.4,46.11.06,4.89-.04,9.8.26,14.68.32,5.25.86,10.49,1.63,15.69.62,4.12,1.32,8.34,2.77,12.21.95,2.54,2.97,4.93,5.06,6.72,6.6,5.62,14.79,6.34,22.93,6.82.71.04,1.83-.8,2.16-1.51,2.21-4.89,4.36-9.8,6.26-14.81.51-1.35.47-3.18.04-4.58-1.89-6.28-4.51-12.37-5.94-18.75-2.28-10.2-4.19-20.52-5.6-30.87-2.59-18.97-2.14-37.84,3.37-56.36,1.1-3.7,1.9-7.48,3.05-12.02v-.02ZM87.8,216.32c-.24,0-.48,0-.73,0-.16.34-.37.66-.47,1.01-1.79,6.33-3.67,12.63-5.29,18.99-.43,1.65-.63,3.8.05,5.24,3.37,7.2,6.94,14.32,10.74,21.29.68,1.24,2.79,2.34,4.26,2.37,7.83.11,15.67-.24,23.5-.24,8.71,0,17.42.16,26.13.4,9.69.27,18.75-1.33,26.19-8.36,1.07-1.01,2.29-1.87,3.56-2.6,6.26-3.58,10.2-9.04,10.68-16.22.78-11.95,1.02-23.94,1.15-35.92.17-15.87-2.24-31.61-1.81-47.56.36-13.64-.92-27.33-1.51-40.99-.06-1.44-.67-2.96-.35-4.29.99-4.26-1.7-10.97-5.59-13.28-1.46,3-2.94,6-4.36,9.03-1.7,3.63-2.29,7.27-.71,11.24,1.44,3.57,2.46,7.32,3.5,11.05,3.07,10.99,4.53,22.24,5.68,33.61,2.6,25.74-.21,50.62-9.45,74.73-1.04,2.69-1.88,5.48-3.11,8.09-1.21,2.56-2.19,2.53-4.16.61-4.7-4.57-6.55-10.71-8.27-16.67-3.82-13.15-6.39-26.58-6.3-40.43.02-3.9-.43-7.79-.72-12.46-1.29,8.39-2.21,16-3.67,23.49-1.77,8.99-3.63,18-6.21,26.77-1.11,3.75-2.35,6.66-.06,10.49,4.64,7.73,8.74,15.8,13.05,23.74.33.61.61,1.26.91,1.88-.18.17-.38.34-.56.52-1.53-1.01-3.13-1.92-4.57-3.04-3.9-3.02-7.8-6.04-11.56-9.23-1.83-1.55-3.22-1.3-4.88.16-3.19,2.8-6.47,5.51-9.76,8.19-.9.73-2.01,1.19-3.02,1.77-.21-1.68.05-2.82.47-3.88,1.96-4.9,3.63-9.96,6.03-14.63,2.54-4.96,1.91-9.57.55-14.63-2.77-10.3-5.09-20.72-7.61-31.1-.14-.57-.39-1.1-.86-2.42-.42,4.43-1.05,7.99-1.06,11.55-.02,10.16-3.18,19.68-5.67,29.31-1.55,5.97-3.59,11.83-5.76,17.6-1.36,3.62-4.29,3.89-6.46.77-1.57-2.26-3.21-4.65-4.04-7.24-2.33-7.28-4.3-14.7-6.35-22.08-.61-2.18-1.02-4.42-1.52-6.63h0ZM19.8,102c.77,1.45,1.42,2.55,1.96,3.69,2.79,6.02,5.01,12.17,4.24,19.02-.36,3.2-.05,3.6,3.05,2.93,6.6-1.43,13.19-2.96,19.75-4.57,13.8-3.38,27.6-6.77,41.37-10.26,13.78-3.49,27.53-7.13,41.29-10.69,15.18-3.93,30.36-7.84,45.54-11.78,5.41-1.4,10.82-2.77,16.17-4.35.87-.25,2.11-1.58,2.04-2.29-.29-3.06-.73-6.18-1.69-9.08-.34-1.01-2.35-2.05-3.58-2.03-2.5.05-4.99.83-7.49,1.28-10.4,1.91-20.79,3.95-31.23,5.7-28.32,4.73-56.67,9.27-84.99,14-14.5,2.42-28.96,5.07-43.43,7.64-.92.16-1.81.47-3,.79h0ZM25.94,148.37c-.17-.02-.35-.04-.51-.06-.19.59-.51,1.18-.55,1.78-.17,3.55-.4,7.11-.38,10.66.04,7.69.23,15.39.35,23.08.22,14.58.56,29.16.6,43.74.02,9.21,1.46,18.06,4.83,26.6.17.43-.27,1.12-.43,1.69-.54-.29-1.29-.43-1.56-.88-.51-.86-.75-1.9-1.38-3.63.54,7.4,4.54,12.56,9.23,14.89,7.73,3.83,15.96,6.07,24.6,6.18,11.43.14,22.87-.04,34.3.08,12.11.12,24.26,1.02,36.34.51,14.55-.6,29.06-2.25,43.57-3.69,1.96-.2,4.1-1.48,5.58-2.9,6.25-5.93,8.7-13.89,9.98-22.12.95-6.09.94-12.33,1.32-18.51.41-6.76.8-13.52,1.15-20.29.21-4.12.33-8.26.48-12.39,0-.1.05-.22,0-.29-1.14-2.23-1.57-4.52-1.31-7.1.17-1.62-.52-3.34-.95-5.71.02-.03.45-.76.95-1.61-3.91-.65-.41-2.37-.75-3.93-.79-.06-1.87-.45-2.5-.08-.46.27-.48,1.58-.44,2.41.34,6.98,1.03,13.96,1.05,20.94.05,11.49-.23,22.98-.57,34.46-.1,3.57-.41,7.24-1.37,10.65-2.8,9.96-9.24,16.97-18.13,21.74-2.33,1.25-5.21,1.82-7.06,3.57-2.85,2.71-5.78,2.77-9.16,2.1-3.33-.66-6.68-1.58-10.04-1.69-13.31-.41-26.64-.65-39.95-.68-2.53,0-5.54-1.13-7.65,1.64-.16.21-1.06-.15-1.61-.25-1.42-.28-2.83-.7-4.27-.82-4.97-.42-9.95-.94-14.92-1.03-4.56-.08-9.54-2.78-13.07,1.83-.83-1.25-1.28-2.78-2.17-3.14-5.62-2.27-11.42-4.12-17.02-6.43-4.24-1.75-8.27-4.26-9.71-8.99-2.13-7.01-4.21-14.08-5.44-21.29-1.05-6.15-1.12-12.53-1.17-18.82-.09-10.97.19-21.93.26-32.9.05-6.69.04-13.37-.04-20.06-.04-3.09-.33-6.18-.51-9.26h0ZM154.73,76.21c-.02-.25-.06-.49-.08-.74-6.11-.24-12.21-.74-18.32-.66-10.66.13-21.32.71-31.99.91-4.69.09-9.4-.59-14.09-.42-14.97.53-29.92,1.33-44.89,1.94-5.04.2-9.27,2.1-12.13,6.25-1.88,2.73-3.34,5.87-4.39,9.03-1.34,4.03-.53,4.62,3.47,3.61,3.71-.92,7.43-1.85,11.2-2.44,14.9-2.36,29.83-4.55,44.73-6.86,21.29-3.31,42.57-6.66,63.85-10.01.88-.14,1.75-.41,2.62-.62h0ZM166.02,116.44c-.28-.03-.56-.05-.84-.07-.37.53-.9,1.01-1.08,1.6-1.84,5.79-3.88,11.55-5.4,17.43-3.51,13.59-4.74,27.44-5.07,41.52-.26,11.17,1.08,22.1,2.18,33.12.26,2.56,1.09,3.81,3.97,2.9,1.59-.5,3.5-.41,5.17-.07,3.61.72,7.16,1.77,11.2,2.81,1.33-5.94,2.62-11.65,3.9-17.35-.35-.08-.69-.17-1.04-.25-.28,1.1-.59,2.2-.84,3.31-.64,2.91-1.01,5.91-1.98,8.69-.59,1.71-1.4,3.98-3.98,3.67-1.49-.17-2.95-.63-4.83-1.05.56-.71,1.16-1.2,1.4-1.85.29-.76.64-1.88.31-2.45-2.12-3.55-4.49-6.95-6.6-10.5-.5-.83-.67-2.23-.36-3.14,1.48-4.43,3.18-8.79,4.82-13.17.22-.58.59-1.1,1.16-2.14,4.05,8.29,6.03,16.35,3.71,25.61,1.98-1,3.16-1.59,4.46-2.23-1.15-.21-2.08-.38-3-.55.99-1.4,1.97-2.79,2.86-4.05-.5.06-1.31.15-2.11.25-.19-.21-.39-.42-.59-.63,1.07-1.4,2.13-2.81,3.23-4.25-1.01.29-1.98.56-2.94.84-.22-.22-.44-.44-.67-.66.95-1.38,1.89-2.76,3.07-4.48-1.2.54-2.03.9-2.85,1.27l-.67-.77c2.77-2.46,5.53-4.93,8.29-7.39-.13-.15-.25-.29-.38-.44-2.56,1.86-5.13,3.72-8.12,5.89-.31-3.32,1.73-3.93,3.23-5,1.55-1.1,3.02-2.33,4.52-3.5-.12-.16-.23-.32-.35-.48-2.72,1.85-5.45,3.7-8.17,5.55-.22-.24-.43-.49-.65-.73.29-.75.59-1.51.85-2.2-.68-.25-1.97-.52-1.97-.74.06-1.98-2.76-3.85-.3-5.94.17-.15-.1-.75-.06-1.14.08-.76.04-1.64.42-2.23.48-.74,1.32-1.24,2.58-2.34-1.56.46-2.33.69-3.92,1.16,1.27-1.51,1.98-2.36,2.74-3.27-.81-.04-1.5-.07-2.18-.11-.17-.25-.35-.5-.51-.75,1.51-1.24,3.02-2.48,4.52-3.72-.12-.11-.24-.23-.37-.33-1.05.51-2.11,1.02-3.16,1.54-.15-.19-.3-.38-.45-.57.51-.88,1.02-1.77,1.53-2.65-.26-.09-.52-.18-.79-.27.09-.73-.1-1.74.3-2.13,1.67-1.65,3.51-3.1,5.29-4.62-.11-.17-.22-.35-.34-.52-1.82,1.24-3.65,2.49-5.47,3.73-.26-.29-.52-.58-.79-.88,1.78-2,3.56-4,5.34-6-.09-.08-.17-.16-.26-.25-1.3.91-2.59,1.82-3.89,2.72-.18-.2-.36-.38-.55-.58.67-.96,1.34-1.92,2.05-2.95-.68-.1-1.18-.16-1.97-.27.93-1.51,1.67-2.72,2.62-4.25-.99.6-1.6.96-2.66,1.61.65-3.68,1.2-6.8,1.68-9.56-.1.04-.8.33-2.24.91.99-1.44,1.48-2.15,1.96-2.86-3.06-2.39.8-3.05.89-5.04-.96-1.02-1.97-2.59-3.39-3.5-2.53-1.64-3.22-3.14-2.4-5.99.28-.99-.06-2.18-.13-3.27v.03ZM66.54,200.47c.18.19.35.38.52.57,1.76-1.32,3.54-2.63,5.3-3.95.22.28.46.55.68.83-.97,3.18-4.41,4.39-6.33,7.67,2.19-1.66,3.91-2.96,5.63-4.27l.63.77c-.75.98-1.51,1.96-2.43,3.15.73-.15,1.27-.26,2.33-.47-.39,3.27-.75,6.17-1.09,9.02.13.02.64.07,1.61.16-1.12,1.49-1.97,2.61-3.16,4.17,1.24-.61,1.93-.96,2.62-1.29-1.66,2.18,1.3,5.26-1.45,6.94,1.03,2.19,2.07,4.39,3.18,6.76.42-.65.83-1.31,1.26-1.96.25.08.51.16.75.25.17,1.56.42,3.11.47,4.67.05,1.38-.13,2.75-.21,4.13.43.07.86.14,1.28.21.87-2.79,1.72-5.59,2.62-8.37,3.43-10.6,5.82-21.32,5.27-32.65-.4-8.26-.75-16.63.05-24.83.93-9.64,1.08-19.08-.79-28.59-.49-2.5-1.15-3.71-4.02-3.05-2.05.47-4.4-.39-6.46.08-1.32.31-2.42,1.91-3.45,3.09-.27.31-.11,1.34.2,1.79,2.46,3.55,5.08,7.01,7.48,10.6.49.74.62,2.07.33,2.93-1.58,4.8-3.63,9.46-4.96,14.33-1.15,4.2-3.22,7.33-6.97,9.35-.62.34-1.2.73-1.81,1.09.12.2.25.41.37.6,2.17-1.45,4.33-2.9,6.5-4.34.25.29.49.58.74.88-1.16,1.22-2.33,2.43-3.63,3.79,1.11-.36,1.96-.63,3.06-.98-.28,2.2-.58,3.97-.71,5.74-.1,1.31-.43,2.95.18,3.9,1.2,1.87.05,2.47-1.02,3.37-1.55,1.3-3.07,2.62-4.61,3.93h.02ZM266.42,55.46c-.26.03-.53.06-.79.09.6,1.63.81,3.61,1.87,4.81,6.51,7.42,14.25,13.32,22.81,18.07.75.42,1.81.27,2.72.38.12-1.03.52-2.13.32-3.09-.7-3.31-1.52-6.6-2.44-9.86-2.13-7.57-4.5-15.07-6.45-22.68-1.69-6.63-2.9-13.39-4.44-20.06-.29-1.24-1.18-2.35-1.79-3.51-1.22.84-2.48,1.63-3.63,2.55-.43.34-.64,1-.87,1.55-4.16,10.16-8.34,20.3-7.3,31.75h0ZM150.18,171.66c.15-.85.35-1.7.44-2.57,2.05-17.77,4.38-35.45,11.11-52.19.6-1.5.59-3.61.07-5.15-1.39-4.04-3.11-7.98-4.94-11.84-.39-.81-1.92-1.75-2.67-1.57-6.06,1.49-12.06,3.24-18.34,4.98,11.93,21.47,12.91,44.91,14.34,68.33h0ZM285.08,22.99c-.27.05-.55.11-.83.16-.11.25-.35.52-.32.75.51,3.45.88,6.93,1.64,10.32,2.52,11.19,5.04,22.38,7.89,33.5.95,3.69,2.97,7.08,4.28,10.69.3.83.04,2.36-.55,2.95-2.3,2.32-4.26,2.23-8.11-.66-7.38-5.56-14.74-11.19-21.85-17.09-1.66-1.37-3.39-4.02-3.3-5.99.31-6.35.94-12.78,2.42-18.95,1.56-6.46,4.24-12.64,6.43-18.94,1.21-3.49,4.29-4.96,7.78-3.72.59.21,1.21.36,1.89.56.11-.52.27-.83.2-1.08-.93-4.04-4.41-4.95-7.89-1.73-4.52,4.17-7.64,9.41-9.01,15.49-1.6,7.1-2.82,14.27-4.17,21.43-.88,4.71-2.86,8.54-7.73,9.98-3.28.97-6.66,1.62-9.89,2.73-6.43,2.2-13.3,3.31-18.89,7.72-.53.42-1.73-.05-2.25-.08-2.46.56-4.68,1.07-6.91,1.58-.86-.11-1.57.5-2.38.84-1.04.43-2.18.65-3.27.98-.72.22-1.42.53-2.15.74-1.56.44-3.13.83-4.69,1.24.09.34.17.66.26,1,1.36-.32,2.71-.61,4.06-.97,16.55-4.5,33.09-9,49.63-13.52,3.92-1.07,6.57.03,9.15,3.49,7.72,10.34,17.3,17.85,30.12,20.4,2.49.5,4.4-.68,4.65-3.17.1-1.06-.13-2.19-.42-3.24-2.13-7.88-4.32-15.75-6.48-23.61-.63-2.31-1.27-4.61-1.9-6.92-1.8-6.53-3.6-13.05-5.41-19.58-.67-2.44-1.33-4.87-2-7.31v.02ZM116.84,159.14c-1.09-18.13,5.34-35.33,10.25-53.43-5.29,1.59-9.78,2.96-14.28,4.26-3.52,1.01-7.18,7.77-6.19,11.41,3.46,12.68,6.87,25.36,10.22,37.76h0ZM89,147.45c2.24-7.23,4.98-14.81,6.76-22.61.63-2.75-1.06-6.07-1.78-9.11-.07-.32-.8-.77-1.13-.7-4.12.9-8.23,1.89-11.88,2.75,2.84,10.5,5.5,20.35,8.03,29.68h0ZM195.05,95.28c-.48-.18-.96-.36-1.44-.55-2.54,3.31-5.06,6.64-7.6,9.95l.81.76c1.45-1.39,2.9-2.78,4.36-4.17.28.29.57.58.85.87-1.09,1.32-2.13,2.68-3.28,3.94-2.06,2.24-2.12,2.28-1.34,4.36,1.24-1.28,2.46-2.54,4.16-4.3-.59,3.65-1.03,6.29-1.46,8.93.17.02.34.03.5.04v3.9c.89-.25,1.87-.53,2.74-.78.58-7.81,1.14-15.38,1.71-22.96ZM192.27,140.22c-2.85-4.83-.26-9.08,2.13-13.35-.35-.11-.69-.21-1.04-.31l-2.99,4.26c-1.17-4.26,4.39-6.41,2.84-10.93-6.5,4.97-8.79,16.86-4.96,25.23,1.36-1.66,2.66-3.23,4.02-4.89ZM109.33,199.26c-.32-.34-.63-.67-.95-1.01,2-1.97,4-3.94,5.99-5.92l-.45-.47c-1.85,1.4-3.69,2.79-5.54,4.19-.2-.25-.39-.49-.59-.74,1.27-4.17,6.52-4.66,8.34-9-3.2,2.46-6.04,4.63-8.89,6.82-.22-.28-.44-.56-.66-.83,1.64-3.66,6.11-4.58,7.87-8.19-3.02,2.27-6.04,4.52-9.35,7.01,3.47,7.76,4.85,16.05,1.56,25.3,1.47-1.93,2.42-3.17,3.31-4.34-2.78-3.5,2.27-3.73,2.42-6.1-.83.46-1.62.89-2.41,1.32-.26-.2-.53-.4-.79-.6,1.11-1.76,2.22-3.52,3.59-5.68-1.32,1-2.2,1.67-3.07,2.34-.24-.23-.48-.45-.71-.68.72-3.81,5.03-5.14,6.28-8.63-1.98,1.74-3.96,3.47-5.94,5.21l.02-.02ZM86.83,264.62c.15-.22.3-.44.45-.66-2.89-2.3-5.77-4.61-8.67-6.88-.26-.2-.87-.32-1.09-.15-2.4,1.72-4.76,3.49-7.13,5.26.13.41.26.81.39,1.22,5.35.4,10.7.81,16.05,1.21ZM66.37,153.71c-.46.23-.91.46-1.37.7,3.87,1.2,1.47,2.82.95,4.19,2.23,2.06,2.21,2.21.05,4.12-1.85,1.63-3.67,3.29-5.5,4.94.21.21.42.41.63.61,2.5-1.1,3.38-4.88,7.27-4-2.6,2.37-5.2,4.73-7.8,7.1.12.13.25.25.37.38,2.48-1.77,4.96-3.54,7.71-5.49.67,2.49,1.16,4.29,1.9,7.01.3-1.5.77-2.43.6-3.22-1.04-4.93-2.2-9.85-3.42-14.73-.15-.62-.93-1.08-1.41-1.61h.02ZM104.64,209.09c-.39.22-.79.44-1.19.65l-3.99-5.56c-.18.14-.36.29-.54.43,1.96,2.95,3.91,5.91,5.86,8.86.31-.15.63-.3.95-.45,1.87-6.25-.1-12.05-2.32-17.83.59,3.25,1.17,6.5,1.76,9.75-.31.08-.63.16-.93.24l-3.02-4.66c-.1.07-.2.12-.3.19,1.24,2.79,2.48,5.58,3.72,8.37h0ZM109.5,230.6c-2.7-7.27-8.55-5.34-14.07-5.38.88-.65,1.76-1.32,3.04-2.28-4.12,1.08-5.45,2.41-5.1,4.71,5.83-1.65,11,.36,16.13,2.95ZM125.6,123.41c-.24.22-.49.45-.73.67.76,1.13,1.29,2.87,2.33,3.27,2.95,1.15,6.06,2.14,9.35,1.07.82-.27,1.72-.25,2.56-.45.89-.21,1.76-.53,2.64-.8-.56-.76-1.13-1.53-1.31-1.77-1.56.69-2.46,1.39-3.35,1.4-1.53.02-3.13-.22-4.59-.69-2.34-.75-4.6-1.78-6.9-2.7h0ZM133.87,234.03c-1.7,5.37-3.11,9.85-4.53,14.33.21.16.42.31.63.47,3.31-1.92,4.04-6.09,6.4-9.11-.64-1.46-1.42-3.23-2.5-5.68h0ZM172.52,95.11c-3.62,1.87-5.35,4.61-6.09,7.6-.55,2.22-2.01,5.11.99,7.35,1.66-4.87,3.24-9.51,5.1-14.96h0ZM71.55,257.42c3.35-2.27,5.1-4.98,6.15-8.23.65.35,1.09.59,1.97,1.06-1.13-2.68-2.07-4.89-3.34-7.9-1.71,5.39-3.13,9.89-4.77,15.07ZM168.19,187.82c.41,2.83.83,5.67,1.24,8.5-.23.07-.46.15-.69.22-.69-1.31-1.39-2.63-2.08-3.94-.1.07-.2.13-.3.2.71,2.32,1.4,4.63,2.11,6.95-.22.11-.45.23-.68.34-.93-1.22-1.87-2.44-2.8-3.66-.18.14-.35.28-.53.41,1.53,2.59,3.06,5.19,4.72,8,2.24-3.56,1.76-11.1-.97-17.02h0ZM159.26,229.57c.32.09.64.18.97.26,1.39-1.15,2.69-3.06,4.2-3.25,2.01-.25,4.17.84,6.27,1.33.59.14,1.19.18,1.78.27-.14-.6-.1-1.35-.44-1.75-.56-.65-1.32-1.32-2.12-1.52-1.39-.35-2.86-.4-4.29-.48-1.53-.09-3.71-.72-4.46.05-1.15,1.16-1.32,3.34-1.91,5.08h0ZM66.73,131.79c-.09.29-.18.59-.27.89.72.43,1.85.7,2.1,1.34,1.61,4.04,4.88,3.1,7.93,3.01,1.53-.04,3.07.3,4.61.28.57,0,1.22-.47,1.66-.9.26-.27.42-1.11.23-1.29-.34-.33-1.06-.63-1.44-.47-4.01,1.55-7.66.32-11.28-1.37-1.16-.54-2.36-.99-3.55-1.47v-.02ZM173.54,221.8c-.81-1.62-1.21-3.74-2.1-3.98-2.74-.74-5.66-.74-8.51-1.06-1.05-.12-2.09-.39-3.14-.43-.55-.02-1.34.16-1.61.56-.3.43-.35,1.33-.09,1.78.17.3,1.07.32,1.61.25,1.44-.16,2.99-.93,4.28-.58,3.06.81,5.99,2.12,9.55,3.45h0ZM130.51,157.83v-12.33l.91-.14c1.09,1.42,2.17,2.83,3.26,4.24.18-.13.37-.27.55-.4-1.76-2.86-3.51-5.72-5.26-8.58-.27.06-.55.11-.81.16-1.62,5.72.18,11.24,1.35,17.05ZM13.26,122.6c-.35.21-.71.42-1.07.63.79.42,1.92,1.42,2.3,1.18.99-.63,2.19-1.71,2.37-2.77.51-3-.49-5.7-2.24-8.04-.34.04-.67.08-1.01.13-.12,2.96-.24,5.92-.35,8.88h0ZM170.69,232.94c.15-2.95-.97-4.44-3.23-4.61-2.44-.17-4.03,1.19-4.07,3.52-.05,2.6,1.98,5.1,4.28,5.08,2.78-.02,2.57-2.43,3.02-3.99h0ZM188.97,152.02c-1.71.82-2.41,12.19-.52,17.21.42-.51,1-.88,1.08-1.36.31-1.63.48-3.29.67-4.94.04-.36-.1-.73-.14-1.1-.36-3.25-.72-6.49-1.09-9.8h0ZM135.52,113.03c0-2.42-1.97-4.53-4.16-4.44-2.91.1-3.08,2.33-3.14,4.44-.07,2.41.99,4,3.62,4.04,2.27.02,3.69-1.52,3.69-4.02h0ZM131.1,118.98c3.47,3.08,5.48,3.31,7.66,1.29,1.76-1.63,1.89-4.22.07-6.97-1.09,3.82-3.09,6.38-7.73,5.68ZM18.47,124.15c-1.83,1.48-3.31,2.68-5.38,4.35,1.2.75,2.37,2.09,3.18,1.89,2.97-.7,4.46-3.27,5.66-6.01-.92.76-1.85,1.52-2.98,2.46-.18-1.01-.3-1.65-.48-2.69h0ZM125.68,130.97c-1.52-.18-2.53.13-3.15,2.77-1.37,5.86-2.26,11.83-3.35,17.76,1.85-5.45,3-11.03,4.37-16.56.35-1.41,1.38-2.63,2.12-3.98h0ZM106.59,240.7c0-2.46-1.48-3.69-4.32-3.64-2.05.03-3.59,1.75-3.51,3.92.08,2.2,2.32,4.43,4.41,4.4,2.14-.03,3.43-1.79,3.42-4.68ZM73.29,127.83c1.92,1.52,3.91,2.88,5.97,1.33,1.91-1.44,1.78-3.67.92-6.48-1.48,3.48-3.57,5.16-6.89,5.15ZM184.86,101.57c.4.25.8.5,1.2.75,2.46-3.5,4.92-7.01,7.38-10.52-.32-.23-.65-.45-.97-.68-2.17,3.74-6.54,5.92-7.6,10.45h0ZM95.37,240.34c1.48-4.07,3.63-6.01,7.32-6.14-2.13-.76-4.52-1.62-6.12-.83-2.18,1.08-1.77,3.76-1.2,6.97h0ZM72.85,165.21c-.05-.38-.05-.78-.16-1.14-1.28-3.86-1.4-7.7-.21-11.63.26-.87-.18-1.96-.3-2.95l-1.26.16c-1.63,5.35.21,10.46,1.93,15.56ZM64.63,138.51c-.71,2.59-1.44,4.89-1.97,7.23-.51,2.3-.8,4.65-1.2,6.98,2.29-7.68,4.42-12.16,6.39-13.42-1.15-.28-2.18-.53-3.24-.79h0ZM102.78,112.54c-2.26.52-3.71.85-5.09,1.17,1.12,1.92,2.11,3.61,3.49,5.97.59-2.64,1.01-4.5,1.6-7.14h0ZM12.57,107.43c-.61-.07-1.22-.15-1.83-.22-.27,3.98-.54,7.95-.81,11.93.18,0,.34-.03.52-.03.71-3.9,1.41-7.78,2.12-11.68ZM69.15,120.81c.83,1.61,1.16,3.14,2.05,3.69.99.61,2.97.92,3.67.32,1.09-.93,1.48-2.73,2.28-4.43-1.59,1.44-2.58,3-3.82,3.24-.9.18-2.13-1.36-4.19-2.83h0ZM85.78,257.31c.29-.12.58-.24.87-.36-2.29-4.48-4.58-8.97-6.87-13.45-.23.12-.47.25-.71.38,2.23,4.48,4.47,8.96,6.7,13.44h0ZM126.4,117.06c-.25.42-.49.84-.74,1.24,2.29,1.39,4.56,2.78,6.85,4.17.17-.28.33-.56.5-.84-2.93-.39-3.23-4.9-6.61-4.59h0ZM66.32,126.24c2.54,1.55,4.46,2.72,6.38,3.89-1.8-1.46-1.96-5.65-6.38-3.89ZM108.64,236.87c.19-.35.39-.7.59-1.05-1.79-1.15-3.59-2.29-5.38-3.44,1.75,1.3,1.74,5.16,4.8,4.49h0ZM71.28,252.2c-.22-.07-.43-.13-.65-.2-1.38,3.03-2.75,6.06-4.13,9.09.26.12.54.25.8.37,1.32-3.09,2.65-6.17,3.97-9.26h0ZM141.74,244.3c.27-.19.55-.38.83-.56-1.75-2.87-3.5-5.73-5.25-8.59-.18.11-.38.23-.56.34,1.66,2.94,3.32,5.88,4.99,8.81h0ZM187.71,149.08c.27.19.54.37.83.56l4.28-6.41c-.26-.18-.52-.35-.78-.53-1.44,2.13-2.88,4.26-4.32,6.38h0ZM173.81,175.12c.21.26.43.53.63.79,1.74-1.27,3.48-2.54,5.22-3.81-.16-.21-.31-.43-.47-.64-1.8,1.21-3.59,2.43-5.38,3.64h0ZM128.76,243.7c-.24-.11-.48-.22-.72-.33l-2.39,6.53c.26.1.51.2.77.29.78-2.17,1.56-4.33,2.34-6.5Z"/>
</svg>