<?xml version="1.0" encoding="UTF-8"?>
<svg id="Layer_1" data-name="Layer 1" xmlns="http://www.w3.org/2000/svg" viewBox="0 0 245.02 249.65">
  <defs>
    <style>
      .cls-1 {
        fill: #537959;
        stroke-width: 0px;
      }
    </style>
  </defs>
  <path class="cls-1" d="M109.84,242.33c-18.23-.03-31.42-.65-43.46-5.32-13.91-5.4-25.78-12.78-18.28-31.99,2.76-7.08,5.24-14.31,8.79-21.06,4.12-7.85,10.19-14.34,18.78-18.82,3.93-2.05,7.46-5.17,10.33-8.43,5.55-6.32,13.05-9.97,20.37-14,11.41-6.29,23.72-10,36.95-11.48,2.71-.3,5.62-1.81,7.72-3.51,5.48-4.43,12.2-5.21,18.89-6.11,7.26-.97,14.61-2.51,21.85-2.25,11.97.43,23.74,2.42,32.58,11.1,4.55,4.47,8.66,9.05,10.96,15.01,4.25,11.02,2.68,21.5-2.34,31.83-7.84,16.16-22.64,25.32-39.14,33-9.56,4.45-18.57,9.87-27.95,14.65-5.93,3.02-12.18,5.5-18.11,8.51-13.44,6.82-28.02,8.8-37.93,8.88h0ZM185.16,125.71c.79.97,1.04,1.51,1.48,1.79,8.7,5.61,11.67,13.26,9.4,22.61-.36,1.48-1.58,3.33-2.95,3.88-.89.36-3.18-1.04-4.11-2.16-7.57-9.01-17.82-13.55-29.85-14.79-17.15-1.76-32.99,2.56-48.12,9.53-1.35.63-2.5,1.61-4.66,3.04,1.92,0,2.69.19,3.31-.02,10.9-3.68,20.58-1.37,30.17,4.14,8.26,4.75,13.69,11.32,17.65,19.12.62,1.21.44,3.9-.35,4.3-1.33.68-3.63.49-5.18-.1-2.14-.81-4.3-2.04-5.85-3.58-9.28-9.24-22.05-10.52-34.31-11.93-10.62-1.22-20.21,4.12-30.15,6.91-2.74.77-5.5,2.16-7.66,3.89-12.96,10.38-18.95,24-21.77,39.2-1.41,7.6,1.59,13.4,8.6,16.54,8.12,3.63,16.76,7.51,25.53,8.42,16.41,1.71,33.28,3.4,49.19-3.35,6.28-2.67,12.72-5.12,18.73-8.24,9.19-4.79,18.02-10.17,27.11-15.12,11.75-6.39,24.32-11.37,35.13-19.39,19.44-14.42,18.99-35.73,8.41-51.35-8.21-12.11-22.31-13.99-36.53-14.53-.88-.03-1.79.65-3.2,1.2v-.02ZM163.5,130.95c9.04,4.66,19.97,4.72,25.68,13.55,2.31-5.64-.09-10.25-6.9-15.04-3.95-2.78-12.04-2.43-18.78,1.48h0ZM144.63,166.3c-7.17-15.09-31.66-15.87-38.04-8.43,13.8-.25,27.26-.92,38.04,8.43Z"/>
  <path class="cls-1" d="M68.82,31.29c1.67-.34,3.33-.93,5.01-.98,3.36-.1,7.1-.75,10.06.3,13.78,4.9,18.48,15.88,12.55,28.44-1.64,3.47-3.6,6.84-5.65,10.13-2.13,3.41-2.21,6.17.54,9.64,7.24,9.12,7.79,19.57,4.72,30.02-4.17,14.22-13.55,23.29-30.2,26.3-10.04,1.82-19.23.78-28.65-1.54-16.69-4.1-26.77-22.4-25.05-38.07,1.47-13.47,8.75-23.5,21.74-29.71,5.96-2.85,8.18-7.06,8.02-12.85-.18-6.11-.41-12.23-.41-18.34,0-3.01-1.12-4.95-4.4-5.67-.57-.12-1.25-.3-1.6-.68-1.62-1.76-4.6-3.79-4.34-5.34.33-2.02,2.92-4.26,5.15-5.33,2.34-1.12,4.33-1.5,4.36-4.58,0-1.05,2.58-3.04,3.85-2.97,6.7.43,13.89.26,19.84,2.6,3.72,1.47,5.76,6.89,8.04,10.8.5.85-1.1,2.86-1.97,4.2-.6.93-1.6,1.64-2.42,2.45.27.39.54.78.8,1.17h0ZM26.09,120.6c.99.9,1.99,1.8,2.97,2.71,3.84,5.04,7.98,9.58,15.56,9.62,5.6.04,11.22.73,16.8.49,7.81-.33,15.42-2.08,21.19-7.23,7.46-6.66,11.62-14.94,12.29-24.6.49-7.04-.29-13.62-6.11-19.07-5.27-4.94-9.42-11.15-15.37-15.16-5.97-4.02-8.34-8.37-7.65-14.73.11-1-.14-2.03-.23-3.31-3.09,1.48-5.65,3.47-8.47,3.83-3.45.43-7.11-.5-10.67-.85.04-.44.09-.89.14-1.34.57-.31,1.14-.62,1.7-.93-1.41-.13-2.81-.26-4.55-.43-.35,6.16,1.02,12.6-5.7,16.68,2.97-.85,5.54-2.28,8.24-2.54,3-.29,6.13.44,9.19.82,3.09.39,6.16.9,9.24,1.35l.03,1.1c-16.41-2.28-31.15-.08-41.79,13.06-.5-.85-.79-1.34-1.1-1.86-7.95,8-9.37,24.7-3.41,34.94-.74-4.45-1.56-9.44-2.39-14.43.53-.1,1.07-.19,1.61-.3,1.05,8,2.3,15.92,8.47,22.17h0ZM68.03,52.2c.14,2.17.05,4.37.47,6.49.65,3.29,2.59,6.12,6.36,6.49,2.34.23,5.62-.3,7.13-1.7,4.68-4.37,6.54-9.95,5.17-16.09-1-4.46-9.29-7.59-13.87-6.01-6.08,2.1-5.24,6.51-5.26,10.83h0ZM87.68,71.24c2.97-6.39,6.43-11.86,8.06-17.76,3.03-10.92-2.63-19.49-13.14-21.19-2.86-.47-5.9-.41-8.81-.14-5.5.51-7.08,3.57-4.68,8.48,4.89-5.08,9.7-5.89,15.93-2.69,6.53,3.36,9.26,12.37,5.75,19.42-.95,1.93-2.04,3.95-3.62,5.41-1.72,1.59-4.09,2.59-6.68,4.16,2.55,1.52,4.24,2.53,7.2,4.3h0ZM64.45,36.36c.74,2.03,1.08,2.97,1.46,4.02.07-4.29-2.23-6.29-6.88-6-.74.05-1.48.1-2.21.05-4.33-.26-8.67-.56-12.98-.84-1.03,7.55,2.17,11.29,9.62,11.22,5.81-.06,9.48-2.88,10.99-8.44ZM40.37,19.7c-.11-.31-.22-.62-.33-.93-1.6.73-3.25,1.37-4.79,2.2-2.71,1.47-2.59,3.08-.05,4.63,5.04,3.1,11.62,2.46,16.66,6.52,2.3,1.85,7.83.32,11.9.32,0-.27,0-.54,0-.82h-5.7c-.04-.19-.08-.38-.13-.57,3.64-1.47,7.29-2.94,10.93-4.41-.08-.11-.18-.21-.26-.32-3.24.84-6.49,1.69-9.73,2.52-.14-.42-.28-.85-.42-1.27,2.03-.61,4.18-1.01,6.04-1.92,1.59-.78,2.84-2.14,4.23-3.24-.29-.26-.57-.52-.86-.78-9.94,7.44-20.39,1.65-32.03,1.3,2.21-1.56,3.38-2.39,4.55-3.22h0ZM42.85,14.49c.38,6.84.32,7.32,3.34,7.74,4.75.65,9.62.96,14.42.81,3.84-.12,5.22-2.5,4-6.17-7.37,1.09-14.82,3.07-21.76-2.37ZM62.97,15.62c.14-.58.26-1.17.4-1.76-5.93-2.1-12.02-2.93-18.31-1.96-.07.54-.14,1.06-.2,1.6,6.04.71,12.08,1.41,18.12,2.11h0ZM62.26,47.93c0-.28,0-.56-.02-.84h-13.99c0,.28.02.56.03.84h13.98Z"/>
</svg>