<?xml version="1.0" encoding="UTF-8"?>
<svg id="Layer_1" data-name="Layer 1" xmlns="http://www.w3.org/2000/svg" viewBox="0 0 306.42 256.68">
  <defs>
    <style>
      .cls-1 {
        fill: none;
        stroke: #618866;
        stroke-linecap: round;
        stroke-linejoin: round;
        stroke-width: 2px;
      }

      .cls-2 {
        fill: #618866;
        stroke-width: 0px;
      }
    </style>
  </defs>
  <path class="cls-1" d="M174.15,158.14c-6.37,6.43-10.41,14.04-12.53,22.55-1.21,4.86-1.51,9.87-1.01,14.8,1.01,9.96,4.66,19.04,11.46,26.83,7.68,8.79,17.65,14.19,29.09,17.51,4.54,1.32,9.15,2.22,13.81,2.84,2.05.27,4.17.36,6.26.46,2.86.13,5.7,0,8.55-.09,6.97-.23,13.77-1.46,20.22-3.96,11.19-4.35,20.07-11.41,26.31-21.22,3.25-5.1,5.28-10.67,6.38-16.59.74-3.97.8-7.92.55-11.86-.33-5.36-1.91-10.54-4.15-15.46-3.16-6.92-7.75-12.94-13.93-17.77-3.92-3.07-8.24-5.6-13.25-6.73-4.2-.95-8.43-1.01-12.37,1.12"/>
  <path class="cls-1" d="M224.9,186.29c1.16-3.54.53-7.13.32-10.69-.16-2.6-.77-5.16-1.89-7.57-1.4-3.01-3.62-5.35-7.15-5.87-3.46-.51-6.88.08-9.93,1.92-5.34,3.22-8.32,8.07-10.46,13.5-1.32,3.34-1.6,6.9-2.24,10.37-.09.51.2,1.09.32,1.64"/>
  <path class="cls-1" d="M208.51,155.51c-1.61-.42-2.74-1.62-4.19-2.31-5.6-2.66-11.57-3.78-17.78-3.25-5.5.47-10.57,2.34-15.16,5.25-.38.24-.95.51-.89,1.13"/>
  <path class="cls-1" d="M257.69,142.67c-2.49-.8-5.11-1.06-7.67-.93-4.74.23-9.36,1.08-13.8,2.87-4.47,1.8-8.37,4.26-11.67,7.6-.22.22-.57.34-.86.5"/>
  <path class="cls-1" d="M193.33,187.93c-1.37-1.27-1.44-3.04-1.68-4.62-.68-4.46-.23-8.82,1.83-13.01,2.18-4.43,5.46-7.83,9.96-10.2.32-.17.79-.2.92-.82-2.47-1.85-5.42-2.89-8.43-3.77-4.6-1.33-9.35-1.57-14.12-1.31-2.97.16-5.88.83-8.71,1.65-2.01.58-4.12,1.06-5.76,2.44"/>
  <path class="cls-1" d="M260.83,143.16c-11.69.34-22.26,3.77-31.74,10.21-.2.13-.35.33-.53.49"/>
  <path class="cls-1" d="M251.06,163.24c-1.4-.47-2.14-1.72-3.27-2.52-4.49-3.18-9.44-4.57-15.04-4.27-2.32.12-4.5.56-6.62,1.36-1.6.6-1.97,1.09-1.37,2.46,1.12,2.55,1.88,5.19,2.21,7.91.3,2.51.77,4.98.3,7.58-.4,2.18-.32,4.44-1.14,6.57"/>
  <path class="cls-1" d="M217.05,130.33c-.35,1.3.25,2.56.46,3.77.32,1.82.33,3.66.48,5.46.3,3.78.36,7.58.85,11.34.22,1.7.47,3.4.65,5.11"/>
  <path class="cls-1" d="M216.7,130.98c-2.11,2.58-2.82,5.72-3.82,8.73-.8,2.4-1.03,4.92-1.4,7.4-.05.37-.1.7-.36.98"/>
  <path class="cls-1" d="M233.97,139.71c-1.61-.69-3.09.16-4.32.73-4.97,2.3-8.59,5.8-9.81,11.12-.03.13-.22.22-.34.33"/>
  <path class="cls-1" d="M238.15,151.06c.88-.66,1.34.29,1.9.53,4.18,1.78,7.65,4.38,9.94,8.2.67,1.11,1.64,2.14,1.28,3.62-.07.29.23.89.83.98"/>
  <path class="cls-1" d="M235.71,139.38c-.83-.02-1.45.33-2.11.81-3,2.18-5.78,4.56-7.82,7.59-1.1,1.63-2.19,3.27-2.47,5.26-.06.44-.24.88-.68,1.15"/>
  <path class="cls-1" d="M200.48,142.83c1.58,1.79,3.54,3.28,4.87,5.27,1.57,2.35,2.98,4.78,3.48,7.57.05.29.16.48.37.65"/>
  <path class="cls-1" d="M212.52,156.33c-.03-2.29-.56-4.52-1.04-6.75-.45-2.11-2.05-3.39-3.69-4.58-2.18-1.6-4.55-2.78-7.49-2.34-.26.04-.58-.2-.87-.31"/>
  <path class="cls-1" d="M45.15,126.14c-6.37,6.43-10.41,14.04-12.53,22.56-1.21,4.86-1.51,9.87-1.01,14.8,1,9.96,4.66,19.04,11.46,26.83,7.68,8.79,17.65,14.19,29.09,17.51,4.54,1.32,9.15,2.22,13.81,2.84,2.05.27,4.17.36,6.26.46,2.86.13,5.7,0,8.55-.09,6.97-.23,13.77-1.46,20.22-3.96,11.19-4.35,20.07-11.41,26.31-21.22,3.25-5.1,5.28-10.67,6.38-16.59.74-3.97.8-7.92.55-11.86-.33-5.36-1.91-10.54-4.15-15.46-3.16-6.92-7.75-12.94-13.93-17.77-3.92-3.07-8.24-5.6-13.25-6.73-4.2-.95-8.43-1.01-12.37,1.12"/>
  <path class="cls-1" d="M95.9,154.29c1.16-3.54.53-7.13.32-10.69-.16-2.6-.77-5.16-1.89-7.57-1.4-3.01-3.62-5.35-7.15-5.87-3.46-.51-6.88.08-9.93,1.92-5.34,3.22-8.32,8.07-10.46,13.5-1.32,3.34-1.6,6.9-2.24,10.37-.09.51.2,1.09.32,1.64"/>
  <path class="cls-1" d="M79.51,123.51c-1.61-.42-2.74-1.62-4.19-2.3-5.61-2.66-11.57-3.79-17.78-3.25-5.5.47-10.57,2.34-15.16,5.25-.38.24-.95.51-.89,1.13"/>
  <path class="cls-1" d="M128.69,110.67c-2.49-.8-5.11-1.06-7.67-.93-4.74.23-9.36,1.08-13.8,2.87-4.47,1.8-8.37,4.26-11.67,7.6-.22.22-.57.34-.86.5"/>
  <path class="cls-1" d="M64.33,155.93c-1.37-1.27-1.44-3.04-1.68-4.62-.68-4.46-.23-8.82,1.83-13.01,2.18-4.43,5.46-7.83,9.97-10.2.32-.17.78-.2.92-.82-2.47-1.85-5.42-2.89-8.43-3.77-4.6-1.33-9.35-1.57-14.12-1.31-2.97.16-5.88.83-8.71,1.65-2.01.58-4.12,1.06-5.77,2.44"/>
  <path class="cls-1" d="M131.83,111.16c-11.69.34-22.26,3.77-31.74,10.21-.2.14-.35.33-.53.49"/>
  <path class="cls-1" d="M122.06,131.24c-1.4-.47-2.14-1.71-3.28-2.52-4.49-3.18-9.44-4.57-15.04-4.27-2.32.12-4.5.56-6.62,1.36-1.6.6-1.97,1.09-1.37,2.46,1.12,2.55,1.88,5.19,2.2,7.91.3,2.5.77,4.98.3,7.58-.4,2.18-.32,4.44-1.14,6.57"/>
  <path class="cls-1" d="M88.05,98.33c-.35,1.3.25,2.56.46,3.77.32,1.82.33,3.66.48,5.46.3,3.78.36,7.58.85,11.34.22,1.7.47,3.4.65,5.11"/>
  <path class="cls-1" d="M87.7,98.98c-2.11,2.58-2.82,5.72-3.82,8.73-.8,2.4-1.03,4.92-1.4,7.4-.05.37-.1.7-.36.98"/>
  <path class="cls-1" d="M104.97,107.71c-1.61-.69-3.09.15-4.33.73-4.97,2.3-8.59,5.8-9.81,11.12-.03.13-.22.22-.34.33"/>
  <path class="cls-1" d="M109.15,119.06c.88-.66,1.34.29,1.9.53,4.18,1.78,7.65,4.38,9.94,8.2.67,1.11,1.64,2.14,1.28,3.62-.07.29.23.89.83.98"/>
  <path class="cls-1" d="M106.71,107.38c-.83-.02-1.45.33-2.11.81-3,2.18-5.78,4.56-7.82,7.59-1.1,1.63-2.19,3.27-2.47,5.26-.06.44-.24.88-.68,1.15"/>
  <path class="cls-1" d="M71.48,110.83c1.58,1.79,3.54,3.28,4.87,5.27,1.57,2.35,2.98,4.78,3.48,7.57.05.29.16.48.37.65"/>
  <path class="cls-1" d="M83.52,124.33c-.03-2.29-.56-4.52-1.04-6.75-.45-2.11-2.05-3.39-3.69-4.59-2.18-1.6-4.56-2.78-7.49-2.34-.27.04-.58-.2-.87-.31"/>
  <path class="cls-2" d="M238.67,49.41c5.28-2.08,10.57-2.12,15.69-3.09,1.18-.22,2.64-1.08,3.53.16.72,1,0,2.41-.63,3.33-2.81,4.1-1.26,8.96-2.18,13.37-.36,1.73,1.04,1.9,2.2,1.87,9.69-.28,17.21,5.36,25.05,10.15,1.47.9,1.27,1.74.15,2.72-2.03,1.78-4.84,3.15-5.92,5.43-2.26,4.79-6.42,6.3-10.36,8.4-1.63.86-1.49,1.99-.94,3.62,4.7,13.9-1.17,27.5-14.04,33.19-13.31,5.87-26.78,4.57-40.28,1.2-2.01-.5-3.62-.39-5.4.43-11.8,5.45-24.05,7.44-36.83,5.29-6.99-1.18-12.79-4.55-17.21-10.45-1.51-2.02-2.29-4.36-3.06-6.78-.76-2.39.97-5.7-1.12-7.03-1.65-1.04-4.37-.1-6.62-.2-20.13-.86-32.73-18.62-32.29-39.04.35-16.15,6.55-29.7,18.98-39.38,7.26-5.65,15.64-8.66,24.75-9.79,17.36-2.16,32.82,3.16,47.19,12.73,4.37,2.91,7.78,7.13,12.99,1.18,1.26-1.44,4.09-2.3,6.25-3.23,5.15-2.22,10.69-2.82,16.16-3.55.74-.1,1.5.06,2.25.1,2.48.1,5.84-1.34,7.24.53,1.79,2.38-1.93,4.2-2.59,6.61-1.08,3.99-.57,8.37-2.96,12.25h0ZM236.49,47.72c3.24-4.14,1.82-10.07,4.97-14.31.78-1.04-.47-1.55-1.41-1.57-8.34-.18-16.52.45-23.68,5.74-1.13.84-2.25,1.47-3.67,1.8-4.07.94-5.24,3.75-3.42,7.55,1.84,3.85,2.63,7.99,3.04,12.24.13,1.31.04,2.75,1.09,3.94,2.32-4.1,2.84-8.17,2.39-12.53-.37-3.57.43-6.92,2.41-9.88-.27,3.52-1.15,6.92-.17,10.61,3.81-3.64,3.67-8.78,5.34-13.31,1.13,1.34-.2,2.7.85,3.6,3.97-3.87,7-5.87,9.09-5.99-1.52,2.1-4.32,2.81-5.22,5.74,4.16-.16,6.94-3.07,10.88-5.28-1.98,4.34-5.05,6.1-8.2,6.77-8.14,1.74-9.78,8.71-12.5,15.54,5.39-1.2,9.22-4.65,13.64-6.73-3.2,4.41-8.09,6.14-12.49,8.54-2.86,1.56-4.1,3.79-4.71,7.28,5.09-1.87,9.58-4.06,14.37-6.91-.24,2.25-1.12,2.58-1.89,2.98-4.28,2.22-8.55,4.45-12.85,6.59-1.38.69-2.75,1.33-3.56,2.77-.3.54-.78,1.26-.65,1.71.29.98,1.24.66,1.93.51,4.06-.9,8.15-1.51,12.31-1.41,1.98.05,2.96-1.32,3.39-3.1.24-1.01.11-2.14.79-3,4.55-5.79,5.23-13.29,7.91-19.91v.02ZM254.58,113.79c-.19.97-.63,1.71-1.58,2.04-9.65,3.3-19.22,7.34-29.55,6.81-3.38-.18-5.73.97-8.2,2.73-.69.49-1.76.8-1.49,2,.25,1.07,1.24,1.21,2.1,1.34,12.23,1.79,24.36,3.15,36.12-2.82,8.69-4.42,13.62-13.86,11.84-24.39-2.39,4.96-3.49,10.7-9.29,12.32,2.04-4.06,5.2-7.36,6.55-11.97,2.03-6.89.8-11.1-5.12-14.78-5.41-3.36-11.34-4.89-17.51-5.62-2.51-.29-3.56.64-2.76,3.43,1.4,4.9.63,9.51-1.06,14.33-2.78,7.92-6.21,15.24-12.95,21.16,2.85.7,4.9.24,6.98.05,8.96-.83,17.23-4.66,25.92-6.64h-.01ZM128.29,81.29c.32-.1.65-.21.98-.3.6,2.8,1.08,5.64,1.79,8.41,1.89,7.27,5.17,13.5,11.81,17.17,3.51,1.94,5.38,1.5,7.69-1.74,2.48-3.47,5.99-5.62,9.36-7.91-.74,2.22-2.54,3.25-4.05,4.61-5.28,4.77-4.8,11.85,1.06,15.64,4.99,3.23,10.3,5.64,16.16,6.17,11.9,1.06,23.2-1.63,34.12-6.5,3.51-1.56,6.94-3.4,10.8-4.33-.03.48,0,.69-.05.72-13.96,7.4-28.53,12.97-44.35,11.94-8.83-.58-17.33-3.67-23.02-11.91-.41,3.15.3,6.06,1.89,8.72,4.93,8.26,13.18,10.17,21.22,10.79,17.99,1.38,34.06-5.04,48.7-15.78,4.17-3.06,6.22-7.66,8.76-13.1-2.02,1.31-2.78,2.96-4.47,2.85-.19-1.09.64-1.43,1.16-1.89,6.93-6.1,7.37-13.72,4.57-22.04-1.62-4.82-3.66-6.3-8.41-6.27-10.15.06-20.04,2.33-29.51,5.67-9.59,3.39-19.59,5.97-28.38,11.66-.41.26-.95.35-1.33-.32.31-1.51,1.73-1.73,2.73-2.4,10.36-6.88,21.71-10.95,33.67-13.31,1.78-.35,3.49-.78,4.41-2.63,8.61-17.08,2.1-35.98-13.61-40.66-6.72-2-13.27-2.26-20.06-.49-8.15,2.13-15.64,5.63-22.76,10.28-10.36,6.76-16.34,16.56-18.9,28.94-.21,1.01.05,2.36-1.96,3.04,1.31-10.69,5.17-19.86,11.97-26.84,13.21-13.55,29.52-19.27,47.71-18.42-14.21-8.29-36.39-10.5-53.64-.79-18.46,10.41-34.86,41.11-13.46,66.68,4.48,5.35,9.4,9.79,17.49,11.16-8.08-7.82-9.41-17.21-10.09-26.83h0ZM249.04,71.56c-3.93,2.56-8.33,3.24-12.69,4.13-1.33.27-3.59-.15-3.37,2.04.23,2.29,2.22,2.44,4.15,2.06,1.86-.36,3.73-.19,5.6.14,6.4,1.15,6.39,1.12,7.54-5.74.17-1.04.63-2.02.83-3.04.6-3.05,1.89-5.97,1.88-10.06-4.1,3.21-10.02-.4-12.93,5.94,3.74-.22,7.05-.41,10.76-.62-5,3.58-12.24.22-16.14,7.06,5.33.48,9.66-2.02,14.38-1.92h0ZM252.04,81.89c2.9,1.66,5.54,2.88,7.69,4.96,3.39,3.29,7.55,3.12,10.69-.47,1.15-1.32,2.54-2.89,2.75-4.51.2-1.45-2.22-1.27-3.18-2.29-.17-.19-.43-.32-.56-.53-1.98-3.33-4.82-2.63-7.71-1.88-2.44.63-2.04,1.51-.58,3.11,1.92,2.09,4.78,2.42,7.38,4.69-3.92.06-6.67-1.42-8.73-3.61-2.77-2.96-4.94-2.14-7.78.55h0ZM241.42,61.13c2.33-2.36,2.31-2.37,3.46-6.68.2-.76.78-2.56,1.18-1.86,1.73,3.04,2.22-.05,3.14-.5.83-.41,1.33-2.33,2.56-.3.17.28,2.19.88,2.81-.61.36-.88,1.49-1.86.6-2.84-.84-.92-1.87.07-2.81.29-1.68.4-3.17,1.47-5.06,1.12-6.06-1.12-9.84,1.59-11.36,7.74-.44,1.77-.99,3.78-2.14,5.02-2.78,3.02-2.35,7.43-4.62,10.59-.42.59-.32,1.3.36,1.67,1.1.61.9-.66,1.32-.99,2.84-2.22,2.63-5.64,3.46-8.68.66-2.44,1.08-5.05,3.42-7.49-.15,3.72-2.06,6.5-1.42,10.07,4.18-4.12,1.86-10.47,5.78-14.69.34,2.93-1.27,5.23-.65,8.14h0ZM252.56,78.34c3.55-3.85,5.84-7.87,11.15-9.59-2.08,3.07-4.65,4.28-6.03,7.13,3.27-.53,5.88-1.67,8.44-3.43,2.79-1.91,1.89-3.03-.27-4.28-3.51-2.02-7.5-2.21-10.87-.77-2.47,1.05-2.29,4.56-1.59,7.43.19.76-.38,1.73-.83,3.51h0Z"/>
</svg>