<?xml version="1.0" encoding="UTF-8"?>
<svg id="Layer_1" data-name="Layer 1" xmlns="http://www.w3.org/2000/svg" viewBox="0 0 236.38 224.44">
  <defs>
    <style>
      .cls-1 {
        fill: #537959;
        stroke-width: 0px;
      }
    </style>
  </defs>
  <path class="cls-1" d="M28.67,164.65c1.18-7.39,2.35-14.57,3.46-21.75.22-1.38.37-2.82.28-4.21-.23-3.4,1.19-6.84,4.16-8.15,2.93-1.3,3.32-3.49,2.42-6.11-1-2.88-.58-5.36.36-8.19,1.82-5.53,2.93-11.33,4.72-16.87,2.88-8.88,5.46-17.96,9.32-26.35,3.42-7.45,8.68-13.74,16.66-16.36.61-.2,1.3-.53,1.71-1.02,4.23-5.09,9.85-7.97,15.2-11.33,3.23-2.03,6.15-4.64,9.2-7,.31-.24.58-.55.91-.71,6.32-3.11,12.69-6.09,18.95-9.32,3.68-1.9,7.71-3.06,10.6-6.72,1.56-1.97,4.1-3.33,6.45-4.21,1.12-.42,3.32.48,4.17,1.56,3.26,4.18,6.27,8.6,9.2,13.06,4.39,6.69,8.75,13.4,12.89,20.27,1.84,3.04,3.15,6.43,4.64,9.7,2.69,5.9,5.5,11.75,7.93,17.77,1.06,2.63,1.39,5.64,1.87,8.5.31,1.85,1.08,2.92,2.84,3.22,5.76.99,9.03,5.62,10.61,10.66,2.14,6.86,5.72,12.54,9.86,17.9,4.27,5.53,7.52,11.46,9.88,18.22,3.73,10.69,8.12,21.11,12.19,31.67,1.12,2.9,1.58,5.62-1.81,7.51-.79.44-1.18,2.2-1.31,3.41-.2,1.83-.89,2.76-2.64,2.87-2.17.13-4.33.38-6.5.59-5.45.53-9.84,3.9-14.42,6.55-2.54,1.47-4.67,4.03-6.53,6.49-2.42,3.23-5.23,4.01-8.79,3-3.9-1.1-5.13.08-4.15,4.29.6,2.56,2.44,4.9-.66,7.16-3.59,2.61-6.98,4.11-11.61,2.6-4.68-1.52-9.73-2.35-14.62-2.36-4.59,0-8.86.37-13.14-2.28-1.83-1.14-4.78-.76-7.11-.35-6.91,1.23-11.81-1.96-16.08-7.31-2.13-2.67-4.46-5.29-7.1-7.34-1.8-1.39-4.27-1.92-6.52-2.48-1.44-.36-3.03-.24-4.52-.06-4.48.54-8.35-1.08-12.06-3.53-2.79-1.84-5.71-2.4-8.95-1.3-7.23,2.44-10.58,1.83-14.89-4.99-2.31-3.65-5.09-4.99-9.03-4.81-6.41.29-11.56-3.32-16.51-7.02-1.06-.79-1.06-3.21-1.54-4.88h0ZM212.02,169.62c-.12-1.61.05-3.34-.43-4.82-2.41-7.44-4.97-14.82-7.52-22.2-.95-2.75-2.26-5.39-2.97-8.2-1.57-6.13-4.89-10.95-8.65-15.78-4.69-6.03-10.87-11.13-12.26-19.66-.36-2.23-1.9-4.11-4.44-3.9-3.59.29-5.11-2.14-6.1-5.17-2.66-8.21-5.39-16.4-7.77-24.69-2.25-7.8-5.62-14.79-11.26-20.36-2.27-2.24-4.77-4.22-6.98-6.53-3.54-3.72-6.25-8.02-7.63-13.26-.71-2.69-2.31-3.04-4.27-1.26-1.15,1.04-2.2,2.22-3.23,3.4-1.81,2.08-3.85,3.27-6.64,3.53-3.15.29-6.3,1.12-9.33,2.13-2.87.95-5.73,2.16-8.34,3.73-2.58,1.55-5.2,3.36-7.17,5.67-3.2,3.75-6.23,7.6-10.7,9.68-1.97.92-2.52,2.5-1.71,4.44,1.77,4.24,3.4,8.59,5.68,12.51,2.78,4.78,6.81,8.82,9.13,13.8,3.37,7.2,5.62,14.98,8.51,22.45.56,1.44,1.64,2.89,2.84,3.76,3.19,2.28,6.86,3.86,9.79,6.43,2.17,1.9,4.81,3.98,4.35,7.98-.52,4.47-.8,9-.78,13.5,0,1.52.97,3.3,1.97,4.5,2.45,2.92,5.24,5.52,7.8,8.35,3.06,3.39,6.54,6.47,6.97,11.78.09,1.08,1.39,2.5,2.44,2.96,2.39,1.06,3.92,2.67,4.68,5.28.47,1.63.83,3.43,1.73,4.78,5.15,7.73,10.42,15.36,15.7,23,2.3,3.33,3.93,3.22,5.32-.62.96-2.67,2.38-2.99,4.8-2.87,2.11.1,4.44-.51,6.36-1.5,3.02-1.56,5.75-3.76,8.65-5.61,2.26-1.44,4.64-2.68,6.91-4.12,3.14-1.99,6.03-4.66,9.39-5.98,4.99-1.97,5.12-1.57,5.18-7.11h0ZM107.8,115.27c-.47-2.3-1.07-5.75-1.93-9.13-.62-2.43-1.62-4.75-2.42-7.13-2.46-7.34-4.83-14.69-9.92-20.61-2.03-2.36-3.92-4.92-5.51-7.63-2.05-3.49-3.81-7.17-5.55-10.86-1.95-4.11-3.88-4.58-7.27-1.95-2.32,1.8-4.78,3.6-7.44,4.69-4.92,2.02-8.77,5.2-11.17,10.18-1.72,3.57-3.23,7.26-4.66,10.97-3.79,9.79-6.6,19.8-5.8,30.63.13,1.81-.2,3.96-1.06,5.48-1.2,2.12-1.4,3.96-.8,6.29,1.41,5.45.18,7.82-4.56,10.49-.91.52-1.99,2.25-1.81,3.16.61,3.15-.36,5.74-1.52,8.46-2.53,5.89-3.35,12.02-1.48,18.31.31,1.04,1.12,2.25,2,2.69,3.78,1.92,7.68,3.21,12.04,2.55,1.98-.3,4.14.15,6.12.68,4.94,1.32,9.8,2.96,14.73,4.3,1.12.3,2.56.23,3.59-.28,4.99-2.48,9.62-.03,14.3,1.11,1.76.43,3.62,3.26,5.16.94,1.56-2.36-1.12-3.83-2.52-5.35-3.02-3.28-3.82-7.18-2.18-10.79,1.31-2.89,5.01-3.26,6.73-.62.81,1.24,1.66,2.52,2.15,3.93.83,2.35,2.25,3.75,4.4,4.77,1.11.52,1.93,2.02,2.59,3.26.87,1.62,1.24,3.56,2.2,5.09,1.05,1.67,1.6,3.08.59,5.01-.27.52.13,2.11.58,2.3,5.22,2.35,9.68,5.77,13.49,10.24.53.63,1.42,1.06,2.22,1.25,5.77,1.38,9.66,6.08,14.45,9.2,1.34.87,2.97,1.54,4.52,1.7,2.88.29,5.81.07,8.71.19,3.02.12,6.04.61,9.04.48,1.3-.05,2.94-.95,3.69-2.04.46-.67-.42-2.47-.81-3.71-.21-.66-.78-1.18-.99-1.83-2.54-8.02-8.28-13.7-12.97-20.1-3.21-4.38-3.47-4.21-8.12-2.29-.8.33-2.03,1.13-2.02,1.69.02.9.72,2.09,1.47,2.61,1.81,1.26,3.82,2.18,5.73,3.27.91.52,1.92.96,2.64,1.71,1.72,1.79,1.3,4.36-.98,5.07-3.12.97-6.71,1.56-9.14-1.11-2.3-2.52-4.05-5.8-3.07-9.87.22-.91-.13-2.68-.72-3-3.33-1.8-4.8-4.81-5.23-8.5-.35-3.01-1.41-5.02-4.4-5.85-2.71-.75-2.82-3.59-3.08-5.97-.24-2.13-.08-4.3,2.16-5.44,2.3-1.17,1.99-2.91.76-4.72-1.05-1.54-2.28-2.95-3.29-4.53-2.99-4.65-5.5-9.75-8.97-13.94-3.5-4.22-5.65-8.51-4.66-15.44h0ZM128.8,163.88c.99-1.45,1.87-2.44,1.75-2.62-.84-1.22-1.87-2.32-2.96-3.29-.11-.09-1.64,1.25-1.57,1.39.67,1.36,1.55,2.59,2.79,4.53h0Z"/>
  <path class="cls-1" d="M165.34,148.05c1.38-3.74.33-7.54-2.03-11.15-.39-.59,0-1.8.03-2.72.87.08,1.89-.11,2.57.33.72.46,1.22,1.48,1.63,2.37,1.42,3.06,2.65,6.23,4.18,9.2.46.89,1.64,1.69,2.58,1.85,5.69.98,10.05,4.68,14.5,8.29,2.88,2.33,5.99,4.32,8.75,6.8.9.81,1.04,2.68,1.52,4.06-1.28.52-2.53,1.38-3.84,1.48-2.99.23-6.05-.27-9,.19-5.06.79-7.57-3.08-10.57-6.26-1.21-1.28-2.45-3.08-3.91-3.43-4.92-1.18-6.11-5.33-6.43-11.02h0Z"/>
  <path class="cls-1" d="M123.18,97.04c-5.84,1.24-12.71-6.47-13.33-12.5-.2-1.92.42-3.31,2.41-3.44,3.53-.22,7.02-.46,9.75,2.82,1.78,2.14,4.19,3.73,5.91,5.91.99,1.26,1.8,3.31,1.56,4.81-.35,2.24-2.59,2.42-4.53,2.4-.59,0-1.18,0-1.77,0h0Z"/>
  <path class="cls-1" d="M150.39,136.14c-.46,3.96-.29,7.09-3.67,8.04-4.14,1.17-7.79-.35-9.3-4.14-1.06-2.67-1.7-5.59-2.06-8.47-.36-2.82,1.74-3.59,3.85-3.02,3.1.85,6.27,1.83,9.01,3.48,1.34.81,1.76,3.25,2.18,4.1h0Z"/>
  <path class="cls-1" d="M187.5,137.83c-.64.65-1.26,1.82-2.11,2.02-3.04.75-7.19-2.98-7.17-6.22.01-2.51,1.3-3.59,3.39-2.52,2.54,1.31,4.82,3.03,5.88,6.71h0Z"/>
  <path class="cls-1" d="M170.03,120.37c2.76-.02,4.57,1.9,4.71,4.97.11,2.31-1.94,3.75-3.92,2.7-1.1-.58-2.24-1.18-3.15-2.06-.88-.84-1.48-2.04-2.2-3.08,1.05-.85,2.07-1.75,3.18-2.5.34-.23.92-.04,1.39-.04h0Z"/>
  <path class="cls-1" d="M149.24,150.72c.44-1.28.88-2.56,1.32-3.83.67.8,1.41,1.49,2,2.44.78,1.26,1.62,2.59,2.09,4.15.36,1.2.57,3.27.17,4.09-.4.82-1.85,1.16-2.52.64-1.8-1.37-2.93-3.76-3.05-7.49h0Z"/>
  <path class="cls-1" d="M142.28,89.27c-.6.47-1.6,1.81-2.85,2.09-1.82.4-4.09-3.1-4.11-5.84-.01-1.95,1.36-2.21,2.86-2.23,2.4-.02,4.18,2.18,4.1,5.97h0Z"/>
  <path class="cls-1" d="M185.63,128.39c-1.38-1.06-2.64-1.88-3.73-2.95-.28-.28-.25-1.52.03-1.92.39-.53,1.27-1.05,1.76-.87,1.11.4,2.19,1.1,3.12,1.94.44.4.82,1.53.65,2.07-.21.65-1.04,1.04-1.82,1.74h0Z"/>
  <path class="cls-1" d="M80.75,120.3c.48,1.09,1.01,2.16,1.43,3.28,1,2.65,2.5,4.55,5.33,4.93,3.51.47,6.14,2.39,7.74,5.9,1.57,3.44.28,7.14-3.08,8.12-4.96,1.45-9.85,1.43-14.09-2.28-.9-.78-2.02-2.33-1.86-3.28.92-5.57,2.19-11.07,3.34-16.6.4-.02.8-.05,1.2-.07h0Z"/>
  <path class="cls-1" d="M76.93,80.99c4.57,0,7.91,6.43,7.3,10.7-.43,3.06-3.2,4.09-5.47,2.27-3.04-2.43-3.92-6.3-4.79-9.99-.53-2.21,1.09-3.07,2.96-2.99Z"/>
  <path class="cls-1" d="M82.61,109.89c-3.59-1.25-7.21-.51-8.6-5.37-.31-1.07-.1-3.24.46-3.71,1.08-.91,2.73-1.63,3.87-1.21,1.72.63,3.34,2.11,4.74,3.63,1.01,1.09,1.6,2.84,2.38,4.3-1.06.87-2.12,1.75-2.86,2.35Z"/>
  <path class="cls-1" d="M55.61,154.98c.44,1.77.97,2.77.86,3.7-.25,2.12-4.32,5.39-6.87,5.54-2.94.17-5.28-1.09-6.75-3.6-.37-.63-.38-1.88.02-2.42.39-.52,1.83-.94,2.29-.64,3.92,2.54,7,1,10.44-2.57h0Z"/>
  <path class="cls-1" d="M79.67,156.32c.05,1.6-.19,3.35-2.49,3.29-2.21-.06-5.8-3.05-5.62-4.88.28-2.87,2.4-3.01,4.18-3.19,2.55-.26,3.89,1.38,3.93,4.78Z"/>
  <path class="cls-1" d="M71.56,92.65c-1.82,1.18-3.26,2.36-3.45,2.2-1.34-1.18-2.5-2.59-3.5-4.06-.11-.17,1.45-1.8,1.62-1.7,1.58.87,3.02,1.96,5.33,3.56h0Z"/>
</svg>