<?xml version="1.0" encoding="UTF-8"?>
<svg id="Layer_1" data-name="Layer 1" xmlns="http://www.w3.org/2000/svg" viewBox="0 0 318.8 291.62">
  <defs>
    <style>
      .cls-1 {
        fill: #537959;
        stroke-width: 0px;
      }
    </style>
  </defs>
  <path class="cls-1" d="M74.65,98.78c-.31-2.84-.51-5.37-.88-7.87-1.82-12.23,4.81-28.76,18.05-34.53,10.53-4.59,20.87-5.88,31.57-2.07,9.16,3.27,15.79,9.27,17.83,19.35.2.99,1.04,1.85,1.59,2.77,1.03-.76,2.07-1.49,3.08-2.27,3.57-2.74,7.08-5.55,10.7-8.22.98-.72,2.26-1.05,4.14-1.9-1.8-1.53-2.98-3.01-4.51-3.77-11.67-5.83-20.4-14.77-28.06-25.16-3.77-5.11-8.7-9.37-13.08-14.04-1.52-1.62-2.98-3.31-4.46-4.97.22-.38.43-.77.65-1.15,5.65.29,11.37.11,16.92.98,10.47,1.64,20.99,3.32,31.21,6.02,11.11,2.94,22.14,6.66,32.14,12.44,8.22,4.75,15.93,10.39,23.77,15.78,5.26,3.62,10.34,7.49,16.01,11.61.35-4.57.63-8.67.99-12.77.81-9.35,4.52-17.39,11.6-23.56,2.83-2.47,6.37-4.11,9.57-6.16,2.26-1.45,4.5-2.94,6.75-4.41.35.25.69.51,1.04.76-1.81,3.69-3.39,7.51-5.46,11.04-5.03,8.58-10.11,17.16-12.57,26.88-1.23,4.85-1.7,9.9-2.3,14.88-.12.97.47,2.41,1.22,3.04,2.49,2.08,5.21,3.87,7.83,5.79,7.75,5.7,15.41,11.52,23.26,17.08,4.93,3.49,10.08,6.67,15.22,9.86,2.86,1.77,5.92,3.2,8.8,4.94.67.4.97,1.41,1.45,2.14-.76.38-1.54,1.12-2.29,1.08-2.45-.11-4.95-.22-7.31-.82-6.43-1.63-10.64,2.22-14.8,5.93-.63.56-.46,2.95.2,3.87,2.57,3.58,6.3,6.53,8.08,10.42,2.78,6.08,5.5,12.61,6.15,19.16,1.72,17.19-1.82,33.74-8.94,49.48-3.27,7.22-6.16,14.68-10.13,21.51-3.36,5.78-7.66,11.14-12.23,16.05-5.3,5.68-11.32,10.69-17.09,15.92-.84.76-2.05,1.1-3.07,1.67-17.71,10.06-36.99,14.16-57.08,15.96-22.75,2.03-45.11-.51-67.38-4.46-6.03-1.07-12.06-2.78-17.71-5.12-11.44-4.73-21.22-11.91-28.93-21.77-4.23-5.41-8.68-10.66-12.94-16.06-8.67-11-17.28-22.07-22.53-35.22-2.97-7.44-6.45-14.89-7.94-22.67-2.2-11.58-2.33-23.74,3.6-34.27,3.37-6,3.04-13.13,7.51-18.53,4.16-5.01,7.58-10.65,11.92-15.47,3.36-3.73,8.34-4.54,13.16-3.55,5.1,1.05,10.06,2.76,15.68,4.36v.02ZM278.81,111.41c5.52-2.61,11.24-2.06,17.08-1.13-1.68-.92-3.41-1.3-5.15-1.67-3.05-.65-6.82,0-7.63-4.55-.11-.61-1.16-1.08-1.82-1.57-2.63-1.93-5.33-3.77-7.89-5.78-5.5-4.31-10.79-8.91-16.45-13.01-4.54-3.29-9.5-6-14.79-9.29.62,1.91,1.01,3.35,1.56,4.73,2.52,6.27,8.43,7.95,13.89,10.32,3.28,1.43,6.49,3.09,9.57,4.91,4,2.36,7.86,4.98,11.75,7.53.49.32.82.89,1.23,1.34-.14.29-.28.59-.42.88-2.24-.72-4.52-1.32-6.7-2.18-4.31-1.71-9.28-2.74-12.66-5.59-4.07-3.44-8.45-5.33-13.61-6.25,3.6,2.14,7.2,4.29,11.38,6.78-6.29,3.58-12.39.23-18.82,1.31.98,1.52,1.51,3.34,2.41,3.55,3.14.74,6.63,1.84,9.59,1.13,5.76-1.38,11.09-.96,16.48,1.07,2.93,1.1,5.82,2.44,8.85,3.16,2.85.67,3.41,1.94,2.21,4.37-4.4-.04-12.32,5.65-14.18,10.59,3.72-2.73,7.05-5.16,10.35-7.62,1.29-.96,2.52-2.01,3.77-3.01v-.02ZM288.04,167.86c-.36-.08-.73-.17-1.09-.25-.72,2.77-1.57,5.52-2.15,8.32-3.4,16.37-11.36,30.07-24.35,40.6-10.21,8.28-21.7,14.47-34.06,18.92-10.36,3.73-21.11,5.99-32.07,6.85-14.11,1.11-28.26,2.43-42.39,2.46-13.66.03-27.34-1.28-40.55-5.47-4.8-1.52-9.89-2.28-14.47-4.27-10.44-4.53-20.8-9.19-30.41-15.52-6.41-4.23-13.14-7.86-18.7-13.31-6.82-6.68-12.42-14.25-16.78-22.66-2.79-5.38-4.69-11.22-6.95-16.75-.02.2-.12.55-.09.88.06.58.16,1.16.32,1.72,4.54,15.67,12.09,29.84,21.79,42.84,6.9,9.26,14.22,18.2,21.41,27.24,9.05,11.36,20.54,19.48,34.5,23.2,11.02,2.94,22.37,4.81,33.68,6.44,23.73,3.42,47.28,2.5,70.74-3.05,10.75-2.54,20.36-7.47,30.34-11.68.62-.26,1.19-.72,1.7-1.17,5.5-4.83,10.96-9.7,16.46-14.53,7.16-6.28,12.32-14.14,16.38-22.52,4.67-9.66,8.68-19.68,12.31-29.79,2.13-5.93,2.98-12.32,4.41-18.5h.02ZM84.24,144.88s-.2.78.03,1.46c3.5,10.15,10.46,17.35,20.47,20.57,16.7,5.37,32.08.87,46.44-8.21.48-.3.85-.79,1.25-1.21,7.69-7.83,10.85-17.35,10.12-28.15-.78-11.47-6.44-20.08-16.38-25.69-8.86-5.01-18.39-7.46-28.66-6.31-9.49,1.07-18.41,3.67-25.13,10.87-3.75,4.03-7.19,8.46-8.4,13.34,2.51,1.4,5.02,2.14,6.56,3.79,4.59,4.9,5.73,11.17,5.48,17.62-.08,2.08-1.1,4.26-2.18,6.1-.44.75-2.18.73-3.33,1.06-.06-.32-.12-.63-.18-.95.86-1.05,1.71-2.09,2.64-3.23-3.1-.38-5.67-.7-8.74-1.08v.02ZM206.46,84.64c-7.98-1.03-15.5,2.23-22.07,7.62-3.38,2.77-6.16,6.32-8.99,9.7-7.71,9.21-10.95,19.43-6.62,31.24.8,2.19,1.38,4.47,2.08,6.7,3.6,11.35,14.13,18.81,25.48,19.12,5.72.15,11.45-.08,17.16-.3,1.59-.06,3.15-.73,4.73-1.08,6.76-1.49,10.52-6.84,14.19-11.82,2.99-4.06,5.45-8.81,6.93-13.63,3.18-10.35,2.93-20.82-1.7-30.84-2.48-5.36-5.95-9.82-11.38-12.77-6.01-3.25-12.37-4.02-19.81-3.94ZM155.63,242.9c1.97-.35,5.71.11,7.18-1.5,4.45-4.87,8.19-10.42,11.79-15.98.95-1.47.78-4,.41-5.91-1.18-6.17-3.3-12.22-3.85-18.42-.38-4.24-1.01-8.05-3.48-11.43-1.37-1.88-3.07-3.52-4.53-5.34-3.89-4.85-8.62-8.84-14.62-10.34-7.66-1.92-15.26-3.68-23.57-2.18-11.28,2.04-17.95,8.45-21.35,18.71-1.64,4.96-1.82,10.39-3.3,15.41-4.27,14.57,2.27,20.84,13.08,29.51,4.23,3.39,10.61,4.75,16.23,5.61,8.3,1.27,16.79,1.27,26,1.86h0ZM43.07,152.13c.24.15.48.31.72.46.7-.58,1.43-1.67,2.1-1.64,2.49.14,3.83-.67,4.45-3.21.15-.63,1.99-1.25,2.97-1.14.67.07,1.59,1.34,1.75,2.19,1.72,9.36-7.88,18.43-14.67,19.39-2.18.31-3.11,1.06-3.15,3.26-.21,11.43,3.57,21.36,11.47,29.56,3.13,3.25,6.47,6.54,10.32,8.77,4.48,2.59,9.54,5.26,14.52,5.65,5.23.41,11.11-.9,15.89-3.19,5.3-2.54,9.19-7.12,9.8-13.87.38-4.23,1.42-8.68,3.35-12.43,2.51-4.86,6.2-9.11,9.27-13.46-3.32-1.23-7.33-2.45-11.1-4.18-9.47-4.34-15.13-12.12-18.96-21.54-.57-1.39-2.09-2.76-3.5-3.39-12.11-5.36-22.82-1.79-32.79,5.6-1.03.76-1.64,2.09-2.44,3.16h0ZM216.76,162.33c-.09-.32-.18-.65-.27-.97-2.68,0-5.35.07-8.03,0-7.53-.23-14.73.62-20.41,6.27-2.64,2.63-5.6,5.13-7.55,8.23-7.96,12.65-8.95,26.32-3.87,40.12,1.89,5.12,4.88,10.68,9.01,13.97,8.51,6.75,18.63,9.16,29.38,5.01,2.16-.83,4.25-1.98,6.15-3.31,4.17-2.91,9.15-5.3,12.09-9.2,8.52-11.29,9.91-24.18,4.72-37.25-2.2-5.55-5.98-10.52-9.39-15.52-2.11-3.09-4.8-3.23-8.3-1.57-8.97,4.25-17.97,8.43-27,12.54-.77.35-1.86-.02-2.81-.05.39-.75.65-1.62,1.2-2.24,4.66-5.22,10.21-9.13,16.79-11.66,2.88-1.11,5.51-2.88,8.26-4.36h.03ZM100.96,98.13c-.32-.07-.08.06.13.02.92-.19,1.85-.35,2.72-.67,8.22-2.95,16.73-3.2,25.32-2.75,2.28.12,5.26.77,6.7-.36,1.67-1.32,2.01-4.33,2.91-6.62.13-.32.07-.77.28-1.01,2.45-2.84-2.38-5.17-.97-6.98,2.08-2.67,1.35-4.87.65-7.43-3.06-11.24-11.86-15.75-22.03-18.07-7.76-1.77-15.16.36-22.52,3.29-8.52,3.4-13.69,9.67-16.78,17.75-3.4,8.88-2.27,17.99.25,26.93,1.21,4.3,3.75,7.7,7.82,10.29,1.54-2.17,2.99-4.22,4.41-6.22-6.31-7.29-6.88-7.74-5.39-13.58.66-2.56,3.07-5.24,5.42-6.65,2.62-1.57,5.58-.22,7.05,2.69,1.48,2.93,2.61,6.03,4.03,9.36h0ZM76.66,139.39c1.98-7.37,3.42-14.37,5.85-21,1.05-2.86.71-4.35-1.04-6.39-2.1-2.45-3.85-5.19-5.78-7.79-.55-.74-1.14-1.46-1.8-2.1-4.38-4.2-9.94-5.63-15.69-6.16-4.06-.37-8.44-.48-11.42,3.06-3.61,4.28-6.92,8.82-10.31,13.28-3.94,5.17-6.02,11.01-4.54,17.44,1.71,7.41,4.02,14.69,6.16,22.32,11.61-10.7,23.23-18,38.57-12.67h0ZM119.39,17.89c-.06.24-.12.48-.18.72,38.74,20.18,77.48,40.35,116.76,60.81-1.13-3.3-2.65-5.79-2.71-8.31-.11-5.41-3.72-8.45-7.14-11.36-5.12-4.36-10.44-8.68-16.27-11.97-10.74-6.07-20.71-13.68-32.74-17.33-11.16-3.39-22.18-7.4-33.52-10.03-7.84-1.82-16.12-1.75-24.2-2.52h0ZM115.08,18.4c-.08.11-.16.21-.23.32,1.06,1.06,2.14,2.1,3.17,3.19,4.12,4.4,8.69,8.47,12.22,13.31,5.34,7.31,11,14.11,18.67,19.1,4.15,2.7,8.07,5.76,12.14,8.58.49.34,1.33.39,1.96.28,13.42-2.41,23.42,3.41,31.38,13.44,3.08,3.89,5.81,6.87,11.36,5.04,1.99-.66,4.44-.27,6.62.04,7.83,1.1,15.63,2.4,23.45,3.56.8.12,1.67-.16,2.5-.26-.49-.79-.8-1.94-1.51-2.3-8.63-4.39-17.31-8.65-25.98-12.95-4.6-2.28-9.28-4.43-13.79-6.88-9.01-4.89-17.89-10.04-26.91-14.92-10.27-5.56-20.64-10.94-30.96-16.4-4.32-2.29-8.66-4.54-12.96-6.88-3.74-2.04-7.42-4.17-11.13-6.26h0ZM227.6,164.41c2.4,3.4,4.32,6.36,6.47,9.13,5.53,7.1,9.3,14.86,9.4,24.05.03,2.43,1.06,3.26,3.3,2.39,5.53-2.16,11.1-4.23,16.52-6.63,4.25-1.89,6.72-5.58,8.85-9.62,4.94-9.34,4.43-19.02,1.81-28.72-1.95-7.19-5.23-13.67-11.58-18.27-2.48-1.8-3.95-1.21-5.47.9-7.49,10.37-17.12,18.39-27.73,25.34-.75.49-1.34,1.22-1.57,1.44h0ZM145.57,80.94c3.33,2.78,2.86,6.05,1.69,9.38-.66,1.87-1.21,3.83-2.2,5.53-.99,1.7-.76,2.65.79,3.76,3.02,2.17,6.35,4.14,8.78,6.88,3.56,4.01,6.44,8.61,9.06,12.21,1.91-4.41,3.62-9.94,6.57-14.71,2.95-4.78,7.14-8.79,10.94-13.33-3.11-1.55-6.01-3.25-9.09-4.49-5.2-2.09-10.45-4.09-15.79-5.74-3.4-1.05-7.03-1.66-10.73.52h-.02ZM195.47,82.5c-6.93-9.52-15.29-16.16-27.26-17.09-7.27-.56-16.23,3.35-19.25,8.21,8.68-.24,16.8,2.32,24.84,5.13,3.84,1.34,7.51,3.24,11.41,4.35,3.11.89,6.49,2.23,10.26-.6ZM243.55,127.93c2.86-.22,5.47-.9,7.92-.5,3.34.54,5.6-.64,6.75-3.39.67-1.61.02-3.72.26-5.57.8-6.11-2.23-9.9-7.52-11.99-1.66-.66-4.17-.7-5.61.14-1.01.59-1.09,3.14-1.17,4.84-.11,2.33.33,4.68.23,7.01-.13,3.1-.55,6.19-.87,9.47h0ZM256.81,20.22c-22.4,5.93-26.72,31.68-21.19,47.27-1.19-19.48,6.07-35.13,21.19-47.27ZM253.95,25.74c-9.13,7.18-14.32,16.74-16.09,28-1.79,11.37-.6,22.89,2.49,25.75-3.3-20.2,4.39-37.11,13.6-53.75ZM257.87,128.15c-1.62,1.26-2.48,1.84-3.24,2.54-4.94,4.57-9.88,9.13-14.77,13.76-2.53,2.4-5.02,4.85-7.43,7.37-6.5,6.78-13.37,13.01-22.19,16.79-3.54,1.52-6.83,3.63-10.23,5.48.21.3.43.61.64.91,23.1-10.06,42.29-25.06,57.22-46.84h0ZM276.29,109.57l.07-.95c-7.34-1.06-13.77-6.57-22.93-4.1,1.64,1.41,2.45,2.33,3.46,2.94,2.59,1.56,5.3,2.92,7.89,4.48.69.42,1.12,1.26,1.67,1.92-.21.21-.42.42-.62.62-1.62-1-3.23-2.01-5.46-3.39.44,3.62.78,6.36,1.07,8.77,5.08-3.52,9.97-6.91,14.85-10.29ZM187.5,86.28c-4.75-1.56-9.73-2.63-14.19-4.78-7.36-3.55-15.05-4.7-23.04-4.74-1.11,0-2.23.44-3.38.68,3.28.3,6.59-.01,9.45.97,8.43,2.89,16.73,6.18,25,9.54,3.15,1.28,4.73,1.11,6.16-1.67ZM273.67,198.43l-.57-.66c-.6.48-1.29.88-1.79,1.45-1.74,1.97-3.31,4.11-5.15,5.99-2.6,2.66-6.96,3.04-8.88,6.71-.22.42-1.26.39-1.91.61-.61.21-1.41.31-1.76.75-2.27,2.94-4.44,5.95-7.16,9.65,11.48-6.28,19.69-15.01,27.2-24.51h.02ZM231.93,87.91c2.36,7.17,9.49,10.39,17.8,8.23-5.09-4.58-10.81-7.08-17.8-8.23ZM252.07,130.61c-.25-.55-.51-1.09-.76-1.64-2.9.87-6.71.91-8.48,2.82-2.16,2.33-2.61,6.24-3.8,9.46.3.24.6.49.9.73,4.05-3.79,8.09-7.58,12.14-11.37ZM259.55,130.91c-.36-.3-.72-.61-1.07-.91-4.86,5.71-9.71,11.42-14.57,17.13.37.31.74.63,1.1.94,4.85-5.72,9.69-11.44,14.54-17.16ZM279.77,135.5c.28-.15.55-.3.83-.45-2.4-3.81-2.47-9.12-7.62-11.14,2.26,3.86,4.53,7.73,6.79,11.59ZM283.42,139.88c-.39.09-.77.19-1.16.28,1,6.49,1.99,12.98,2.99,19.47.32-.04.63-.09.95-.13-.93-6.54-1.85-13.08-2.78-19.62ZM38.22,191.49c.3-.14.61-.29.91-.43-2.43-3.21-2.35-7.86-5.7-10.55-.4.23-.8.46-1.21.69,2,3.43,4,6.86,6,10.29ZM173.9,181.33c-1.55,1.54-3.13,3.1-4.98,4.94.48.66,1.43,1.98,2.75,3.82.9-3.53,1.59-6.22,2.24-8.76h0ZM29.39,130.98c-.24-.03-.47-.07-.71-.1-.3,1.37-.7,2.74-.84,4.13-.04.46.61.99.95,1.49.42-.52,1.19-1.04,1.18-1.56,0-1.32-.36-2.64-.58-3.96ZM183.2,240.51c0-.32.03-.63.04-.95-1.21-.07-2.41-.14-3.62-.2,0,.38-.03.77-.04,1.15h3.62ZM278.52,168.19c2.93-2.24,1.45-3.65,0-5.06v5.06ZM234.86,227.55c.19.41.38.83.57,1.24,1.71-.95,3.43-1.9,5.14-2.86-.14-.28-.28-.56-.42-.83-1.76.82-3.53,1.63-5.29,2.45Z"/>
</svg>