<?xml version="1.0" encoding="UTF-8"?>
<svg id="Layer_1" data-name="Layer 1" xmlns="http://www.w3.org/2000/svg" viewBox="0 0 193.37 187.54">
  <defs>
    <style>
      .cls-1 {
        fill: #53795a;
      }

      .cls-1, .cls-2, .cls-3, .cls-4, .cls-5, .cls-6 {
        stroke-width: 0px;
      }

      .cls-2 {
        fill: #e2e2e2;
      }

      .cls-3 {
        fill: #e2ddc6;
      }

      .cls-4 {
        fill: #5a3224;
      }

      .cls-5 {
        fill: #ece8dc;
      }

      .cls-6 {
        fill: #b69368;
      }
    </style>
  </defs>
  <path class="cls-3" d="M149.16,35.59H50.59v109.81h98.57V35.59Z"/>
  <path class="cls-5" d="M100.83,10.56c1.65.11,3.31.23,4.96.34.24.28.5.27.77.06,6.19.93,12.37,1.86,18.28,4.02,3.58,1.31,7.15,2.68,10.56,4.4,14.37,7.23,25.6,17.81,33.97,31.57,5.76,9.48,9.41,19.68,11.04,30.6.69,4.59.97,9.24.9,13.9-.03,1.79-.76,3.48-.48,5.28-.85.14-.62.84-.67,1.35-.35,3.36-.97,6.67-1.7,9.96-1.11,5.04-2.93,9.85-4.72,14.68-2.56,6.08-5.77,11.78-9.86,16.98-4.19,5.31-9,9.93-14.06,14.4-7.57,6.69-16.24,11.3-25.72,14.43-13.76,4.55-27.8,5.6-42.07,2.8.14-1.6-.41-2.38-1.66-2.34,1.21.51.92,1.36.95,2.11-4.34-.71-8.47-2.12-12.62-3.53-6.77-2.31-12.65-6.29-18.77-9.84-.34-.19-.62-.45-.54-.91,1.15-1.91.78-2.76-1.32-3.07-.15-1.08-.62-1.38-1.56-.62.55.21,1.07.41,1.58.6-.21,1.03,1.36,1.61.71,2.76-3.32-1.73-5.84-4.46-8.58-6.89-1.4-1.25-2.63-2.68-3.94-4.04-.14-.75-.81-1.08-1.22-1.62-1.57-2.05-3.62-3.76-4.55-6.28.69-.35,1.86-.14,2.04-.87.14-.59-.38-1.54-1.67-1.74.39,1.01-.09,1.79-.34,2.63-1.29-.54-1.53-1.96-2.41-2.85-3.8-3.8-7.05-8.03-9.7-12.7-1.63-2.88-2.3-6.14-3.42-9.21-1.42-3.92-2.08-7.98-2.72-12.02-.67-4.28-.95-8.64-1.08-13.01-.11-3.58.48-7.08.4-10.61-.03-1.5.54-2.8,1.02-4.16,1.38-3.91,3.19-7.67,4.46-11.59,1.06-3.28,2.46-6.37,4.02-9.36,1.92-3.69,4.23-7.2,6.71-10.54,1.73-2.33,3.41-4.76,5.97-6.45,2.11-1.39,4.45-2.56,6.03-4.7.94-1.26,2.12-2.29,3.34-3.32,13.37-11.3,28.72-17.98,46.12-19.96,3.85-.44,7.72-.18,11.56-.65ZM40.84,151.24c.05.17.1.35.15.52.05-.04.1-.07.15-.11-.1-.14-.21-.27-.31-.41-.09-1.11-.57-2.01-1.44-2.72-.28-.22-.56-.3-.83-.06-.1.09-.17.42-.15.44,1.02.56.97,2.24,2.44,2.33ZM18.32,108.38c.11.34-.12.76.29,1.07,0-.41.04-.78-.31-1.05-.29-3.34-.59-6.68-.91-10.27-.64.62-.53,1.15-.5,1.6.21,2.69,1,5.31.8,8.04-.03.37.33.49.63.62h0ZM48.85,29.21c-.18.06-.39.08-.53.19-5.96,4.5-11.08,9.83-15.48,15.86-9.83,12.47-16.2,31.59-15.48,43.22.81-4.12,1.45-8.18,2.32-12.2,1.47-6.83,3.95-13.21,7-19.43,1.9-3.88,4.44-7.36,6.63-11.05,4.23-5.65,8.84-10.93,14.57-15.13.43-.32,1.25-.61.96-1.48.17.35.34.11.5-.01.01,0-.08-.15-.12-.23-.13.09-.24.19-.37.28h0ZM23.28,101.89c.02.05.03.11.06.16.02.02.08.01.12.02-.06-.06-.13-.11-.2-.16-.1-1.5-.45-2.9.04-4.52.6-1.98.09-4.27-.15-6.27-.43-3.61.52-6.99.78-10.46.37-5.13,2.14-10.04,4.18-14.72,2.04-4.67,3.77-9.59,7.19-13.55,1.69-1.95,2.28-4.58,4.07-6.5.55-.58,1.63-1.05,1.29-2.4-2.53,1.67-4.66,3.71-6.05,6.07-1.71,2.9-3.89,5.48-5.38,8.59-1.3,2.71-2.5,5.45-3.69,8.21-.57,1.33-.64,2.52,0,3.79h.01c-.61-.39-1.17-.94-1.34.42-.16,1.23-.83,2.42-.9,3.65-.31,4.87-2.02,9.58-1.82,14.5.05,1.2-.54,2.27-.56,3.36-.03,1.46.46,2.9.43,4.44-.08,2.92.48,5.8,1.46,9.07.54-1.53.38-2.63.45-3.7h-.01ZM55.51,61.49c-.85,2.19-.79,4.57-1.51,6.77-.65,1.99.68,4.54-1.68,6.07-.07.04-.11.29-.06.33,1.77,1.62.6,3.58.58,5.38-.06,5,.62,9.99.25,15.02-.29,3.88-.52,7.83-.29,11.66.4,6.72.63,13.45.99,20.17.16,2.94.43,5.86.78,8.77.38,3.15,1.15,6.25,4.89,7.23.16.04.41.17.43.29.29,1.48,1.69,1.35,2.43,1.19,2.72-.57,5.36-.19,8.06-.06,6.52.29,13.06-.06,19.6.28,8.21.43,16.43-.04,24.66.51,6.38.42,12.8-.11,19.21.02,2.94.06,6.07,0,8.33-2.53.15-.17.51.05.5-.51-.06-2.55.72-5,.9-7.54.68-9.89.75-19.81,1.04-29.72.2-6.55-.24-13.08-.34-19.63-.03-1.96-.56-3.76-1.88-5.26-.87-1-2.25-1.94.18-2.74.31-.1.47-.72.64-1.13.91-2.04,1.4-4.2,1.76-6.39.73-4.43.88-8.9-.38-13.23-.67-2.32-1.25-4.75-3.98-6.02-1.74-.81-3.02-2.54-4.65-3.73-3.05-2.24-4.79-6.17-8.98-6.99-2.39-.47-3.02-2.87-4.57-4.25-.43-.39-.69-.8-1.13-.13-.85,1.28-2.32,1.12-2.99.44-1.28-1.3-2.45-.95-3.85-.62-.88.21-1.64.4-2.21,1.21-.48.69-1.2.85-2.13.88-2.34.09-4.7-.01-7.02.22-2.16.21-4.9.41-5.44,2.98-.42,1.98-1.29,1.03-1.67.57-1.19-1.49-3.69-1.18-4.37-3.36-.17-.57-1.13-.73-1.69-.67-1.13.13-1.94-.6-2.81-.97-.55-.23-.9-.4-1.57-.46-1.71-.16-3.28.62-4.87.56-2.54-.09-5.06.27-7.59.13-.83-.04-1.41.28-1.99.87-2.11,2.1-4.29,4.14-7.31,4.92-.53.14-1.04.47-1.47.83-1.16.97-2.46,1.66-3.78,2.38-1.65.91-3.62,2-4.39,4.03-.42,1.11-.68,2.31-.83,3.49-.39,2.99-1.29,5.95-.72,9.01.08.46-.15,1.13.52,1.29.59.14,1.11-.13,1.53-.58.29-.32.58-.65.87-.96h-.02ZM53.35,26.21c4.68-2.48,9.19-5.2,13.96-7.46-5.03,1.81-9.83,4.04-13.96,7.46ZM68.39,18.54c2.76-.92,5.54-1.84,8.3-2.75-.06-.17-.12-.34-.17-.51-2.69,1.13-5.75,1.21-8.12,3.26h0ZM24.08,110.64c1.17-1.09.44-2.09.13-3.13-.13-.44-.04-.92-.64-.85-.54.06-.75.59-.6,1.01.34.98.24,2.13,1.12,2.97ZM16.92,96.86h.17v-6.36h-.17v6.36ZM57.01,162.88c-.68-.16-.98.06-.93.39.11.72.87.81,1.35,1.17.2.15.5-.05.48-.37-.05-.73-.54-1.08-.9-1.19ZM32.87,141.84s.06.06.1.08c.05.01.1,0,.16,0-.03-.04-.06-.11-.11-.12-.04-.01-.1.03-.15.04Z"/>
  <path class="cls-1" d="M34.76,143.7c.93,2.52,2.97,4.23,4.55,6.28.41.54,1.09.87,1.22,1.62-.76.21-1.62.74-1.75-.7-.01-.19-.28-.45-.49-.53-3.35-1.25-5.3-4.18-7.13-6.85-2.51-3.66-5.35-6.93-8.5-10.01-.13-.13-.32-.24-.4-.4-1.73-3.62-3.65-7.13-4.44-11.18-.57-2.91-1.86-5.69-2.98-8.47-.46-1.14-.62-2.27-.8-3.46-.64-4.22-.78-8.53-2.39-12.57-.2-.51-.27-1.12-.24-1.68.16-2.85-.66-5.6-.71-8.42-.03-2.39.55-4.69,1.32-6.94.92-2.69,1.88-5.36,2.75-8.07.96-3,2.06-5.95,2.42-9.1.15-1.35,1.05-2.46,1.62-3.61,2.75-5.57,4.95-11.45,8.68-16.5.38-.51.79-1,1.24-1.44,3.16-3.14,6.06-6.59,9.64-9.23,4.14-3.05,7.75-6.8,12.56-9.02,4-1.84,7.89-4.06,12.09-5.21,2.81-.77,5.28-2.45,8.21-2.73.06,0,.16,0,.18-.04,1.96-3.37,5.79-.6,8.2-2.51,2.86,1.08,5.03-1.22,7.59-1.52,1.57-.18,3.21-.08,4.78-.07,4.22.04,8.47.14,12.65.92.16.03.29.22.43.33-3.84.47-7.71.22-11.55.65-17.41,1.98-32.75,8.65-46.12,19.97-1.22,1.03-2.4,2.06-3.34,3.32-1.59,2.14-3.93,3.3-6.03,4.7-2.56,1.69-4.24,4.12-5.97,6.45-2.48,3.34-4.79,6.85-6.71,10.54-1.56,2.99-2.97,6.08-4.02,9.36-1.27,3.92-3.08,7.68-4.46,11.59-.48,1.36-1.06,2.66-1.02,4.16.08,3.54-.5,7.03-.4,10.61.13,4.37.41,8.72,1.08,13.01.64,4.04,1.29,8.09,2.72,12.02,1.11,3.08,1.79,6.34,3.42,9.21,2.65,4.67,5.9,8.9,9.7,12.7.88.88,1.12,2.31,2.41,2.85l-.02-.02h.03Z"/>
  <path class="cls-6" d="M114.12,13.64c-.27.22-.53.22-.77-.06.29-.47.54-.32.77.06Z"/>
  <path class="cls-4" d="M56.36,163.12c.21.13.42.26.63.39-.39.16-.63.08-.63-.39Z"/>
  <path class="cls-1" d="M55.51,64.18c-.29.32-.58.64-.87.96-.41.46-.94.73-1.53.58-.67-.16-.43-.83-.52-1.29-.57-3.07.33-6.02.72-9.01.15-1.18.41-2.38.83-3.49.77-2.04,2.74-3.13,4.39-4.03,1.32-.72,2.62-1.41,3.78-2.38.43-.36.94-.7,1.47-.83,3.02-.78,5.19-2.82,7.31-4.92.59-.59,1.17-.91,1.99-.87,2.53.14,5.05-.21,7.59-.13,1.6.06,3.16-.72,4.87-.56.66.06,1.02.24,1.57.46.87.36,1.69,1.09,2.81.97.56-.06,1.52.11,1.69.67.68,2.18,3.18,1.87,4.37,3.36.37.47,1.25,1.41,1.67-.57.55-2.57,3.28-2.76,5.44-2.98,2.32-.24,4.68-.12,7.02-.22.94-.04,1.66-.19,2.13-.88.57-.82,1.33-1,2.21-1.21,1.4-.34,2.57-.67,3.85.62.68.69,2.14.85,2.99-.44.44-.67.69-.26,1.13.13,1.55,1.38,2.18,3.79,4.57,4.25,4.19.82,5.93,4.75,8.98,6.99,1.62,1.2,2.92,2.93,4.65,3.73,2.72,1.27,3.3,3.71,3.98,6.02,1.25,4.34,1.1,8.8.38,13.23-.36,2.19-.85,4.34-1.76,6.39-.18.4-.34,1.03-.64,1.13-2.44.8-1.06,1.74-.18,2.74,1.32,1.5,1.84,3.3,1.88,5.26.1,6.55.54,13.08.34,19.63-.29,9.91-.36,19.82-1.04,29.72-.17,2.54-.95,5-.9,7.54.01.56-.35.34-.5.51-2.26,2.54-5.39,2.6-8.33,2.53-6.41-.13-12.84.41-19.21-.02-8.22-.54-16.45-.09-24.66-.51-6.54-.34-13.07,0-19.6-.28-2.7-.12-5.35-.51-8.06.06-.74.16-2.14.29-2.43-1.19-.02-.12-.27-.25-.43-.29-3.74-.98-4.51-4.09-4.89-7.23-.36-2.9-.62-5.83-.78-8.77-.36-6.72-.59-13.45-.99-20.17-.23-3.83,0-7.79.29-11.66.37-5.03-.31-10.01-.25-15.02.02-1.79,1.19-3.76-.58-5.38-.05-.04-.01-.29.06-.33,2.36-1.53,1.02-4.07,1.68-6.07.72-2.2.66-4.58,1.51-6.77h.02ZM91.61,124.47c.72-.22,1.64.2,2.18-.67-1.88-1.13-1.96-1.11-2.18.68l-.06.04.04-.05h0ZM111.85,121.8s.09.05.13.08c-.05-.02-.1-.04-.15-.06.09-1.17-.85-2-1.57-2.13-1.98-.36-4.04-.3-6.07-.42l-.08.51c2.7.24,5.63-.25,7.73,2.02h0ZM111.23,49.67c1.21.37,2.41-.15,3.54-.11,1.39.05,2.7.06,4.02-.35.81-.26,1.63-.19,2.45-.09.24.03.62-.08.44.52-.41,1.43.13,2.83.34,4.23.27,1.79,3.06,3.34,5.71,2.76-.69-.3-1.01-.38-1.27-.56-2.38-1.76-2.72-3.11-1.46-5.83,1-2.19.68-3.1-1.74-3.31-4.03-.33-8.08-1.63-12.15-.23-.61.21-1.73-.38-1.78.52-.06,1.1,1.19.51,1.8.84.08.05.13.18.19.27-.22.67-1.27-.44-1.26.57,0,.5.59.35.91.51-.04.13-.08.26-.13.39.13-.04.27-.08.4-.12h-.01ZM122.13,97.3c-.49-.08-.97-.49-1.46-.21-2.62,1.51-5.99,1-8.37,3.15-.1.09-.37.01-.55-.03-2.21-.61-3.93.14-5.32,1.88-.22.27-.5.74-.78.08-.32-.76-.64-.34-.97-.05-1.33,1.13-2.86,1.96-4.4,2.75-2.31,1.2-4.5,2.93-7.64,1.79.59.8.83,1.51.86,2.32.02.45.03,1.25.94,1.05l5.2-1.47c.68-.44,1.43-.47,2.2-.46,1.85.04,3.47-.57,4.94-1.68,1.6-1.21,3.34-1.86,5.43-1.94,1.53-.06,3.26.16,4.6-.47,1.16-.54,2.32-.43,3.19-.24,2.12.47,4.12,1.56,5.97-.54.23-.26.55-.22.88-.18,2.17.21,3.24-.81,3.21-3.05-.51,1.13-1.5,1.26-2.39,1.63-1.22.49-1.76.08-2.09-1.07-.04-.12-.71-.06-1.08-.09-.06-.07-.13-.14-.19-.22.12-.44.23-.87.39-1.43-.56.14-.94.17-1.27.34-1.65.84-1.53-.13-1.31-1.25.04-.18.04-.37.06-.54.06-.07.11-.14.16-.21-.08.05-.15.11-.22.16h0ZM75.99,112.65l-.04-.04c-.06-.72-.74-1.3-.81-1.84-.11-.97-.1-1.69-1.31-1.76-.83-.04-1.67-.67-2.42.28-.5.65-.67-.25-.65-.32.69-1.89-.97-1-1.63-1.23,1.29-2.22-1.59-1.96-1.68-3.45.15-.47,1.07.44,1.09-.27.02-.75-.75-.46-1.19-.57-.24-.06-.67-.08-.7-.19-.5-2.17-1.78-.71-2.67-.5-.46.11-.8.95-1.41.33-.5-.49-.87-1.12-.66-1.88.23-.85.76-1.71.7-2.54-.14-1.99.04-3.68,2.57-4.27-2.14-1.09-2.66-1.86-3.54-4.9-1.06-3.68,0-4.8,3.78-4.22,1.45.22,2.98-.24,4.42.46.32.16.84-.04.93-.45.1-.44-.31-.64-.68-.78-.78-.32-1.56-.66-2.36-.93-1.91-.66-2.14-1.58-1.12-3.28.75-1.24,2.36-1.13,2.93-1.84,1.28-1.58,2.93-1.23,4.42-1.73,1.78-.6,3.85.39,5.35-2.05,1.18-1.92,3.55-3.53,6.26-3.48.96.01,1.36-.21,1.53-1.12.24-1.33,1.21-1.66,2.41-1.63,1.84.04,2.39-.55,2.2-2.34-.25-2.39.49-3.33,2.55-3.14.48.04.95.3,1.42.49,2.26.89,4.61,1.39,7.01,1.76.59.09,1.14-.63,1.31-.39,1.47,2.06,3.87,1.74,5.87,2.4,1.43.48,3.01.47,4.42,1.13.51.24,1.26.32.41,1.1-.28.26-.03.59.21.81,1.18,1.11,1.84,2.54,2.48,4,.44,1.01,3.46,2.17,4.12,1.47,1.41-1.49,3.53-2.11,4.66-3.91.18-.29.67-.46.34-.93-.25-.37-.7-.57-.99-.32-1.32,1.13-2.25.08-3.14-.6-.71-.55-1.42-1.05-2.25-1.38-2.81-1.09-4.99-4.67-4.82-7.74.05-.98.37-1.4,1.34-1.37.41.01,1.27-.14,1.12-.32-1.01-1.2.33-.67.59-.9.45-.37.92-.8.64-1.43-.29-.64-.95-.62-1.5-.39-.38.16-.71.5-1.02.81-.32.32-.43,1.28-1.03.14-.21-.4-.83-.19-1.23,0-1.16.51-1.81-.07-1.83-1.13-.05-2.12-1.31-3.48-2.63-4.88-.38-.4-1.15-.7-.9-1.48.43-1.3-.44-1.15-1.21-1.15.02-.34,0-.64-.45-.62-.06,0-.11.19-.15.29.21.1.41.21.62.31-1.08,1.65-2.45.27-3.45.06-2.18-.47-4.16-1.82-6.54-1.6-1.01.09-1.83-.08-2.27-1.2-.19-.48-.74-.9-1.22-1.17-.28-.16-.55-.33-1.02.39-.76,1.16.62,1.82.16,2.39-1.43,1.76-1.46,4.82-4.56,5.08-.37.03-.58.37-.62.65-.27,2.25-2.34,2.22-3.76,2.82-2.79,1.18-5.78,1.97-7.11,5.13-.2.49-.37.93-1.01.95-.34,0-.73.31-.5.6,1.16,1.46-.48,1.78-.99,1.82-1.68.14-2.26,1.35-3,2.47-.19.28-.29.79-.79.33-1.18-1.08-2.09-.35-2.95.49-.4.39-.67.92-1.09,1.28-2.39,2.06-2.61,2.17-1.1,4.78,1.1,1.9.37,2.8-.9,3.99-1.18,1.11-1.9.9-2.67-.35-.49-.8-.54-1.89-1.67-2.57,0,2.9.36,5.62-1.04,8.13-.33.59-.26,1.58.24,2.19.59.71.67,1.54.72,2.32.22,3.23.97,6.35,1.63,9.49.09.45-.01.83-.22,1.26-.74,1.58-1.46,3.19-.12,4.85.22.27.34.72.31,1.06-.28,3.38,2.3,5.16,4.16,7.27.57.65,1.99.44,2.81.96,2.57,1.65,5.56,1.73,8.34,1.89,3.49.22,7.08-.32,10.43-1.51.93-.33,1.69.4,2.31.1.99-.47-.74-1.19,0-2.13.76-.98-.39-2.52-1.71-2.6-1.89-.12-3.45.61-4.55,2.06-.52.69-.73,1.17-1.5.39-.29-.29-.69-.25-1.08-.21-1.96.21-3.93.37-5.37,2v.03ZM65,127.72c-1.92,1.02-3.58,1.6-3.53,3.61.05,1.76.01,3.52.23,5.25.08.67-.61,1.51.11,1.95,1.27.8,2.67,1.41,4.21,1.51.39.03.81-.11.97-.48.18-.42-.13-.81-.48-.9-1.24-.34-.91-1.2-.95-2.11-.08-1.8.38-3.59,1.27-4.88,1.05-1.55-1.2-3.46.92-4.65.43-.24-.21-.69-.62-.88-1.03-.49-2.45-1.29-2.36-2.17.21-2.05-.41-3.79-1.07-5.58-.23-.63-.39-.97.55-1.14.76-.13,2.11-.37,1.64-1.53-.43-1.09-1.22.07-1.85.21-.24.06-.52.01-.73.11-1.42.57-2.19,2.32-1.97,3.77.24,1.55.73,3.04.97,4.55.25,1.58-.23,3.25,2.69,3.38h0ZM135.17,128.84c.06-2.11-.64-4.17-.45-6.32.05-.54-.61-.91-1.28-.82-.65.09-1.1.35-.94,1.1.09.43.31.87-.14,1.21-1.53,1.13-1.29,2.65-.6,3.98.82,1.59-1.29,3.94,1.36,4.99.08.03.07.36.05.54-.15,1.24-3.94,5.07-5.15,5.18-.29.03-.64-.05-.89-.2-.42-.24-.78-.85-1.29-.33-.36.36-.29.9-.21,1.43.11.67.48.79,1.05.82,2.65.14,5.29.32,7.94.47.92.05,1.36-.52,1.2-1.31-.31-1.47.05-2.9.05-4.35,0-2.17-.71-4.24-.68-6.4h0ZM132.73,91.46c-.52-1.54.64-3.04-.06-4.6-.68-1.5-1.13-3.08-.94-4.78.06-.56.06-1.41-.64-1.38-1.28.06-2.06-.89-3.13-1.21-1.68-.51-2.53-1.7-2.78-3.38-1.2.16-1.51,1.62-2.95,1.59.71.51,1.22.79,1.6,1.18.87.91,2.54,2.11,2.37,2.78-.57,2.17.75,1.71,1.82,1.81,2.41.22,3.22,1.18,2.72,3.48-.42,1.93.06,3.43,1.98,4.5h.01ZM132.91,76.84c.9-.47,1.35-1.18,1.55-1.94.78-3,1.62-6.01,2.09-9.07.22-1.47.05-3.19-1.3-4.35-1.67-1.43-3.86-2.07-5.42-3.69-.43-.44-1.09-.26-1.83-.16.55.45.97.74,1.32,1.1,1.76,1.84,4.02,3.48,2.59,6.6-.15.32-.06.75-.11,1.12-.13,1.02.71,1.27,1.31,1.23.83-.06.48-.87.39-1.38-.08-.43-.35-.82-.47-1.25-.13-.45-.29-.95.33-1.4,3.07,4.52.85,8.83-.45,13.18h0ZM60.95,73.5c.69-1.91,1.06-4.01,2.16-5.66.97-1.46-.03-2.81.52-4.12.11-.27.09-.65-.34-.73-.36-.07-.67.12-.78.41-.2.52-.3,1.08-.43,1.63-.66,2.77-1.87,5.45-1.11,8.46h0ZM67,61.58c.5.27.83.03,1.12-.36.18-.24.23-.42-.05-.6-.84-.54-1.03-1.36-1.01-2.3.01-.54-.43-.79-.84-.9-.44-.11-.61.32-.81.64-1.5,2.39-1.17,3.14,1.59,3.51h0ZM73.63,55.26c.01-.38-.11-1.23-1.04-1.01-.89.21-2.32-.07-2.32,1.61,0,.9.15,1.8,1.15,1.85,1.29.06,2.1-.71,2.22-2.44ZM76.16,108.87c1.69.35,3.56.89,5.03-.01,1.26-.77,1.84-2.54,3.61-2.87-1.25.33-2.71-.05-3.48,1.43-.25.48-1.13.85-1.7.6-1.39-.6-2.34.32-3.46.85ZM84.64,85.29c-1.32-.02-2.03-.46-2.79-.65-1.27-.31-2.58-.58-3.84.14-.4.22-.59.47-.31.89.13.19.32.51.58.24,1.11-1.15,2.32-.57,3.18.1,1.2.93,1.88.32,3.19-.72h0ZM107.02,90.07c-2.32-2.05-4.51-3.53-7.39-3.51-.35,0-.75-.37-1.01.09-.1.18-.06.51.03.72.18.42.59.48.97.32,1.96-.81,3.41.29,4.79,1.36.71.54,1.34,1.06,2.61,1.03h0ZM82.95,136.37c-.92.37-1.85.7-2.76,1.1-.32.14-.4.51-.24.81.13.24.39.15.66.1.93-.16,1.74-.6,2.55-1.04.2-.11.56-.06.46-.41-.08-.31-.32-.53-.68-.57h0ZM113.78,129.84c1.17-1.01,2.41-.36,3.35-1.25-.55-.52-1.39-.62-1.53-1.56-.06-.43-.88-.81-1.43-.63-.57.19-.21.84-.11,1.16.2.66-.15,1.19-.27,2.27ZM118.4,117.68c-1.53-.8-2.57-.09-3.51.9-.15.16-.26.48-.2.67.08.26.4.3.64.17,1-.57,2.3-.65,3.08-1.74ZM122.46,129.89c-1.12-1.92-2.55-.7-3.8-.72-.08,0-.23.27-.25.42-.03.29.2.55.44.43,1.14-.6,2.33.48,3.6-.13h0ZM90.28,87.39c1.92.36,3.85.79,6.15-.38-2.37.11-4.28-.2-6.15.38ZM99.03,103.1c1.48-.41,2.19-1.51,3.63-2.34-1.83.24-2.69,1.12-3.63,2.34ZM82.27,44.29c1.05.78,2.08.97,3.1.55-.99-.45-1.92-.64-3.1-.55ZM111.21,129.37c-.76.09-1.34-.92-2.16-.33-.08.06-.06.44.02.49.68.46,1.39.29,2.13-.16ZM102.48,118.88c-.9.3-1.94-.43-3.16.7,1.36-.26,2.36.21,3.16-.7ZM95.27,97.03c-.51,0-.83.27-.9.75-.08.5.29.61.7.62.62.03.66-.43.74-.87.08-.46-.2-.51-.54-.52h0ZM85.03,81.58c-.52.44.04,1.4-.89,1.67-.41.12-.24.64.2.83.42.18.77.13.79-.41.04-.68.3-1.38-.11-2.09ZM70.32,106.31c.83.32,1.32-.16,2.02-.44-1.08-.98-1.38.11-2.02.44ZM98.92,132.98c-.15.1-.43.19-.52.39-.14.29.18.42.39.48.28.09.48-.11.58-.35.11-.29-.05-.46-.44-.52h0ZM98.93,135.16c-.15-.18-.28-.45-.36-.44-.35.06-.25.37-.22.61.02.19.12.39.34.28.12-.06.16-.29.24-.44h0ZM81.77,89.93c-.15-.06-.28-.15-.34-.11-.13.07-.23.21-.34.32.09.04.22.15.28.12.14-.06.26-.19.41-.32h0ZM69.35,105.17s.09.04.13.04c.01,0,.03-.06.05-.1-.04-.01-.09-.04-.13-.04-.01,0-.03.06-.05.1ZM79.63,91.3l.06-.16c-.07.04-.13.08-.2.11.05.01.09.03.14.05ZM80.34,90.56l-.07.09h.11s-.04-.09-.04-.09h0Z"/>
  <path class="cls-1" d="M33.1,72.83c-.66-1.26-.58-2.46,0-3.79,1.19-2.76,2.39-5.5,3.69-8.21,1.49-3.11,3.67-5.69,5.38-8.59,1.39-2.36,3.53-4.41,6.05-6.07.34,1.35-.75,1.81-1.29,2.4-1.78,1.91-2.38,4.54-4.07,6.5-3.42,3.96-5.16,8.88-7.19,13.55-2.04,4.67-3.81,9.59-4.18,14.72-.25,3.47-1.2,6.85-.78,10.46.24,2.01.75,4.3.15,6.27-.49,1.62-.15,3.01-.04,4.52h.01c-.07,1.06.08,2.16-.45,3.68-.97-3.26-1.53-6.14-1.46-9.07.04-1.53-.46-2.98-.43-4.44.03-1.09.61-2.15.56-3.36-.2-4.93,1.51-9.62,1.82-14.5.08-1.23.74-2.42.9-3.65.17-1.36.73-.81,1.34-.44l.05.04-.06-.04h.01Z"/>
  <path class="cls-1" d="M40.85,48.47c-2.19,3.69-4.73,7.16-6.63,11.05-3.04,6.23-5.53,12.6-7,19.43-.87,4.02-1.5,8.08-2.32,12.2-.72-11.64,5.65-30.74,15.48-43.22.15.18.31.36.46.54Z"/>
  <path class="cls-2" d="M40.85,48.47c-.15-.18-.31-.36-.46-.54,4.4-6.03,9.52-11.36,15.48-15.86.14-.11.35-.13.52-.19v-.04c.27.88-.54,1.17-.97,1.49-5.73,4.21-10.34,9.48-14.57,15.13Z"/>
  <path class="cls-1" d="M60.9,28.89c4.13-3.41,8.93-5.63,13.96-7.46-4.77,2.26-9.27,4.98-13.96,7.46Z"/>
  <path class="cls-1" d="M25.88,111.06c-.3-.11-.66-.24-.63-.61.2-2.73-.59-5.36-.8-8.04-.04-.45-.14-.98.5-1.6.32,3.58.62,6.93.91,10.27h.02Z"/>
  <path class="cls-1" d="M75.93,21.22c2.37-2.04,5.42-2.14,8.12-3.26.06.17.12.34.17.51-2.76.92-5.54,1.84-8.3,2.75h0Z"/>
  <path class="cls-1" d="M31.62,113.32c-.88-.84-.78-2-1.12-2.97-.15-.42.07-.95.6-1.01.6-.07.51.41.64.85.31,1.05,1.04,2.04-.13,3.13Z"/>
  <path class="cls-1" d="M24.46,99.54v-6.36h.17v6.36h-.17Z"/>
  <path class="cls-6" d="M25.85,111.08c.36.27.31.65.31,1.05-.41-.31-.18-.73-.29-1.07h-.02Z"/>
  <path class="cls-6" d="M40.4,144.51s.11-.06.15-.04c.04.01.07.08.11.12-.06,0-.11,0-.16,0-.04,0-.06-.05-.1-.08Z"/>
  <path class="cls-2" d="M56.39,31.88c.13-.09.24-.19.37-.28.04.08.13.22.12.23-.16.12-.33.36-.5,0v.04s.01,0,.01,0Z"/>
  <path class="cls-6" d="M48.38,153.92c.1.14.21.27.31.41-.05.04-.11.07-.15.11-.05-.17-.1-.35-.15-.52h-.01s0,0,0,0Z"/>
  <path class="cls-6" d="M30.81,104.59c.06.06.13.11.2.16-.04,0-.1,0-.12-.02-.03-.04-.04-.1-.06-.16h-.01Z"/>
  <path class="cls-4" d="M33.1,72.83l.06.04-.05-.04h-.01Z"/>
</svg>