<?xml version="1.0" encoding="UTF-8"?>
<svg id="Layer_1" data-name="Layer 1" xmlns="http://www.w3.org/2000/svg" viewBox="0 0 489.63 302.24">
  <defs>
    <style>
      .cls-1 {
        fill: #537959;
        stroke-width: 0px;
      }
    </style>
  </defs>
  <path class="cls-1" d="M60.03,120.57c4.81,4.41,5.39,9.89,5.23,15.62-.09,3.47.03,6.93-.03,10.4-.04,2.35.94,3.82,3.36,4.48,2.82.77,4.72,2.45,3.95,5.5-.78,3.12-3.39,3.94-6.36,3.74-6.02-.4-10.64-4.31-11.31-10.1-.52-4.38-.31-8.83-.47-13.24-.07-2.14.06-4.34-.38-6.41-.67-3.16-2.95-4.89-6.35-5.07-3.57-.2-6,1.4-7.03,4.66-.43,1.34-.53,2.83-.53,4.25-.06,9.56-.07,19.13-.03,28.69,0,3.24.69,6.21,4.22,7.73,3.47,1.49,7.05.45,9-2.71.75-1.23,1.3-2.6,2.15-3.77,1.73-2.4,4.49-2.6,6.62-1.33,1.4.84,2.75,3.36,2.48,4.85-.43,2.4-1.97,4.77-3.51,6.81-1.47,1.95-2.18,2.92.82,4.12,14.78,5.85,30.3,9.13,45.82,12.41,6.94,1.46,13.17-.04,19.03-3.97,12.66-8.48,20.36-19.69,21.58-34.69.11-1.31.25-2.62.38-3.93.31-3.09,2.01-4.95,5.31-4.78,3.21.17,4.72,2.38,4.45,5.16-.51,5.2-.8,10.56-2.36,15.51-5.06,16.07-15.68,27.64-31.7,34.6-5.75,2.5-11.73,2.44-17.55,1.35-18.55-3.46-36.85-7.96-54.38-14.87-5.61-2.21-11.02-4.99-16.22-7.99-4.57-2.63-6.67-7.16-6.76-12.16-.2-11.23-.29-22.48.06-33.71.18-6.08,3.3-10.56,9.19-13.69,23.97-12.73,50.09-18.72,76.72-23.25,38.05-6.47,76.39-9.27,114.99-7.82,25.5.96,50.63,5.02,75.36,11.05,5.72,1.4,10.75,1.07,15.58-2.17,1.11-.75,2.36-1.32,3.58-1.91,2.88-1.36,5.29-.77,7.2,1.7.45.57.88,1.16,1.28,1.77,3.74,5.62,3.8,5.64,9.95,2.76,5.67-2.65,8.01-1.86,10.98,3.73,2.72,5.12,2.92,5.2,8.52,3.27,7.57-2.6,8.72-2.19,11.71,5.06,1.22,2.98,2.9,3.93,5.97,2.5,1.22-.57,2.54-.99,3.86-1.3,4.18-1,6.29.02,8.09,3.76.16.32.37.64.44.99,1.73,8.97,8.77,12.54,16.58,15.76,6.59,2.72,12.97,6,19.24,9.36,4.68,2.51,4.62,7-.22,9.41-8.59,4.29-17.27,8.45-26.15,12.13-5.13,2.13-7.68,5.55-8.95,10.52-1.55,6.12-4.58,7.38-10.71,4.84-3.28-1.36-5.52-.43-6.72,2.78-2.27,6.11-5.12,7.08-11.01,3.76-3.95-2.23-4.62-2.04-6.77,2.05-3.5,6.62-5.21,7.18-11.77,3.47-2.34-1.33-3.74-1.46-5.33,1.15-3.71,6.07-5.74,6.66-12,3.27-4.46-2.42-8.59-2.46-13.49-1.21-25.01,6.38-50.35,10.86-76.23,12.52-22.12,1.42-44.18,1.25-66.26-.42-10.02-.76-20.04-1.62-30.05-2.49-1.46-.13-3.21-.21-4.26-1-1.43-1.08-3.52-3.24-3.17-4.2.62-1.68,2.67-3.4,4.52-3.99,1.98-.64,4.41-.12,6.63.11,31.06,3.12,62.2,4.66,93.37,2.46,25.69-1.81,50.93-6.54,75.77-13.09,4.53-1.19,8.76-1.57,13.02.42,2.36,1.11,3.77.51,5.13-1.7,3.85-6.26,6.23-6.86,12.54-3.24,2.43,1.39,3.85,1.12,4.8-1.47.37-1.01.93-1.96,1.45-2.91,2.03-3.75,4.97-4.71,8.96-2.9,1.12.51,2.18,1.14,3.24,1.77,1.72,1.03,2.79.48,3.43-1.23.04-.11.08-.23.13-.34,3.88-8.09,3.85-8.04,12.41-5.19.98.33,3.1-.03,3.38-.64,3.28-7.06,10.02-9.88,16.51-13.15,1.59-.8,2.7-2.52,4.03-3.82-1.47-1.27-2.74-3.08-4.46-3.73-21.65-8.15-43.83-14.68-66.52-19.58-14.77-3.2-29.59-6.26-44.47-8.93-31.61-5.65-63.54-7.82-95.68-6.83-10.67.33-21.47.77-31.4,5.08-3.35,1.45-6.5,3.83-9.02,6.45-3.16,3.27-5.82,3.9-9.04.79-9.1-8.78-20.41-12.77-32.9-14.43-17.95-2.38-34.44,2.17-50.34,9.64-.3.14-.51.5-1.11,1.13v.04Z"/>
  <path class="cls-1" d="M241.45,80.52c-22.41-1.82-44.82-1.14-67.23-.04-.99.05-2,.11-2.99.06-3.88-.13-4.85-1.46-3.1-4.71,6.56-12.22,14.19-23.72,24.71-33.27,4.58-4.16,6.76-3.73,11.21.37,9.67,8.87,19.52,17.58,29.68,25.92,4.2,3.44,9.44,5.71,14.15,8.61.83.52,1.32,1.54,1.97,2.33-1.06.38-2.1,1.02-3.18,1.09-1.73.09-3.47-.21-5.21-.35h0Z"/>
  <path class="cls-1" d="M451.9,226.72c-.4,2.88-1.87,3.96-4.24,3.41-1.41-.33-2.72-1.17-3.95-1.96-14.25-9.35-22.79-22.8-29.73-37.38-2.32-4.87-4.76-9.68-6.94-14.6-1.51-3.39-.64-4.98,2.78-6.58,5.51-2.57,10.99-5.2,16.44-7.88,4.25-2.08,5.6-1.54,6.28,2.92.56,3.65.62,7.38,1.42,10.97,3.58,16.19,7.97,32.15,16.05,46.97.79,1.46,1.4,3.01,1.91,4.13h-.02Z"/>
  <path class="cls-1" d="M430.53,136.37c-2.22-.98-3.57-1.56-4.89-2.18-5.21-2.45-10.41-4.98-15.65-7.37-3.77-1.72-4.53-3.06-2.7-6.68,6.77-13.35,11.66-27.75,22.03-39.12,4.61-5.05,10.17-9.32,15.59-13.62,1.19-.94,3.55-.52,5.37-.72.08,1.74.82,3.79.12,5.17-6.11,12.08-10.89,24.58-13.74,37.72-1.61,7.42-2.66,14.95-4.11,22.41-.29,1.48-1.26,2.84-1.99,4.41h-.03Z"/>
  <path class="cls-1" d="M208.48,127.99h22.63c1.89,0,3.82-.33,5.64-.02,1.56.27,2.98,1.24,4.47,1.89-1.09,1.15-1.97,2.74-3.31,3.35-4.31,1.98-8.81,3.59-13.2,5.39-11.81,4.86-23.6,9.77-35.43,14.62-1.73.71-3.56,1.6-5.35,1.64-1.91.02-4.51-.35-5.54-1.56-.81-.96.31-3.48.58-5.29.01-.1.16-.19.23-.29,2.82-4.17,2.16-7.19-2.36-9.72-2.31-1.29-4.28-3.07-2.97-5.5.85-1.57,3.37-3.14,5.19-3.2,9.8-.31,19.61-.14,29.42-.14v-1.16h0Z"/>
  <path class="cls-1" d="M99.67,115.04c13.26.02,23.23,9.16,23.26,21.32.03,11.97-10.48,21.4-23.81,21.34-12.75-.05-22.91-9.48-23.01-21.37-.1-12.2,9.98-21.33,23.55-21.31h.01ZM116.55,136.39c.1-8.43-7.56-15.42-17.01-15.5-9.45-.08-16.96,6.7-17.29,15.2-.37,9.5,9.4,15.72,16.83,15.81,8.18.1,17.87-6.28,17.48-15.5h-.01Z"/>
  <path class="cls-1" d="M278.81,85.16c-7.12-1.23-13.33-2.23-19.5-3.39-2.11-.39-2.65-1.88-1.42-3.46,7.78-10.07,16.21-19.52,29.11-24.22,1.34-.49,3.06-.04,4.6-.03-.03,1.53.43,3.28-.18,4.58-3.68,7.68-8.16,15.05-9.95,23.45-.26,1.26-1.92,2.25-2.65,3.06h-.01Z"/>
  <path class="cls-1" d="M190.03,215.12c2.15,0,4.31.05,6.45-.01,3.09-.1,4.06,1.4,4.15,4.41.23,7.53.86,15.03,1.15,22.55.05,1.25-.42,3.14-1.28,3.62-.9.5-2.98.11-3.8-.68-7.68-7.35-13.95-15.68-16.84-26.16-.84-3.01.37-4.33,3.36-4.22,2.27.09,4.53.22,6.8.33v.17Z"/>
  <path class="cls-1" d="M284.43,209.15c4.89-1.05,9.74-2.24,14.68-3.05,1.11-.18,2.62.8,3.65,1.61,2.97,2.32,5.82,4.81,8.65,7.29.6.52,1.45,1.62,1.26,1.97-.4.73-1.35,1.37-2.2,1.65-.92.31-2.02.28-3.01.2-8.5-.69-16.09-3.68-23.1-8.15.03-.51.06-1.02.09-1.52h-.01Z"/>
  <path class="cls-1" d="M366.89,161.95c.05,2.32-2.37,4.24-5.39,4.29-3.04.06-5.57-1.74-5.69-4.05-.11-2.35,2.21-4.37,5.17-4.48,3.07-.11,5.87,1.89,5.91,4.24h-.01Z"/>
  <path class="cls-1" d="M343.49,154.2c-.01,2.8-2.54,5.02-5.59,4.93-3.1-.09-5.54-2.34-5.5-5.08.03-2.81,2.38-4.84,5.63-4.88,3.12-.03,5.47,2.13,5.46,5.02Z"/>
  <path class="cls-1" d="M289.11,163.42c2.72.07,5.12,2.45,5.09,5.05-.04,2.89-2.45,5.04-5.5,4.89-3.37-.16-5.6-2.13-5.59-4.92.02-2.82,2.75-5.1,6.01-5.02h-.01Z"/>
  <path class="cls-1" d="M309.42,173.36c3.25-.05,5.63,1.94,5.73,4.78.11,2.98-2.33,5.17-5.78,5.18-2.95,0-5.23-2.05-5.31-4.79-.09-2.89,2.21-5.11,5.34-5.15h.01Z"/>
  <path class="cls-1" d="M284.74,149.18c3.37-.03,5.77,2,5.77,4.92,0,2.76-2.3,4.97-5.27,5.04-3.17.07-5.79-2.16-5.82-4.97-.03-2.72,2.36-4.95,5.32-4.99Z"/>
  <path class="cls-1" d="M316.3,142.06c2.97.07,5.17,2,5.01,4.4-.17,2.52-2.42,4.25-5.36,4.13-2.85-.13-5.81-2.42-5.72-4.41.11-2.02,3.28-4.18,6.06-4.11h.01Z"/>
  <path class="cls-1" d="M256.77,193.28c-2.41-.08-4.76-2.74-4.43-5.37.36-2.94,1.97-4.59,4.68-4.59,2.89,0,5.28,2.35,5.14,4.98-.12,2.41-2.99,5.05-5.38,4.98h0Z"/>
  <path class="cls-1" d="M327.46,167.67c2.59-.04,4.84,2.17,4.94,4.86.1,2.78-2.24,5.14-5.07,5.1-2.51-.04-4.84-2.49-4.78-5.05.05-2.65,2.28-4.87,4.92-4.9h0Z"/>
  <path class="cls-1" d="M321.95,154.87c2.96.03,5.48,2.3,5.52,4.95.05,2.95-2.45,5.12-5.74,5.01-3.08-.11-5.41-2.32-5.35-5.05.06-2.63,2.67-4.94,5.57-4.9Z"/>
  <path class="cls-1" d="M310.22,164.13c.02,2.69-2.16,4.93-4.82,4.97-2.81.04-5.07-2.27-5.03-5.15.03-2.68,2.25-4.83,4.97-4.81,2.52.02,4.87,2.41,4.89,4.99Z"/>
  <path class="cls-1" d="M286.82,182.29c.18-2.66,2.84-4.82,5.75-4.66,2.92.17,5.43,2.58,5.33,5.12-.11,2.75-3.02,5.05-6.07,4.81-3.07-.24-5.19-2.48-5-5.28Z"/>
  <path class="cls-1" d="M269.56,185.29c.07-2.7,2.34-4.85,5.06-4.82,2.67.04,4.85,2.36,4.8,5.07-.06,2.64-2.47,4.98-5.03,4.88-2.55-.1-4.87-2.59-4.82-5.15h-.01Z"/>
  <path class="cls-1" d="M240.37,186.16c2.71.14,4.54,1.39,4.55,4.1.02,2.45-2.45,4.52-5.21,4.44-2.98-.09-5.93-2.34-5.88-4.49.06-2.23,2.89-4.11,6.54-4.04h0Z"/>
  <path class="cls-1" d="M378.08,150.6c2.66.02,4.84,2.3,4.84,5.06s-2.21,4.95-4.95,4.89c-2.62-.06-4.87-2.38-4.91-5.06-.03-2.59,2.35-4.92,5.02-4.89Z"/>
  <path class="cls-1" d="M344.91,161.99c2.68.07,4.83,2.43,4.74,5.2-.09,2.88-2.15,4.81-5.11,4.74-2.81-.06-4.82-2.22-4.74-5.11.07-2.72,2.39-4.91,5.11-4.84h0Z"/>
  <path class="cls-1" d="M354.56,143.49c2.73-.03,4.92,2.15,4.95,4.93.02,2.71-2.21,5.01-4.88,5.03-2.6.02-4.97-2.32-4.98-4.96,0-2.75,2.15-4.96,4.91-5Z"/>
  <path class="cls-1" d="M272.74,176.21c-3.46.02-5.7-1.81-5.64-4.24.07-2.56,1.7-4.06,4.59-4.28,2.73-.2,5.45,2.15,5.26,4.5-.2,2.54-1.85,3.93-4.2,4.02Z"/>
  <path class="cls-1" d="M109.38,136.51c-.02,5.6-4.17,9.81-9.68,9.82-5.5.02-10.1-4.6-10.03-10.06.08-5.5,4.73-9.97,10.26-9.86,5.43.11,9.47,4.43,9.45,10.08h0Z"/>
</svg>