<?xml version="1.0" encoding="UTF-8"?><svg id="Layer_1" xmlns="http://www.w3.org/2000/svg" viewBox="0 0 243.74 231.98"><defs><style>.cls-1{fill:#537959;}.cls-1,.cls-2,.cls-3,.cls-4,.cls-5,.cls-6{stroke-width:0px;}.cls-2{fill:#5a3224;}.cls-3{fill:#e2ddc6;}.cls-4{fill:#b69368;}.cls-5{fill:#ede9dc;}.cls-6{fill:#e2e2e2;}</style></defs><g id="RXXOgz"><rect class="cls-3" x="56.96" y="34.91" width="140.84" height="153.17"/><path class="cls-5" d="m128.74,0c2.36.16,4.73.32,7.09.48.34.39.71.38,1.1.08,8.84,1.3,17.68,2.59,26.12,5.61,5.12,1.83,10.21,3.74,15.09,6.14,20.53,10.08,36.58,24.84,48.54,44.03,8.23,13.22,13.44,27.45,15.77,42.68.98,6.4,1.38,12.89,1.28,19.39-.04,2.49-1.08,4.85-.69,7.36-1.22.19-.89,1.17-.96,1.89-.5,4.68-1.39,9.3-2.43,13.89-1.59,7.03-4.18,13.74-6.74,20.47-3.66,8.48-8.24,16.43-14.09,23.68-5.98,7.4-12.86,13.85-20.09,20.08-10.82,9.33-23.2,15.76-36.75,20.13-19.66,6.34-39.72,7.81-60.11,3.91q.3-3.35-2.37-3.27c1.73.71,1.32,1.9,1.36,2.95-6.2-.99-12.1-2.96-18.03-4.93-9.68-3.22-18.08-8.77-26.82-13.72-.48-.27-.88-.63-.77-1.27,1.64-2.66,1.11-3.85-1.88-4.28-.22-1.5-.89-1.93-2.23-.87.79.29,1.53.57,2.26.84-.3,1.44,1.95,2.24,1.01,3.85-4.74-2.41-8.34-6.22-12.26-9.61-2-1.74-3.76-3.74-5.63-5.63-.2-1.04-1.16-1.51-1.75-2.26-2.25-2.86-5.17-5.25-6.5-8.76.98-.49,2.66-.19,2.91-1.21.2-.82-.55-2.15-2.39-2.43.56,1.41-.13,2.5-.49,3.67-1.84-.75-2.18-2.74-3.44-3.97-5.43-5.3-10.08-11.2-13.86-17.72-2.33-4.02-3.29-8.56-4.89-12.85-2.03-5.47-2.97-11.13-3.88-16.76-.96-5.97-1.36-12.05-1.55-18.15-.16-4.99.69-9.87.57-14.8-.05-2.09.77-3.9,1.46-5.8,1.97-5.45,4.56-10.7,6.37-16.17,1.51-4.57,3.52-8.89,5.75-13.05,2.75-5.14,6.05-10.04,9.59-14.7,2.47-3.25,4.87-6.64,8.53-9,3.02-1.94,6.36-3.57,8.62-6.55,1.34-1.76,3.03-3.19,4.77-4.63C65.44,12.98,87.36,3.66,112.23.9c5.5-.61,11.03-.25,16.51-.9ZM43.02,196.22c.07.24.14.49.21.73.07-.05.15-.1.22-.15-.15-.19-.3-.38-.45-.57-.13-1.55-.81-2.81-2.06-3.79-.4-.31-.8-.42-1.19-.09-.15.13-.25.59-.21.62,1.46.78,1.39,3.13,3.48,3.25Zm-32.17-59.78c.16.47-.17,1.06.42,1.49,0-.57.06-1.09-.45-1.47-.42-4.66-.85-9.32-1.3-14.32-.91.86-.76,1.6-.71,2.23.3,3.75,1.43,7.41,1.14,11.22-.04.51.47.69.9.86ZM54.46,26.01c-.25.08-.55.11-.75.26-8.52,6.27-15.83,13.71-22.12,22.12-14.04,17.4-23.14,44.06-22.12,60.29,1.16-5.75,2.07-11.41,3.31-17.02,2.1-9.53,5.65-18.42,10-27.1,2.71-5.41,6.34-10.26,9.47-15.41,6.05-7.88,12.63-15.24,20.82-21.11.62-.44,1.78-.85,1.37-2.07.24.49.49.16.72-.02.02-.01-.11-.21-.17-.32-.18.13-.35.26-.53.39ZM17.93,127.39c.03.07.04.16.09.22.03.03.11.02.17.03-.09-.08-.18-.15-.28-.23-.15-2.09-.64-4.04.06-6.3.86-2.76.13-5.95-.21-8.75-.61-5.04.75-9.75,1.11-14.59.53-7.15,3.06-14.01,5.97-20.53,2.91-6.52,5.39-13.37,10.28-18.9,2.41-2.72,3.26-6.39,5.81-9.06.78-.81,2.33-1.47,1.84-3.35-3.61,2.33-6.66,5.18-8.64,8.47-2.45,4.05-5.56,7.64-7.69,11.98-1.86,3.78-3.57,7.6-5.27,11.45-.82,1.86-.92,3.52.01,5.28l.02-.02c-.87-.52-1.67-1.29-1.91.61-.23,1.72-1.18,3.38-1.29,5.09-.44,6.8-2.88,13.36-2.6,20.22.07,1.68-.77,3.17-.8,4.69-.05,2.03.66,4.05.61,6.19-.11,4.08.69,8.09,2.09,12.65.77-2.13.55-3.67.65-5.16Zm46.06-56.36c-1.22,3.06-1.13,6.38-2.16,9.45-.93,2.78.97,6.33-2.4,8.47-.1.06-.15.4-.08.46,2.53,2.26.86,5,.83,7.5-.09,6.98.89,13.93.36,20.95-.41,5.41-.74,10.92-.41,16.26.57,9.37.9,18.76,1.42,28.13.23,4.1.61,8.18,1.12,12.23.55,4.39,1.65,8.72,6.99,10.08.23.06.58.24.61.41.41,2.06,2.41,1.88,3.47,1.66,3.88-.8,7.66-.26,11.52-.09,9.32.4,18.66-.08,28,.39,11.73.6,23.48-.05,35.23.71,9.11.59,18.29-.15,27.45.03,4.2.08,8.68,0,11.9-3.53.22-.24.73.07.72-.71-.08-3.55,1.03-6.97,1.29-10.52.97-13.8,1.07-27.63,1.49-41.45.28-9.13-.35-18.25-.48-27.38-.04-2.73-.8-5.25-2.68-7.34-1.25-1.39-3.22-2.7.26-3.82.44-.14.67-1.01.92-1.57,1.3-2.84,2-5.86,2.51-8.91,1.04-6.18,1.26-12.41-.54-18.46-.96-3.23-1.79-6.63-5.68-8.4-2.48-1.13-4.32-3.54-6.65-5.2-4.36-3.13-6.84-8.61-12.83-9.75-3.42-.65-4.31-4-6.53-5.93-.62-.54-.98-1.11-1.61-.18-1.21,1.79-3.31,1.56-4.27.61-1.83-1.81-3.5-1.33-5.5-.86-1.26.29-2.35.56-3.16,1.69-.69.96-1.71,1.18-3.05,1.23-3.35.13-6.72-.02-10.03.3-3.09.3-7,.57-7.78,4.15-.6,2.76-1.85,1.44-2.38.79-1.7-2.08-5.27-1.65-6.24-4.69-.25-.79-1.62-1.02-2.42-.94-1.61.18-2.77-.84-4.02-1.35-.79-.32-1.29-.56-2.24-.64-2.45-.22-4.68.86-6.96.78-3.63-.12-7.23.37-10.85.18-1.19-.06-2.01.39-2.85,1.21-3.02,2.93-6.13,5.77-10.44,6.86-.76.19-1.49.66-2.1,1.16-1.66,1.35-3.52,2.31-5.4,3.32-2.36,1.27-5.17,2.79-6.27,5.62-.6,1.55-.97,3.22-1.19,4.87-.55,4.17-1.84,8.3-1.03,12.57.12.64-.22,1.57.74,1.8.84.2,1.59-.18,2.18-.81.41-.45.83-.9,1.25-1.34Zm-3.09-49.2c6.69-3.46,13.13-7.25,19.94-10.4-7.18,2.53-14.04,5.64-19.94,10.4Zm21.48-10.7c3.95-1.28,7.91-2.56,11.86-3.84-.08-.24-.17-.47-.25-.71-3.85,1.57-8.22,1.69-11.6,4.55ZM19.07,139.59c1.67-1.52.63-2.91.18-4.37-.19-.61-.06-1.29-.92-1.18-.77.09-1.07.83-.86,1.41.48,1.36.34,2.97,1.6,4.14Zm-10.23-19.22c.08,0,.16,0,.25,0v-8.87c-.08,0-.16,0-.25,0v8.87Zm57.29,92.09c-.97-.23-1.4.08-1.33.54.15,1,1.25,1.13,1.93,1.63.28.21.71-.07.68-.51-.07-1.02-.77-1.5-1.28-1.66Zm-34.5-29.35s.09.09.14.11c.07.02.15,0,.23,0-.05-.06-.09-.15-.16-.17-.06-.02-.14.04-.21.06Z"/><path class="cls-1" d="m34.33,185.71c1.33,3.51,4.25,5.9,6.5,8.76.59.75,1.55,1.22,1.75,2.26-1.08.3-2.32,1.03-2.5-.98-.02-.27-.4-.63-.7-.74-4.79-1.75-7.57-5.83-10.19-9.55-3.59-5.1-7.65-9.67-12.14-13.96-.19-.18-.46-.34-.57-.56-2.47-5.05-5.21-9.94-6.34-15.6-.81-4.06-2.66-7.94-4.26-11.82-.66-1.59-.89-3.16-1.15-4.83-.91-5.88-1.12-11.9-3.41-17.54-.29-.71-.38-1.56-.34-2.34.23-3.97-.95-7.81-1.01-11.74-.05-3.33.78-6.54,1.88-9.68,1.31-3.75,2.69-7.48,3.93-11.25,1.37-4.18,2.95-8.3,3.46-12.7.22-1.89,1.5-3.43,2.31-5.03,3.93-7.77,7.07-15.97,12.4-23.02.54-.71,1.13-1.39,1.77-2.01,4.51-4.38,8.66-9.19,13.77-12.87,5.92-4.25,11.08-9.49,17.95-12.58,5.71-2.57,11.28-5.66,17.27-7.27,4.01-1.08,7.54-3.42,11.73-3.81.09,0,.23-.01.26-.06,2.8-4.7,8.28-.84,11.71-3.5,4.08,1.51,7.18-1.7,10.84-2.12,2.25-.25,4.58-.11,6.83-.1,6.03.05,12.1.19,18.07,1.29.23.04.42.3.62.46-5.48.66-11.02.3-16.51.9-24.87,2.76-46.79,12.07-65.9,27.86-1.74,1.43-3.43,2.87-4.77,4.63-2.27,2.98-5.61,4.61-8.62,6.55-3.66,2.36-6.06,5.75-8.53,9-3.54,4.66-6.84,9.56-9.59,14.7-2.23,4.17-4.24,8.48-5.75,13.05-1.81,5.47-4.4,10.71-6.37,16.17-.68,1.9-1.51,3.71-1.46,5.8.12,4.94-.72,9.81-.57,14.8.19,6.1.59,12.17,1.55,18.15.91,5.63,1.85,11.29,3.88,16.76,1.59,4.3,2.56,8.84,4.89,12.85,3.78,6.52,8.43,12.42,13.86,17.72,1.26,1.23,1.6,3.22,3.44,3.97l-.03-.03Z"/><path class="cls-4" d="m147.72,4.29c-.39.3-.76.31-1.1-.08.42-.66.77-.45,1.1.08Z"/><path class="cls-2" d="m65.2,212.8c.3.18.6.36.9.54-.56.23-.9.11-.9-.54Z"/><path class="cls-1" d="m63.98,74.79c-.42.45-.83.89-1.25,1.34-.59.64-1.34,1.02-2.18.81-.96-.23-.62-1.16-.74-1.8-.81-4.28.47-8.4,1.03-12.57.22-1.65.59-3.32,1.19-4.87,1.1-2.84,3.91-4.36,6.27-5.62,1.89-1.01,3.74-1.96,5.4-3.32.61-.5,1.35-.97,2.1-1.16,4.32-1.09,7.42-3.93,10.44-6.86.84-.82,1.67-1.27,2.85-1.21,3.61.19,7.21-.3,10.85-.18,2.28.08,4.51-1,6.96-.78.95.09,1.46.33,2.24.64,1.25.5,2.41,1.52,4.02,1.35.8-.09,2.17.15,2.42.94.97,3.04,4.54,2.61,6.24,4.69.53.65,1.78,1.97,2.38-.79.78-3.58,4.69-3.85,7.78-4.15,3.31-.33,6.69-.17,10.03-.3,1.34-.05,2.37-.27,3.05-1.23.81-1.14,1.9-1.4,3.16-1.69,2-.47,3.67-.94,5.5.86.97.96,3.06,1.19,4.27-.61.63-.93.99-.36,1.61.18,2.22,1.93,3.12,5.29,6.53,5.93,5.99,1.14,8.48,6.62,12.83,9.75,2.32,1.67,4.17,4.08,6.65,5.2,3.89,1.77,4.72,5.17,5.68,8.4,1.79,6.05,1.57,12.28.54,18.46-.51,3.05-1.21,6.06-2.51,8.91-.26.56-.48,1.43-.92,1.57-3.48,1.12-1.51,2.43-.26,3.82,1.88,2.09,2.63,4.61,2.68,7.34.14,9.13.77,18.24.48,27.38-.42,13.82-.52,27.64-1.49,41.45-.25,3.55-1.36,6.97-1.29,10.52.02.78-.5.47-.72.71-3.23,3.54-7.7,3.62-11.9,3.53-9.16-.18-18.34.57-27.45-.03-11.75-.76-23.5-.12-35.23-.71-9.34-.47-18.68.01-28-.39-3.86-.17-7.64-.71-11.52.09-1.06.22-3.06.4-3.47-1.66-.03-.17-.38-.35-.61-.41-5.34-1.36-6.44-5.7-6.99-10.08-.51-4.05-.89-8.13-1.12-12.23-.52-9.37-.85-18.76-1.42-28.13-.33-5.34,0-10.86.41-16.26.53-7.01-.45-13.96-.36-20.95.03-2.5,1.7-5.24-.83-7.5-.07-.06-.02-.4.08-.46,3.37-2.13,1.46-5.68,2.4-8.47,1.03-3.07.94-6.39,2.16-9.45Zm51.58,84.1c1.03-.31,2.35.28,3.12-.93-2.69-1.58-2.8-1.55-3.11.95l-.08.05.06-.07Zm28.92-3.73c.06.04.13.07.19.11-.07-.03-.14-.06-.21-.09.13-1.63-1.21-2.79-2.24-2.97-2.83-.5-5.77-.42-8.67-.58l-.11.71c3.86.34,8.04-.35,11.05,2.82Zm-.88-100.61c1.73.51,3.44-.21,5.06-.15,1.99.07,3.86.09,5.75-.49,1.16-.36,2.33-.27,3.5-.13.34.04.88-.11.63.72-.59,1.99.18,3.95.48,5.9.39,2.5,4.37,4.66,8.16,3.85-.98-.42-1.45-.53-1.81-.78-3.4-2.46-3.88-4.34-2.09-8.13,1.43-3.05.97-4.33-2.48-4.61-5.76-.46-11.54-2.27-17.36-.32-.87.29-2.47-.53-2.54.72-.09,1.54,1.7.71,2.57,1.17.12.07.18.25.27.38-.32.93-1.81-.62-1.8.79,0,.7.84.49,1.3.71-.06.18-.12.36-.19.54.19-.06.38-.11.57-.17Zm15.57,66.44c-.7-.11-1.38-.69-2.09-.3-3.74,2.1-8.56,1.39-11.96,4.39-.14.12-.53.02-.78-.04-3.16-.85-5.62.2-7.6,2.62-.31.38-.72,1.03-1.12.11-.46-1.06-.91-.47-1.39-.07-1.9,1.58-4.08,2.73-6.28,3.84-3.3,1.67-6.43,4.08-10.91,2.5.84,1.12,1.18,2.11,1.23,3.24.03.63.04,1.74,1.34,1.47l7.43-2.05c.97-.61,2.05-.66,3.15-.64,2.64.05,4.96-.79,7.06-2.34,2.29-1.69,4.77-2.59,7.76-2.7,2.19-.08,4.66.22,6.57-.66,1.66-.76,3.32-.6,4.56-.34,3.03.66,5.89,2.18,8.53-.75.33-.36.79-.3,1.26-.25q4.65.43,4.58-4.26c-.73,1.58-2.14,1.76-3.42,2.27-1.75.69-2.51.11-2.98-1.49-.05-.17-1.01-.09-1.54-.12-.09-.1-.18-.2-.27-.31.17-.61.33-1.21.55-1.99-.8.2-1.35.24-1.81.47-2.36,1.17-2.19-.18-1.87-1.74.05-.25.05-.51.08-.76.08-.1.16-.2.23-.3-.11.07-.21.15-.32.22Zm-65.93,21.41l-.06-.05c-.09-1.01-1.06-1.81-1.16-2.57-.16-1.35-.14-2.36-1.87-2.45-1.18-.06-2.39-.94-3.46.39-.72.91-.96-.35-.93-.44.99-2.64-1.39-1.4-2.33-1.72,1.84-3.09-2.27-2.73-2.4-4.81.21-.66,1.53.62,1.56-.37.03-1.05-1.07-.64-1.7-.8-.35-.09-.96-.11-1-.27-.72-3.03-2.55-.99-3.82-.7-.66.15-1.14,1.32-2.02.46-.71-.69-1.24-1.56-.95-2.62.33-1.19,1.09-2.39,1-3.54-.2-2.77.06-5.13,3.67-5.96-3.06-1.52-3.8-2.6-5.06-6.84-1.52-5.13.01-6.7,5.4-5.89,2.07.31,4.26-.33,6.31.64.46.22,1.2-.05,1.33-.63.14-.61-.45-.89-.97-1.09-1.12-.44-2.23-.92-3.37-1.3-2.73-.92-3.06-2.2-1.6-4.57,1.07-1.73,3.37-1.58,4.19-2.56,1.83-2.2,4.19-1.72,6.32-2.42,2.54-.83,5.5.55,7.65-2.86,1.69-2.68,5.07-4.92,8.94-4.86,1.37.02,1.95-.29,2.19-1.56.35-1.85,1.73-2.31,3.44-2.27,2.63.06,3.42-.77,3.15-3.27-.36-3.34.7-4.64,3.65-4.38.69.06,1.36.42,2.03.68,3.23,1.24,6.59,1.94,10.01,2.45.84.12,1.63-.88,1.87-.55,2.1,2.88,5.53,2.43,8.39,3.35,2.05.67,4.3.65,6.31,1.57.73.33,1.8.44.59,1.53-.4.36-.04.82.3,1.13,1.69,1.55,2.63,3.55,3.54,5.58.63,1.41,4.95,3.02,5.89,2.05,2.02-2.08,5.04-2.94,6.66-5.45.26-.4.96-.64.48-1.3-.36-.51-1-.79-1.41-.45-1.89,1.57-3.22.11-4.48-.84-1.02-.77-2.03-1.46-3.22-1.92-4.02-1.52-7.13-6.51-6.89-10.8.07-1.37.53-1.95,1.92-1.91.59.02,1.81-.2,1.6-.45-1.44-1.67.47-.94.85-1.25.65-.52,1.32-1.12.91-1.99-.42-.89-1.36-.86-2.14-.54-.55.22-1.02.7-1.46,1.13-.46.44-.62,1.78-1.47.2-.3-.56-1.18-.26-1.76-.01-1.66.71-2.59-.1-2.62-1.57-.07-2.96-1.87-4.85-3.76-6.81-.54-.56-1.65-.97-1.28-2.06.61-1.81-.63-1.61-1.73-1.6.03-.47-.01-.89-.64-.86-.08,0-.15.27-.22.41.3.14.59.29.89.43-1.55,2.3-3.5.38-4.93.08-3.12-.66-5.94-2.54-9.34-2.23-1.45.13-2.61-.11-3.24-1.68-.27-.67-1.05-1.25-1.74-1.63-.4-.22-.79-.46-1.46.54-1.08,1.62.89,2.54.23,3.34-2.04,2.46-2.08,6.73-6.51,7.08-.53.04-.83.51-.88.91-.38,3.14-3.34,3.1-5.37,3.93-3.99,1.64-8.26,2.75-10.16,7.15-.29.68-.53,1.3-1.45,1.33-.49.01-1.05.43-.71.84,1.66,2.03-.69,2.48-1.42,2.54-2.4.19-3.23,1.88-4.29,3.45-.27.39-.41,1.1-1.13.46-1.69-1.51-2.99-.49-4.22.68-.57.54-.96,1.29-1.56,1.79-3.42,2.87-3.73,3.03-1.57,6.67,1.57,2.65.53,3.9-1.29,5.57-1.69,1.55-2.72,1.25-3.81-.49-.7-1.11-.77-2.63-2.38-3.59.01,4.04.52,7.84-1.49,11.34-.47.82-.37,2.21.35,3.06.84.99.96,2.15,1.03,3.24.32,4.5,1.39,8.86,2.33,13.24.13.63-.02,1.16-.31,1.76-1.05,2.21-2.09,4.45-.17,6.77.31.37.49,1,.45,1.48-.4,4.71,3.28,7.2,5.94,10.14.81.9,2.85.61,4.02,1.34,3.67,2.3,7.94,2.41,11.92,2.64,4.98.3,10.11-.45,14.9-2.11,1.33-.46,2.41.56,3.3.14,1.42-.66-1.05-1.66,0-2.97,1.08-1.37-.56-3.51-2.45-3.62-2.7-.17-4.93.85-6.5,2.88-.74.96-1.04,1.63-2.14.55-.41-.4-.98-.35-1.54-.29-2.8.3-5.62.52-7.67,2.79Zm-15.7,21.02c-2.75,1.42-5.12,2.23-5.04,5.03.07,2.45.02,4.91.33,7.33.12.94-.87,2.1.16,2.72,1.82,1.11,3.81,1.97,6.01,2.11.55.04,1.16-.15,1.39-.67.26-.58-.18-1.13-.68-1.26-1.77-.47-1.3-1.67-1.36-2.94-.12-2.51.55-5.01,1.81-6.81,1.5-2.16-1.72-4.82,1.32-6.49.62-.34-.3-.96-.89-1.23-1.47-.68-3.5-1.8-3.37-3.03.3-2.86-.59-5.29-1.53-7.79-.33-.88-.56-1.36.79-1.59,1.08-.18,3.01-.52,2.35-2.14-.62-1.52-1.74.1-2.65.3-.35.08-.74.02-1.05.15-2.03.8-3.13,3.23-2.81,5.26.34,2.16,1.05,4.24,1.38,6.34.36,2.21-.33,4.54,3.85,4.71Zm100.26,1.56c.09-2.95-.92-5.82-.65-8.81.07-.76-.87-1.27-1.83-1.14-.93.12-1.57.49-1.34,1.54.13.6.45,1.21-.2,1.69-2.18,1.57-1.84,3.69-.86,5.55,1.17,2.22-1.84,5.5,1.94,6.96.11.04.1.5.07.76-.22,1.73-5.63,7.07-7.36,7.22-.42.04-.91-.07-1.27-.28-.6-.34-1.11-1.18-1.84-.46-.51.5-.42,1.26-.3,2,.16.93.69,1.1,1.5,1.14,3.78.2,7.56.45,11.34.66,1.31.07,1.94-.73,1.71-1.83-.44-2.05.07-4.05.07-6.07,0-3.03-1.02-5.92-.97-8.93Zm-3.48-52.14c-.75-2.15.92-4.24-.09-6.42-.97-2.09-1.62-4.3-1.35-6.67.09-.78.08-1.96-.91-1.92-1.83.09-2.95-1.24-4.47-1.69-2.4-.71-3.61-2.37-3.97-4.72-1.71.22-2.16,2.26-4.22,2.22,1.01.71,1.74,1.1,2.29,1.65,1.25,1.27,3.63,2.94,3.38,3.88-.82,3.03,1.07,2.39,2.6,2.52,3.45.3,4.6,1.65,3.89,4.86-.6,2.69.08,4.79,2.83,6.28Zm.25-20.4c1.28-.65,1.93-1.64,2.21-2.7,1.11-4.19,2.32-8.38,2.99-12.65.32-2.05.07-4.45-1.86-6.07-2.38-2-5.52-2.89-7.75-5.15-.61-.62-1.56-.36-2.61-.23.78.63,1.39,1.03,1.88,1.53,2.52,2.57,5.75,4.86,3.7,9.21-.21.45-.09,1.04-.16,1.56-.19,1.42,1.02,1.77,1.87,1.71,1.18-.09.69-1.21.56-1.92-.11-.6-.5-1.14-.67-1.74-.18-.63-.41-1.33.47-1.95,4.38,6.31,1.22,12.32-.64,18.39Zm-102.82-4.65c.98-2.66,1.52-5.6,3.08-7.89,1.38-2.03-.04-3.92.74-5.74.16-.38.13-.9-.49-1.02-.52-.1-.96.17-1.12.57-.29.73-.43,1.51-.62,2.27-.95,3.86-2.67,7.6-1.59,11.8Zm8.65-16.63c.71.37,1.18.04,1.6-.5.26-.33.33-.58-.07-.84-1.2-.76-1.47-1.9-1.44-3.21.02-.75-.61-1.1-1.2-1.25-.63-.16-.87.45-1.16.89-2.15,3.33-1.67,4.38,2.27,4.9Zm9.47-8.81c.02-.53-.16-1.72-1.49-1.41-1.27.3-3.32-.1-3.32,2.24,0,1.25.21,2.51,1.64,2.58,1.84.08,3-.99,3.17-3.41Zm3.62,74.77c2.42.49,5.08,1.24,7.19-.02,1.8-1.07,2.63-3.54,5.16-4-1.78.46-3.87-.07-4.97,2-.36.67-1.61,1.18-2.43.84-1.99-.84-3.35.45-4.95,1.18Zm12.11-32.89c-1.89-.03-2.9-.64-3.99-.9-1.81-.43-3.68-.81-5.49.19-.57.31-.84.66-.44,1.24.18.26.46.71.83.34,1.58-1.6,3.31-.79,4.54.14,1.71,1.3,2.68.45,4.56-1Zm31.98,6.67c-3.31-2.86-6.44-4.93-10.56-4.89-.5,0-1.07-.52-1.44.12-.15.25-.09.71.04,1,.26.58.84.67,1.38.45,2.8-1.13,4.87.41,6.85,1.9,1.02.76,1.92,1.48,3.73,1.43Zm-34.39,64.58c-1.32.51-2.65.98-3.95,1.54-.46.2-.57.71-.34,1.13.19.34.56.21.94.14,1.33-.23,2.48-.84,3.65-1.45.29-.15.8-.08.66-.57-.12-.43-.46-.74-.97-.79Zm44.05-9.11c1.67-1.41,3.45-.5,4.78-1.74-.79-.73-1.99-.86-2.19-2.17-.09-.6-1.26-1.13-2.04-.88-.81.26-.3,1.17-.16,1.62.28.92-.22,1.66-.39,3.17Zm6.6-16.95c-2.19-1.11-3.67-.13-5.02,1.25-.21.22-.37.67-.29.93.11.36.57.42.91.24,1.43-.8,3.28-.9,4.4-2.42Zm5.81,17.03c-1.6-2.68-3.65-.97-5.43-1-.12,0-.33.37-.36.58-.04.4.29.77.63.6,1.63-.84,3.33.67,5.15-.18Zm-45.98-59.29c2.74.5,5.5,1.1,8.79-.53-3.38.15-6.11-.28-8.79.53Zm12.49,21.91c2.12-.57,3.13-2.1,5.19-3.26-2.61.33-3.84,1.56-5.19,3.26Zm-23.94-82.02q2.25,1.64,4.43.77c-1.42-.63-2.74-.89-4.43-.77Zm41.35,118.67c-1.09.12-1.91-1.29-3.08-.46-.11.08-.09.61.03.69.97.64,1.99.4,3.05-.23Zm-12.47-14.63c-1.28.42-2.77-.6-4.52.97,1.94-.36,3.37.29,4.52-.97Zm-10.3-30.48c-.73,0-1.18.38-1.28,1.05-.11.7.42.85,1,.87.88.04.94-.6,1.05-1.21.12-.64-.28-.71-.77-.72Zm-14.64-21.55c-.75.61.06,1.95-1.27,2.33-.58.17-.34.89.29,1.16.6.25,1.1.18,1.13-.57.05-.95.43-1.92-.15-2.92Zm-21.01,34.5c1.19.44,1.88-.22,2.88-.61-1.54-1.36-1.97.15-2.88.61Zm40.86,37.2c-.21.14-.62.27-.75.54-.2.41.26.58.56.67.4.13.69-.15.83-.49.16-.41-.07-.64-.63-.72Zm.01,3.03c-.21-.25-.4-.63-.51-.61-.5.09-.36.52-.32.85.03.26.17.55.48.39.17-.09.23-.4.35-.62Zm-24.51-63.09c-.21-.08-.4-.21-.49-.16-.19.1-.33.29-.49.45.13.06.31.21.4.17.2-.09.37-.27.58-.45Zm-17.75,21.27c.06.02.13.06.19.05.02,0,.04-.09.07-.14-.06-.02-.13-.06-.19-.05-.02,0-.04.09-.07.14Zm14.68-19.35l.09-.23c-.1.05-.19.11-.29.16.07.02.13.04.2.07Zm1.02-1.04l-.1.12.15.02-.06-.14Z"/><path class="cls-1" d="m31.96,86.86c-.94-1.76-.83-3.43-.01-5.28,1.7-3.85,3.41-7.67,5.27-11.45,2.13-4.34,5.24-7.93,7.69-11.98,1.99-3.29,5.04-6.15,8.64-8.47.49,1.88-1.07,2.53-1.84,3.35-2.55,2.67-3.4,6.33-5.81,9.06-4.89,5.53-7.37,12.38-10.28,18.9-2.91,6.52-5.44,13.38-5.97,20.53-.36,4.84-1.72,9.55-1.11,14.59.34,2.8,1.07,6,.21,8.75-.7,2.26-.21,4.2-.06,6.3l.02-.02c-.1,1.5.12,3.03-.65,5.16-1.39-4.55-2.19-8.56-2.09-12.65.06-2.14-.66-4.16-.61-6.19.04-1.52.87-3,.8-4.69-.29-6.87,2.16-13.42,2.6-20.22.11-1.72,1.06-3.37,1.29-5.09.25-1.9,1.04-1.13,1.91-.61,0,0,.07.06.07.06l-.09-.05Z"/><path class="cls-1" d="m43.03,52.88c-3.13,5.15-6.76,9.99-9.47,15.41-4.35,8.69-7.9,17.58-10,27.1-1.24,5.61-2.14,11.27-3.31,17.02-1.03-16.23,8.07-42.88,22.12-60.29.22.25.44.5.66.76Z"/><path class="cls-6" d="m43.03,52.88c-.22-.25-.44-.5-.66-.76,6.29-8.41,13.6-15.84,22.12-22.12.2-.15.5-.18.75-.26l-.02-.05c.41,1.23-.75,1.63-1.37,2.08-8.19,5.87-14.77,13.23-20.82,21.11Z"/><path class="cls-1" d="m71.68,25.57c5.9-4.76,12.76-7.86,19.94-10.4-6.81,3.15-13.25,6.94-19.94,10.4Z"/><path class="cls-1" d="m21.64,140.18c-.43-.16-.94-.34-.9-.85.29-3.81-.85-7.47-1.14-11.22-.05-.63-.2-1.37.71-2.23.46,5,.88,9.66,1.3,14.32l.03-.02Z"/><path class="cls-1" d="m93.16,14.87c3.38-2.85,7.75-2.98,11.6-4.55.08.24.17.47.25.71-3.95,1.28-7.91,2.56-11.86,3.84Z"/><path class="cls-1" d="m29.85,143.33c-1.26-1.17-1.12-2.79-1.6-4.14-.21-.58.1-1.32.86-1.41.86-.1.73.57.92,1.18.45,1.47,1.49,2.85-.18,4.37Z"/><path class="cls-1" d="m19.62,124.11v-8.87c.08,0,.16,0,.25,0v8.87c-.08,0-.16,0-.25,0Z"/><path class="cls-4" d="m21.61,140.21c.51.37.44.9.45,1.47-.58-.43-.26-1.02-.42-1.49,0,0-.03.02-.03.02Z"/><path class="cls-4" d="m42.4,186.84c.07-.02.16-.08.21-.06.06.02.1.11.16.17-.08,0-.16.01-.23,0-.05-.01-.09-.07-.14-.11Z"/><path class="cls-6" d="m65.24,29.74c.18-.13.35-.26.53-.39.06.11.19.31.17.32-.23.17-.47.5-.72.01,0,0,.02.05.02.05Z"/><path class="cls-4" d="m53.79,199.97c.15.19.3.38.45.57-.07.05-.15.1-.22.15-.07-.24-.14-.49-.21-.73,0,0-.02.02-.02.02Z"/><path class="cls-4" d="m28.69,131.15c.09.08.18.15.28.23-.06,0-.14,0-.17-.03-.05-.06-.06-.14-.09-.22,0,0-.02.02-.02.02Z"/><polygon class="cls-2" points="31.96 86.86 32.05 86.91 31.98 86.85 31.96 86.86"/></g></svg>