<svg width="433" height="246" viewBox="0 0 433 246" fill="none" xmlns="http://www.w3.org/2000/svg">
<path d="M433 39.66C368.31 104.66 303.75 169.8 238.82 234.56C223.71 249.63 208.69 249.17 193.15 233.74C132.65 173.67 72.3102 113.43 12.1602 53C-5.66979 35.09 -3.99979 22.84 17.8702 0H35.9202C45.1702 5.15 53.0402 11.9 60.5302 19.43C108.73 67.92 157.42 115.92 205.32 164.7C214.19 173.73 218.85 173.51 227.59 164.61C275.5 115.85 324.16 67.81 372.4 19.36C379.84 11.88 387.48 4.88 396.9 0H411.34C420.42 5.35 427.54 12.67 433 21.63V39.66Z" fill="#232188"/>
</svg>
